SplineFontDB: 3.0
FontName: ABoYoGaGrai-010Normal
FullName: A BoYo GaGrai - 010 Normal
FamilyName: A BoYo GaGrai - 010 Normal
Weight: Book
Copyright: Typeface (c) (your company). 2013. All Rights Reserved
Version: 1.00 June 15, 2013, initial release
ItalicAngle: 0
UnderlinePosition: -292
UnderlineWidth: 150
Ascent: 1638
Descent: 410
InvalidEm: 0
sfntRevision: 0x00010000
LayerCount: 2
Layer: 0 1 "Back" 1
Layer: 1 1 "Fore" 0
XUID: [1021 935 -752636343 16448]
StyleMap: 0x0040
FSType: 8
OS2Version: 3
OS2_WeightWidthSlopeOnly: 0
OS2_UseTypoMetrics: 0
CreationTime: 1371327087
ModificationTime: 1566129245
PfmFamily: 17
TTFWeight: 400
TTFWidth: 5
LineGap: 222
VLineGap: 0
Panose: 2 0 5 0 0 0 0 0 0 0
OS2TypoAscent: 1434
OS2TypoAOffset: 0
OS2TypoDescent: -410
OS2TypoDOffset: 0
OS2TypoLinegap: 205
OS2WinAscent: 1716
OS2WinAOffset: 0
OS2WinDescent: 418
OS2WinDOffset: 0
HheadAscent: 1716
HheadAOffset: 0
HheadDescent: -418
HheadDOffset: 0
OS2SubXSize: 1434
OS2SubYSize: 1331
OS2SubXOff: 0
OS2SubYOff: 283
OS2SupXSize: 1434
OS2SupYSize: 1331
OS2SupXOff: 0
OS2SupYOff: 977
OS2StrikeYSize: 102
OS2StrikeYPos: 530
OS2CapHeight: 1434
OS2XHeight: 1024
OS2Vendor: 'HL  '
OS2CodePages: 20000111.41000000
OS2UnicodeRanges: 800000a7.5000004a.00000000.00000000
Lookup: 258 0 0 "BoyoGagrai-kern" { "BoyoGagrai-kern-1" [307,30,0] } []
MarkAttachClasses: 1
DEI: 91125
KernClass2: 1+ 2 "BoyoGagrai-kern-1"
 1 j
 1 q
 0 {} -55 {}
ShortTable: maxp 16
  1
  0
  252
  1133
  16
  0
  0
  0
  0
  0
  0
  0
  0
  0
  0
  0
EndShort
LangName: 1033 "Typeface +AKkA (your company). 2013. All Rights Reserved" "" "Regular" "A BoYo GaGrai - 010 Normal:Version 1.00" "" "Version 1.00 June 15, 2013, initial release" "" "" "" "" "This font was created using FontCreator 6.0 from High-Logic.com"
LangName: 1027 "" "" "Normal"
LangName: 1029 "" "" "oby+AQ0A-ejn+AOkA"
LangName: 1030 "" "" "normal"
LangName: 1031 "" "" "Standard"
LangName: 1032 "" "" "+A5oDsQO9A78DvQO5A7oDrAAA"
LangName: 1034 "" "" "Normal"

StartChar: .notdef
Encoding: 65536 -1 0
Width: 300
Flags: W
LayerCount: 2
Fore
SplineSet
-6 1685 m 1,0,1
 112 1690 112 1690 220 1699 c 128,-1,2
 328 1708 328 1708 431 1669 c 1,3,4
 544 1620 544 1620 544.5 1489.5 c 128,-1,5
 545 1359 545 1359 425 1311 c 0,6,7
 327 1268 327 1268 248 1249.5 c 128,-1,8
 169 1231 169 1231 81.5 1195 c 128,-1,9
 -6 1159 -6 1159 -27.5 1109.5 c 128,-1,10
 -49 1060 -49 1060 -6.5 1011.5 c 128,-1,11
 36 963 36 963 184 961 c 1,12,13
 336 980 336 980 435 1085 c 1,14,15
 508 1111 508 1111 551 1064 c 128,-1,16
 594 1017 594 1017 548 934 c 1,17,18
 440 854 440 854 362 826 c 128,-1,19
 284 798 284 798 176 795 c 0,20,21
 -8 791 -8 791 -94 856.5 c 128,-1,22
 -180 922 -180 922 -196.5 996.5 c 128,-1,23
 -213 1071 -213 1071 -210.5 1124 c 128,-1,24
 -208 1177 -208 1177 -163 1232 c 128,-1,25
 -118 1287 -118 1287 -28.5 1322.5 c 128,-1,26
 61 1358 61 1358 137 1374 c 128,-1,27
 213 1390 213 1390 295 1419 c 128,-1,28
 377 1448 377 1448 362 1505.5 c 128,-1,29
 347 1563 347 1563 126 1530 c 1,30,31
 -1 1501 -1 1501 -111 1514 c 0,32,33
 -202 1527 -202 1527 -176.5 1633.5 c 128,-1,34
 -151 1740 -151 1740 -6 1685 c 1,0,1
EndSplineSet
EndChar

StartChar: exclam
Encoding: 33 33 4
Width: 705
Flags: W
LayerCount: 2
Fore
SplineSet
347 393 m 1,0,-1
 322 699 l 1,1,-1
 296 1005 l 1,2,3
 264 1324 264 1324 400 1304 c 1,4,5
 539 1324 539 1324 505 1005 c 1,6,-1
 480 699 l 1,7,-1
 456 393 l 1,8,9
 402 245 402 245 347 393 c 1,0,-1
314 97 m 1,11,12
 324 183 324 183 401 223 c 1,13,14
 479 183 479 183 489 97 c 1,15,16
 479 0 479 0 401 0 c 0,17,10
 324 0 324 0 314 97 c 1,11,12
EndSplineSet
EndChar

StartChar: quotedbl
Encoding: 34 34 5
Width: 727
Flags: W
LayerCount: 2
Fore
SplineSet
144 947 m 1,0,-1
 94 1226 l 1,1,-1
 94 1466 l 1,2,-1
 299 1466 l 1,3,-1
 299 1226 l 1,4,-1
 254 947 l 1,5,-1
 144 947 l 1,0,-1
475 947 m 1,6,-1
 426 1226 l 1,7,-1
 426 1466 l 1,8,-1
 631 1466 l 1,9,-1
 631 1226 l 1,10,-1
 583 947 l 1,11,-1
 475 947 l 1,6,-1
EndSplineSet
EndChar

StartChar: dollar
Encoding: 36 36 6
Width: 17
Flags: W
LayerCount: 2
Fore
SplineSet
-1207 1672 m 1,0,1
 -1250 1561 -1250 1561 -1263 1502.5 c 128,-1,2
 -1276 1444 -1276 1444 -1261 1346.5 c 128,-1,3
 -1246 1249 -1246 1249 -1187 1194.5 c 128,-1,4
 -1128 1140 -1128 1140 -1053 1122.5 c 128,-1,5
 -978 1105 -978 1105 -890 1121 c 128,-1,6
 -802 1137 -802 1137 -739.5 1204 c 128,-1,7
 -677 1271 -677 1271 -660 1415 c 1,8,9
 -637 1504 -637 1504 -583.5 1528.5 c 128,-1,10
 -530 1553 -530 1553 -475 1533 c 128,-1,11
 -420 1513 -420 1513 -405.5 1478 c 128,-1,12
 -391 1443 -391 1443 -390.5 1396 c 128,-1,13
 -390 1349 -390 1349 -403 1304 c 128,-1,14
 -416 1259 -416 1259 -448 1175 c 1,15,16
 -384 1095 -384 1095 -288 1138 c 1,17,18
 -251 1238 -251 1238 -239 1286.5 c 128,-1,19
 -227 1335 -227 1335 -225 1388.5 c 128,-1,20
 -223 1442 -223 1442 -248.5 1515.5 c 128,-1,21
 -274 1589 -274 1589 -323 1632 c 128,-1,22
 -372 1675 -372 1675 -446 1689.5 c 128,-1,23
 -520 1704 -520 1704 -603.5 1687 c 128,-1,24
 -687 1670 -687 1670 -738.5 1606.5 c 128,-1,25
 -790 1543 -790 1543 -815 1412 c 0,26,27
 -834 1320 -834 1320 -898 1295 c 128,-1,28
 -962 1270 -962 1270 -1022 1290.5 c 128,-1,29
 -1082 1311 -1082 1311 -1101.5 1360.5 c 128,-1,30
 -1121 1410 -1121 1410 -1112.5 1464 c 128,-1,31
 -1104 1518 -1104 1518 -1081.5 1551 c 128,-1,32
 -1059 1584 -1059 1584 -1047 1662 c 1,33,34
 -1105 1727 -1105 1727 -1207 1672 c 1,0,1
EndSplineSet
EndChar

StartChar: percent
Encoding: 37 37 7
Width: 1209
Flags: W
LayerCount: 2
Fore
SplineSet
852 541 m 1,1,2
 820 292 820 292 755 213 c 128,-1,3
 690 134 690 134 608 135 c 0,4,5
 525 135 525 135 465 214.5 c 128,-1,6
 405 294 405 294 356 542 c 0,7,8
 315 740 315 740 133 747 c 1,9,-1
 30 747 l 1,10,-1
 30 602 l 1,11,-1
 108 594 l 1,12,13
 191 612 191 612 218 501 c 1,14,15
 250 242 250 242 346.5 116 c 128,-1,16
 443 -10 443 -10 605 -12 c 1,17,18
 764 -22 764 -22 868.5 107 c 128,-1,19
 973 236 973 236 1007 511 c 0,20,21
 1022 609 1022 609 1098 597 c 1,22,-1
 1172 606 l 1,23,-1
 1172 747 l 1,24,-1
 1059 747 l 1,25,0
 886 732 886 732 852 541 c 1,1,2
1059 848 m 1,26,-1
 1172 848 l 1,27,-1
 1172 989 l 1,28,-1
 1088 998 l 1,29,30
 1012 994 1012 994 997 1083 c 1,31,32
 973 1355 973 1355 868.5 1483 c 128,-1,33
 764 1611 764 1611 605 1600 c 1,34,35
 443 1599 443 1599 346.5 1473.5 c 128,-1,36
 250 1348 250 1348 218 1083 c 1,37,38
 201 993 201 993 108 1000 c 1,39,-1
 30 993 l 1,40,-1
 30 848 l 1,41,-1
 133 848 l 1,42,43
 315 856 315 856 356 1051 c 0,44,45
 405 1307 405 1307 460 1381 c 128,-1,46
 515 1455 515 1455 608 1455 c 0,47,48
 690 1456 690 1456 755 1381.5 c 128,-1,49
 820 1307 820 1307 852 1053 c 1,50,51
 886 862 886 862 1059 848 c 1,26,-1
EndSplineSet
EndChar

StartChar: ampersand
Encoding: 38 38 8
Width: 908
Flags: W
LayerCount: 2
Fore
SplineSet
52 632 m 1,0,1
 300 561 300 561 345 459 c 1,2,3
 252 382 252 382 222.5 303 c 128,-1,4
 193 224 193 224 225.5 141 c 128,-1,5
 258 58 258 58 315.5 24 c 128,-1,6
 373 -10 373 -10 453 -10.5 c 128,-1,7
 533 -11 533 -11 596 24 c 128,-1,8
 659 59 659 59 681 137.5 c 128,-1,9
 703 216 703 216 680.5 298.5 c 128,-1,10
 658 381 658 381 563 458 c 1,11,12
 615 580 615 580 846 629 c 1,13,-1
 800 763 l 1,14,15
 527 716 527 716 448 575 c 1,16,17
 373 716 373 716 98 764 c 1,18,-1
 52 632 l 1,0,1
453 349 m 1,19,20
 558 230 558 230 503 162.5 c 128,-1,21
 448 95 448 95 395.5 164 c 128,-1,22
 343 233 343 233 453 349 c 1,19,20
98 828 m 1,23,24
 373 879 373 879 448 1019 c 1,25,26
 527 879 527 879 800 829 c 1,27,-1
 846 963 l 1,28,29
 603 1026 603 1026 563 1137 c 1,30,31
 658 1215 658 1215 675.5 1298.5 c 128,-1,32
 693 1382 693 1382 671 1461 c 128,-1,33
 649 1540 649 1540 591 1575.5 c 128,-1,34
 533 1611 533 1611 453 1610.5 c 128,-1,35
 373 1610 373 1610 315.5 1575.5 c 128,-1,36
 258 1541 258 1541 230.5 1457.5 c 128,-1,37
 203 1374 203 1374 232.5 1294 c 128,-1,38
 262 1214 262 1214 345 1137 c 1,39,40
 300 1034 300 1034 52 960 c 1,41,-1
 98 828 l 1,23,24
398.5 1413 m 128,-1,43
 445 1477 445 1477 502 1413.5 c 128,-1,44
 559 1350 559 1350 450 1244 c 1,45,42
 352 1349 352 1349 398.5 1413 c 128,-1,43
EndSplineSet
EndChar

StartChar: quotesingle
Encoding: 39 39 9
Width: 404
Flags: W
LayerCount: 2
Fore
SplineSet
162 867 m 1,0,1
 119 1081 119 1081 110 1266 c 1,2,3
 111 1361 111 1361 158 1387.5 c 128,-1,4
 205 1414 205 1414 252.5 1387.5 c 128,-1,5
 300 1361 300 1361 292 1266 c 0,6,7
 283 1081 283 1081 238 867 c 1,8,9
 200 807 200 807 162 867 c 1,0,1
EndSplineSet
EndChar

StartChar: parenleft
Encoding: 40 40 10
Width: 908
Flags: W
LayerCount: 2
Fore
SplineSet
542 -299 m 1,0,1
 353 -122 353 -122 223.5 115.5 c 128,-1,2
 94 353 94 353 94 607 c 0,3,4
 94 832 94 832 191 1037 c 0,5,6
 304 1276 304 1276 542 1502 c 1,7,-1
 705 1502 l 1,8,9
 552 1316 552 1316 503 1232 c 0,10,11
 426 1103 426 1103 382 962 c 0,12,13
 327 784 327 784 327 607 c 0,14,15
 327 153 327 153 705 -299 c 1,16,-1
 542 -299 l 1,0,1
EndSplineSet
EndChar

StartChar: parenright
Encoding: 41 41 11
Width: 903
Flags: W
LayerCount: 2
Fore
SplineSet
358 -296 m 1,0,-1
 195 -296 l 1,1,2
 574 153 574 153 574 603 c 0,3,4
 574 778 574 778 520 951 c 0,5,6
 476 1091 476 1091 399 1219 c 0,7,8
 350 1304 350 1304 195 1500 c 1,9,-1
 358 1500 l 1,10,11
 596 1265 596 1265 711 1029 c 0,12,13
 808 825 808 825 808 604 c 0,14,15
 808 351 808 351 677 115.5 c 128,-1,16
 546 -120 546 -120 358 -296 c 1,0,-1
EndSplineSet
EndChar

StartChar: asterisk
Encoding: 42 42 12
Width: 1110
Flags: W
LayerCount: 2
Fore
SplineSet
268 1007.5 m 128,-1,1
 154 1025 154 1025 42 939 c 1,2,-1
 103 761 l 1,3,4
 188 863 188 863 239 774 c 1,5,-1
 270 271 l 1,6,7
 266 120 266 120 344 50 c 128,-1,8
 422 -20 422 -20 572.5 -19 c 128,-1,9
 723 -18 723 -18 786 127 c 1,10,-1
 1060 1006 l 1,11,-1
 846 1005 l 1,12,-1
 626 320 l 1,13,14
 604 236 604 236 574.5 214.5 c 128,-1,15
 545 193 545 193 505 216.5 c 128,-1,16
 465 240 465 240 463 326 c 2,17,-1
 432 868 l 1,18,0
 382 990 382 990 268 1007.5 c 128,-1,1
EndSplineSet
EndChar

StartChar: plus
Encoding: 43 43 13
Width: 1196
Flags: W
LayerCount: 2
Fore
SplineSet
513 237 m 1,0,-1
 513 639 l 1,1,-1
 114 639 l 1,2,-1
 114 807 l 1,3,-1
 513 807 l 1,4,-1
 513 1206 l 1,5,-1
 683 1206 l 1,6,-1
 683 807 l 1,7,-1
 1082 807 l 1,8,-1
 1082 639 l 1,9,-1
 683 639 l 1,10,-1
 683 237 l 1,11,-1
 513 237 l 1,0,-1
EndSplineSet
EndChar

StartChar: comma
Encoding: 44 44 14
Width: 501
Flags: W
LayerCount: 2
Fore
SplineSet
196 -303 m 1,0,-1
 144 -263 l 1,1,2
 283 -143 283 -143 259 -14 c 1,3,4
 121 -25 121 -25 113 94 c 1,5,6
 125 206 125 206 249 202 c 1,7,8
 399 179 399 179 384 10 c 0,9,10
 371 -180 371 -180 196 -303 c 1,0,-1
EndSplineSet
EndChar

StartChar: period
Encoding: 46 46 15
Width: 569
Flags: W
LayerCount: 2
Fore
SplineSet
186 101 m 128,-1,1
 186 212 186 212 297 212 c 128,-1,2
 408 212 408 212 408 101 c 128,-1,3
 408 -10 408 -10 297 -10 c 128,-1,0
 186 -10 186 -10 186 101 c 128,-1,1
EndSplineSet
EndChar

StartChar: slash
Encoding: 47 47 16
Width: 709
Flags: W
LayerCount: 2
Fore
SplineSet
50 -105 m 1,0,-1
 496 1210 l 1,1,-1
 651 1210 l 1,2,-1
 206 -105 l 1,3,-1
 50 -105 l 1,0,-1
EndSplineSet
EndChar

StartChar: zero
Encoding: 48 48 17
Width: 1011
Flags: W
LayerCount: 2
Fore
SplineSet
411 1300 m 1,1,-1
 402 1300 l 1,2,-1
 399 1296 l 1,3,-1
 393 1296 l 1,4,-1
 387 1296 l 1,5,-1
 387 1292 l 1,6,-1
 387 1296 l 1,7,-1
 387 1292 l 1,8,-1
 381 1292 l 1,9,10
 379 1287 379 1287 372 1290 c 1,11,12
 370 1283 370 1283 366 1287 c 1,13,-1
 357 1282 l 1,14,-1
 348 1279 l 1,15,16
 346 1271 346 1271 341 1275 c 1,17,18
 340 1269 340 1269 335 1271 c 1,19,-1
 335 1269 l 1,20,-1
 335 1271 l 1,21,-1
 335 1269 l 1,22,-1
 330 1269 l 1,23,24
 327 1262 327 1262 324 1266 c 1,25,26
 323 1258 323 1258 319 1262 c 1,27,28
 316 1256 316 1256 312 1258 c 1,29,30
 311 1253 311 1253 306 1254 c 1,31,32
 303 1245 303 1245 298 1248 c 1,33,34
 295 1241 295 1241 288 1241 c 2,35,-1
 292 1241 l 1,36,-1
 288 1241 l 1,37,38
 286 1232 286 1232 278 1234 c 1,39,40
 277 1225 277 1225 271 1227 c 1,41,-1
 271 1223 l 1,42,-1
 271 1227 l 1,43,-1
 271 1223 l 1,44,-1
 264 1219 l 1,45,-1
 267 1219 l 1,46,-1
 264 1219 l 1,47,48
 262 1214 262 1214 258 1214 c 0,49,50
 255 1205 255 1205 250 1206 c 1,51,-1
 250 1202 l 1,52,-1
 250 1206 l 1,53,-1
 247 1202 l 1,54,-1
 250 1202 l 1,55,-1
 247 1202 l 1,56,57
 244 1196 244 1196 239 1195 c 1,58,-1
 236 1189 l 1,59,-1
 236 1192 l 1,60,-1
 233 1189 l 1,61,-1
 236 1189 l 1,62,-1
 233 1189 l 1,63,64
 232 1182 232 1182 228 1182 c 2,65,-1
 225 1175 l 1,66,-1
 225 1179 l 1,67,-1
 222 1175 l 1,68,-1
 225 1175 l 1,69,-1
 222 1175 l 1,70,71
 220 1169 220 1169 216 1169 c 0,72,73
 214 1159 214 1159 207 1157 c 1,74,-1
 207 1152 l 1,75,-1
 207 1157 l 1,76,-1
 207 1152 l 1,77,-1
 205 1152 l 1,78,-1
 207 1152 l 1,79,-1
 205 1152 l 1,80,81
 202 1144 202 1144 198 1144 c 0,82,83
 196 1130 196 1130 185 1126 c 1,84,-1
 185 1120 l 1,85,-1
 185 1126 l 1,86,-1
 185 1120 l 1,87,88
 180 1117 180 1117 180 1108 c 1,89,-1
 174 1105 l 1,90,91
 174 1097 174 1097 168 1095 c 1,92,93
 168 1087 168 1087 162 1084 c 1,94,-1
 162 1078 l 1,95,-1
 162 1084 l 1,96,-1
 162 1078 l 1,97,-1
 160 1078 l 1,98,-1
 162 1078 l 1,99,-1
 160 1078 l 1,100,-1
 156 1071 l 1,101,-1
 153 1065 l 1,102,-1
 151 1056 l 1,103,-1
 151 1060 l 1,104,-1
 151 1056 l 2,105,106
 149 1047 149 1047 144 1047 c 1,107,-1
 140 1037 l 1,108,-1
 140 1040 l 1,109,-1
 137 1029 l 1,110,-1
 137 1033 l 1,111,-1
 137 1029 l 2,112,113
 137 1021 137 1021 132 1019 c 2,114,-1
 129 1013 l 1,115,-1
 129 1001 l 2,116,117
 128 1001 128 1001 126.5 997.5 c 128,-1,118
 125 994 125 994 120 988 c 1,119,-1
 120 981 l 1,120,-1
 120 988 l 1,121,-1
 116 975 l 1,122,-1
 116 977 l 1,123,-1
 116 971 l 1,124,-1
 116 975 l 1,125,-1
 116 971 l 1,126,127
 112 967 112 967 113 960 c 0,128,129
 110 956 110 956 110 954 c 2,130,-1
 107 951 l 1,131,-1
 106 939 l 1,132,-1
 106 929 l 1,133,-1
 103 926 l 1,134,135
 104 915 104 915 96 906 c 1,136,-1
 92 883 l 1,137,-1
 90 873 l 1,138,-1
 90 864 l 1,139,-1
 88 842 l 1,140,141
 83 839 83 839 84 836 c 2,142,-1
 84 818 l 1,143,-1
 81 818 l 1,144,-1
 84 818 l 1,145,-1
 81 818 l 1,146,-1
 81 811 l 1,147,-1
 81 818 l 1,148,-1
 81 798 l 1,149,-1
 78 786 l 1,150,-1
 78 593 l 1,151,-1
 81 583 l 1,152,-1
 81 580 l 1,153,-1
 81 583 l 1,154,-1
 81 575 l 1,155,-1
 81 580 l 1,156,-1
 81 573 l 1,157,-1
 81 575 l 1,158,-1
 81 573 l 2,159,160
 83 562 83 562 84 558 c 2,161,-1
 84 542 l 1,162,-1
 88 542 l 1,163,-1
 84 542 l 1,164,-1
 88 542 l 1,165,-1
 88 520 l 1,166,-1
 90 518 l 1,167,-1
 92 506 l 1,168,-1
 90 510 l 1,169,-1
 92 506 l 1,170,-1
 92 493 l 1,171,172
 99 489 99 489 96 483 c 1,173,-1
 99 475 l 1,174,-1
 99 465 l 1,175,-1
 99 468 l 1,176,-1
 99 465 l 1,177,-1
 103 455 l 2,178,179
 106 450 106 450 107 440 c 2,180,-1
 106 445 l 1,181,-1
 107 440 l 1,182,-1
 110 431 l 1,183,-1
 107 434 l 1,184,-1
 110 431 l 1,185,186
 110 421 110 421 113 415 c 2,187,-1
 116 406 l 1,188,-1
 113 410 l 1,189,-1
 116 406 l 1,190,-1
 120 388 l 1,191,192
 126 385 126 385 123 378 c 1,193,194
 129 375 129 375 126 372 c 1,195,-1
 129 369 l 1,196,-1
 129 361 l 1,197,198
 135 359 135 359 135 353 c 2,199,-1
 137 344 l 1,200,-1
 140 333 l 1,201,-1
 140 329 l 1,202,-1
 140 333 l 1,203,-1
 140 329 l 1,204,205
 146 327 146 327 144 323 c 1,206,207
 151 322 151 322 148 316 c 1,208,-1
 151 316 l 1,209,-1
 148 316 l 1,210,-1
 151 316 l 1,211,-1
 151 310 l 1,212,213
 156 307 156 307 153 303 c 1,214,215
 160 300 160 300 156 296 c 1,216,217
 162 294 162 294 160 288 c 0,218,219
 163 285 163 285 162 281 c 1,220,221
 168 278 168 278 171 271 c 2,222,-1
 174 261 l 1,223,-1
 177 261 l 1,224,-1
 174 261 l 1,225,-1
 177 261 l 1,226,-1
 177 254 l 1,227,228
 184 251 184 251 183 244 c 1,229,230
 188 241 188 241 185 236 c 1,231,232
 193 233 193 233 193 226 c 1,233,234
 200 223 200 223 202 215 c 0,235,236
 205 210 205 210 207 209 c 2,237,-1
 209 199 l 1,238,239
 217 196 217 196 219 187 c 2,240,-1
 225 178 l 1,241,-1
 225 180 l 1,242,-1
 225 178 l 1,243,244
 231 176 231 176 231 171 c 2,245,-1
 236 167 l 1,246,-1
 236 160 l 1,247,248
 243 158 243 158 243 152 c 1,249,-1
 247 152 l 1,250,-1
 243 152 l 1,251,-1
 247 150 l 1,252,-1
 247 152 l 1,253,-1
 247 150 l 1,254,255
 251 148 251 148 253 143 c 2,256,-1
 258 139 l 1,257,-1
 255 139 l 1,258,-1
 258 135 l 1,259,-1
 258 139 l 1,260,-1
 258 135 l 1,261,262
 264 134 264 134 264 129 c 1,263,-1
 271 125 l 1,264,-1
 267 125 l 1,265,-1
 271 122 l 1,266,-1
 271 125 l 1,267,-1
 271 122 l 1,268,269
 277 121 277 121 277 115 c 1,270,271
 284 112 284 112 284 105 c 1,272,273
 293 105 293 105 295 98 c 1,274,-1
 303 95 l 1,275,276
 306 87 306 87 309 87 c 0,277,278
 312 81 312 81 319 81 c 1,279,-1
 319 77 l 1,280,-1
 319 81 l 1,281,-1
 319 77 l 1,282,283
 324 74 324 74 324 70 c 2,284,-1
 330 66 l 1,285,-1
 335 66 l 1,286,-1
 330 66 l 1,287,-1
 335 66 l 1,288,289
 340 60 340 60 341 60 c 2,290,-1
 348 56 l 2,291,292
 349 51 349 51 354 53 c 1,293,294
 357 48 357 48 360 50 c 0,295,296
 363 46 363 46 366 46 c 0,297,298
 369 42 369 42 372 42 c 2,299,-1
 375 38 l 1,300,-1
 381 35 l 1,301,-1
 379 35 l 1,302,-1
 381 35 l 2,303,304
 388 34 388 34 390 29 c 2,305,-1
 396 25 l 1,306,-1
 405 25 l 1,307,308
 406 21 406 21 411 22 c 1,309,-1
 414 17 l 1,310,-1
 424 17 l 1,311,312
 428 12 428 12 433 14 c 1,313,-1
 433 12 l 1,314,-1
 433 14 l 1,315,-1
 436 12 l 1,316,-1
 433 12 l 1,317,-1
 439 12 l 1,318,-1
 436 12 l 1,319,-1
 439 12 l 1,320,321
 442 4 442 4 447 8 c 1,322,-1
 453 8 l 1,323,324
 458 1 458 1 462 4 c 1,325,-1
 470 1 l 1,326,-1
 478 1 l 1,327,-1
 484 1 l 1,328,-1
 495 1 l 1,329,-1
 507 1 l 1,330,-1
 515 1 l 1,331,-1
 529 1 l 1,332,-1
 535 1 l 1,333,-1
 542 1 l 1,334,-1
 550 1 l 1,335,-1
 564 1 l 1,336,-1
 571 1 l 1,337,-1
 582 1 l 1,338,339
 585 8 585 8 587 4 c 1,340,-1
 597 4 l 1,341,-1
 601 8 l 1,342,-1
 606 8 l 1,343,-1
 612 8 l 1,344,-1
 612 12 l 1,345,-1
 612 8 l 1,346,-1
 612 12 l 1,347,-1
 617 12 l 1,348,349
 621 17 621 17 628 14 c 1,350,351
 629 21 629 21 632 17 c 1,352,-1
 642 22 l 1,353,-1
 652 25 l 1,354,355
 653 33 653 33 657 29 c 1,356,357
 660 35 660 35 664 33 c 1,358,-1
 664 35 l 1,359,-1
 664 33 l 1,360,-1
 664 35 l 1,361,-1
 669 35 l 1,362,363
 671 42 671 42 676 38 c 1,364,365
 678 46 678 46 681 42 c 1,366,367
 682 48 682 48 687 46 c 1,368,369
 690 51 690 51 694 50 c 1,370,371
 696 59 696 59 702 56 c 1,372,373
 704 63 704 63 712 63 c 2,374,-1
 709 63 l 1,375,-1
 712 63 l 1,376,377
 714 72 714 72 722 70 c 1,378,379
 723 79 723 79 729 77 c 1,380,-1
 729 81 l 1,381,-1
 729 77 l 1,382,-1
 729 81 l 1,383,-1
 735 85 l 1,384,-1
 732 85 l 1,385,-1
 735 85 l 1,386,387
 736 90 736 90 743 90 c 1,388,389
 744 99 744 99 750 98 c 1,390,-1
 750 102 l 1,391,-1
 750 98 l 1,392,-1
 754 102 l 1,393,-1
 750 102 l 1,394,-1
 754 102 l 1,395,396
 755 108 755 108 759 109 c 2,397,-1
 762 115 l 1,398,-1
 762 112 l 1,399,-1
 766 115 l 1,400,-1
 762 115 l 1,401,-1
 766 115 l 1,402,403
 769 122 769 122 770 122 c 2,404,-1
 775 129 l 1,405,-1
 775 125 l 1,406,-1
 778 129 l 1,407,-1
 775 129 l 1,408,-1
 778 129 l 1,409,410
 780 135 780 135 783 135 c 0,411,412
 786 145 786 145 792 147 c 1,413,-1
 792 152 l 1,414,-1
 792 147 l 1,415,-1
 792 152 l 1,416,-1
 802 160 l 1,417,418
 802 171 802 171 811 174 c 1,419,420
 812 186 812 186 818 187 c 1,421,422
 818 197 818 197 826 199 c 1,423,424
 825 207 825 207 832 209 c 1,425,426
 832 217 832 217 838 220 c 1,427,-1
 840 226 l 1,428,-1
 840 233 l 1,429,-1
 840 226 l 1,430,-1
 840 233 l 1,431,-1
 847 236 l 1,432,-1
 847 244 l 1,433,-1
 847 236 l 1,434,-1
 847 244 l 2,435,436
 850 246 850 246 848 251 c 1,437,438
 854 252 854 252 852 257 c 1,439,440
 857 259 857 259 856 264 c 1,441,-1
 859 267 l 1,442,-1
 862 275 l 1,443,-1
 862 271 l 1,444,-1
 862 275 l 2,445,446
 863 283 863 283 868 285 c 1,447,-1
 870 291 l 1,448,-1
 870 298 l 1,449,-1
 870 291 l 1,450,-1
 870 298 l 1,451,-1
 873 304 l 1,452,-1
 877 316 l 1,453,-1
 880 323 l 1,454,-1
 884 329 l 1,455,-1
 884 327 l 1,456,-1
 884 333 l 1,457,-1
 884 329 l 1,458,-1
 884 333 l 1,459,460
 888 337 888 337 886 344 c 1,461,462
 890 348 890 348 888 350 c 2,463,-1
 891 353 l 1,464,-1
 891 361 l 1,465,-1
 891 353 l 1,466,-1
 891 365 l 1,467,-1
 891 361 l 1,468,-1
 891 365 l 1,469,470
 896 369 896 369 894 375 c 2,471,-1
 896 382 l 1,472,-1
 896 388 l 1,473,474
 901 391 901 391 901 397 c 1,475,-1
 904 398 l 1,476,477
 904 410 904 410 907 413 c 2,478,-1
 907 421 l 1,479,-1
 907 413 l 1,480,-1
 907 421 l 1,481,-1
 907 431 l 1,482,-1
 907 427 l 1,483,-1
 907 431 l 1,484,485
 912 434 912 434 910 440 c 2,486,-1
 912 447 l 1,487,-1
 912 445 l 1,488,-1
 912 447 l 2,489,490
 910 460 910 460 915 465 c 1,491,-1
 915 471 l 1,492,-1
 915 483 l 1,493,-1
 918 489 l 1,494,-1
 918 506 l 1,495,-1
 918 510 l 1,496,-1
 918 506 l 1,497,-1
 918 510 l 1,498,499
 924 514 924 514 921 520 c 2,500,-1
 921 531 l 1,501,-1
 921 542 l 1,502,-1
 921 548 l 1,503,-1
 921 555 l 1,504,-1
 921 567 l 1,505,-1
 921 573 l 1,506,-1
 921 591 l 1,507,-1
 921 596 l 1,508,-1
 921 610 l 1,509,-1
 921 620 l 1,510,-1
 921 632 l 1,511,-1
 921 638 l 1,512,-1
 921 648 l 1,513,-1
 921 663 l 1,514,-1
 921 669 l 1,515,-1
 921 676 l 1,516,-1
 921 691 l 1,517,-1
 921 697 l 1,518,-1
 921 704 l 1,519,-1
 921 718 l 1,520,-1
 918 718 l 1,521,-1
 921 718 l 1,522,-1
 918 718 l 1,523,-1
 918 724 l 1,524,-1
 918 742 l 1,525,-1
 915 746 l 1,526,-1
 915 753 l 1,527,-1
 912 762 l 1,528,-1
 915 759 l 1,529,-1
 912 766 l 1,530,-1
 912 762 l 1,531,-1
 912 766 l 2,532,533
 915 775 915 775 910 784 c 1,534,-1
 910 786 l 1,535,-1
 910 784 l 1,536,-1
 910 786 l 1,537,-1
 910 798 l 1,538,-1
 910 794 l 1,539,-1
 910 798 l 1,540,541
 904 802 904 802 907 811 c 1,542,543
 901 812 901 812 904 818 c 2,544,-1
 904 829 l 1,545,546
 898 831 898 831 901 836 c 1,547,-1
 896 846 l 1,548,-1
 896 854 l 1,549,550
 891 857 891 857 894 864 c 1,551,552
 888 865 888 865 891 870 c 1,553,-1
 888 881 l 1,554,-1
 888 889 l 1,555,556
 884 891 884 891 886 898 c 1,557,558
 880 902 880 902 884 906 c 1,559,-1
 880 916 l 1,560,561
 873 919 873 919 877 926 c 1,562,-1
 873 926 l 1,563,-1
 877 926 l 1,564,-1
 873 926 l 1,565,-1
 873 932 l 1,566,567
 867 935 867 935 870 943 c 1,568,-1
 868 943 l 1,569,-1
 870 943 l 1,570,-1
 868 943 l 1,571,-1
 868 951 l 1,572,-1
 863 951 l 1,573,-1
 868 951 l 1,574,-1
 863 951 l 1,575,-1
 863 956 l 1,576,577
 859 960 859 960 862 967 c 1,578,579
 856 969 856 969 856 975 c 2,580,-1
 852 981 l 1,581,-1
 852 988 l 2,582,583
 850 990 850 990 847 994 c 2,584,-1
 848 991 l 1,585,-1
 847 1000 l 1,586,-1
 847 994 l 1,587,-1
 847 1000 l 2,588,589
 844 1003 844 1003 840 1013 c 2,590,-1
 838 1023 l 1,591,-1
 832 1026 l 1,592,-1
 829 1037 l 1,593,594
 823 1039 823 1039 826 1043 c 1,595,596
 820 1047 820 1047 823 1050 c 1,597,598
 815 1053 815 1053 816 1060 c 1,599,600
 811 1063 811 1063 814 1068 c 1,601,602
 806 1071 806 1071 807 1078 c 1,603,-1
 804 1078 l 1,604,-1
 807 1078 l 1,605,-1
 804 1078 l 1,606,607
 802 1084 802 1084 799 1084 c 2,608,-1
 794 1095 l 1,609,-1
 792 1095 l 1,610,-1
 794 1095 l 1,611,-1
 789 1100 l 1,612,-1
 789 1105 l 1,613,614
 781 1108 781 1108 783 1117 c 1,615,-1
 781 1120 l 1,616,617
 775 1121 775 1121 775 1126 c 1,618,-1
 770 1126 l 1,619,-1
 775 1126 l 1,620,-1
 770 1126 l 1,621,622
 769 1133 769 1133 766 1133 c 2,623,-1
 762 1144 l 1,624,625
 755 1146 755 1146 754 1154 c 1,626,627
 747 1156 747 1156 746 1161 c 0,628,629
 739 1165 739 1165 738 1170 c 0,630,631
 729 1179 729 1179 726 1186 c 2,632,-1
 726 1182 l 1,633,-1
 723 1186 l 1,634,-1
 726 1186 l 1,635,-1
 723 1186 l 1,636,637
 722 1192 722 1192 719 1192 c 2,638,-1
 714 1199 l 1,639,-1
 709 1199 l 1,640,-1
 714 1199 l 1,641,-1
 709 1199 l 1,642,-1
 702 1209 l 1,643,644
 690 1212 690 1212 687 1223 c 1,645,646
 677 1225 677 1225 676 1234 c 1,647,-1
 664 1238 l 1,648,-1
 667 1238 l 1,649,-1
 664 1238 l 1,650,651
 660 1244 660 1244 655 1244 c 1,652,-1
 652 1251 l 1,653,-1
 645 1251 l 1,654,-1
 652 1251 l 1,655,-1
 645 1251 l 1,656,657
 644 1256 644 1256 639 1254 c 1,658,-1
 636 1258 l 1,659,-1
 630 1262 l 1,660,-1
 632 1262 l 1,661,-1
 630 1262 l 2,662,663
 623 1264 623 1264 621 1269 c 2,664,-1
 616 1271 l 1,665,-1
 610 1271 l 1,666,-1
 616 1271 l 1,667,-1
 610 1271 l 1,668,-1
 610 1275 l 1,669,-1
 610 1271 l 1,670,-1
 610 1275 l 1,671,-1
 604 1279 l 1,672,-1
 597 1279 l 1,673,-1
 604 1279 l 1,674,-1
 595 1282 l 1,675,-1
 585 1287 l 1,676,677
 576 1285 576 1285 574 1290 c 1,678,679
 564 1288 564 1288 560 1296 c 1,680,-1
 556 1296 l 1,681,-1
 560 1296 l 1,682,-1
 556 1296 l 1,683,-1
 550 1296 l 1,684,-1
 542 1300 l 1,685,-1
 547 1300 l 1,686,-1
 542 1300 l 2,687,688
 533 1298 533 1298 529 1303 c 1,689,-1
 518 1303 l 1,690,-1
 510 1303 l 1,691,-1
 504 1303 l 1,692,-1
 492 1303 l 1,693,-1
 484 1303 l 1,694,-1
 470 1303 l 1,695,-1
 466 1303 l 1,696,-1
 456 1303 l 1,697,-1
 450 1303 l 1,698,-1
 436 1303 l 1,699,-1
 429 1303 l 1,700,-1
 417 1303 l 1,701,0
 416 1296 416 1296 411 1300 c 1,1,-1
475 1117 m 1,702,-1
 482 1114 l 1,703,-1
 491 1114 l 1,704,-1
 487 1114 l 1,705,-1
 491 1114 l 2,706,707
 500 1115 500 1115 505 1110 c 2,708,-1
 513 1106 l 1,709,-1
 523 1106 l 1,710,-1
 526 1104 l 2,711,712
 533 1104 533 1104 537 1097 c 1,713,-1
 543 1097 l 1,714,-1
 537 1097 l 1,715,-1
 543 1097 l 1,716,717
 546 1092 546 1092 550 1094 c 1,718,719
 554 1088 554 1088 556 1085 c 2,720,-1
 560 1082 l 2,721,722
 563 1078 563 1078 567 1079 c 1,723,-1
 567 1077 l 1,724,-1
 567 1079 l 1,725,-1
 567 1077 l 1,726,-1
 574 1073 l 1,727,-1
 576 1066 l 1,728,-1
 576 1069 l 1,729,-1
 576 1066 l 1,730,-1
 585 1062 l 1,731,-1
 587 1055 l 1,732,733
 593 1053 593 1053 595 1050 c 0,734,735
 602 1047 602 1047 603 1039 c 1,736,737
 610 1037 610 1037 609 1029 c 1,738,-1
 611 1029 l 1,739,-1
 609 1029 l 1,740,-1
 611 1029 l 1,741,742
 615 1023 615 1023 616 1021 c 0,743,744
 620 1016 620 1016 624 1007 c 0,745,746
 628 1005 628 1005 627 1000 c 1,747,748
 633 1000 633 1000 631 991 c 0,749,750
 634 989 634 989 636.5 986 c 128,-1,751
 639 983 639 983 643 978 c 1,752,-1
 643 970 l 1,753,-1
 648 970 l 1,754,-1
 643 970 l 1,755,-1
 648 967 l 1,756,-1
 648 970 l 1,757,-1
 648 964 l 1,758,-1
 648 967 l 1,759,-1
 648 964 l 1,760,761
 652 960 652 960 653 957 c 2,762,-1
 656 946 l 1,763,764
 662 944 662 944 659 939 c 1,765,766
 665 935 665 935 662 933 c 2,767,-1
 665 930 l 1,768,-1
 662 933 l 1,769,-1
 665 927 l 1,770,-1
 665 930 l 1,771,-1
 665 922 l 1,772,-1
 665 927 l 1,773,-1
 665 922 l 1,774,775
 671 920 671 920 671 914 c 2,776,-1
 671 915 l 2,777,778
 673 907 673 907 674 898 c 2,779,-1
 674 902 l 1,780,-1
 674 898 l 1,781,782
 679 896 679 896 679 891 c 2,783,-1
 679 882 l 1,784,-1
 682 882 l 1,785,-1
 679 882 l 1,786,-1
 682 882 l 1,787,-1
 682 874 l 1,788,-1
 685 874 l 1,789,-1
 682 874 l 1,790,-1
 685 874 l 1,791,-1
 685 865 l 1,792,-1
 685 867 l 1,793,-1
 685 865 l 1,794,795
 692 860 692 860 688 851 c 1,796,797
 695 847 695 847 692 841 c 1,798,799
 697 837 697 837 695 834 c 2,800,-1
 699 827 l 1,801,-1
 699 817 l 1,802,-1
 700 814 l 1,803,-1
 703 803 l 1,804,-1
 700 807 l 1,805,-1
 703 799 l 1,806,-1
 703 803 l 1,807,-1
 703 790 l 1,808,-1
 703 793 l 1,809,-1
 703 790 l 1,810,811
 709 784 709 784 706 775 c 2,812,-1
 706 771 l 1,813,-1
 706 775 l 1,814,-1
 706 771 l 1,815,816
 712 768 712 768 709 759 c 1,817,-1
 712 755 l 1,818,-1
 709 759 l 1,819,-1
 712 755 l 1,820,-1
 712 738 l 1,821,-1
 717 734 l 1,822,-1
 712 738 l 1,823,-1
 717 734 l 1,824,-1
 717 710 l 1,825,826
 721 709 721 709 720 704 c 2,827,-1
 720 676 l 1,828,-1
 721 676 l 1,829,-1
 720 676 l 1,830,-1
 721 676 l 1,831,-1
 721 550 l 2,832,833
 721 545 721 545 720 533 c 2,834,-1
 720 539 l 1,835,-1
 720 509 l 1,836,-1
 717 502 l 1,837,-1
 717 485 l 1,838,-1
 712 479 l 1,839,-1
 712 481 l 1,840,-1
 712 475 l 1,841,-1
 712 479 l 1,842,-1
 712 475 l 2,843,844
 713 464 713 464 709 459 c 2,845,-1
 706 448 l 1,846,-1
 706 430 l 1,847,-1
 703 427 l 1,848,849
 703 417 703 417 700 412 c 2,850,-1
 700 408 l 2,851,852
 697 403 697 403 697 399.5 c 128,-1,853
 697 396 697 396 695 387 c 2,854,-1
 695 393 l 2,855,856
 694 383 694 383 692 372 c 0,857,858
 688 371 688 371 688 365 c 0,859,860
 685 362 685 362 685 359 c 2,861,-1
 682 356 l 1,862,863
 682 346 682 346 679 343 c 2,864,-1
 676 335 l 1,865,-1
 676 338 l 1,866,-1
 676 335 l 2,867,868
 676 326 676 326 671 326 c 1,869,870
 670 321 670 321 667 311 c 2,871,-1
 667 319 l 1,872,-1
 667 311 l 1,873,-1
 665 311 l 1,874,-1
 667 311 l 1,875,-1
 665 311 l 1,876,877
 662 301 662 301 659 291 c 2,878,-1
 659 297 l 1,879,-1
 659 291 l 1,880,-1
 651 281 l 1,881,882
 648 269 648 269 641 267 c 1,883,884
 641 257 641 257 631 252 c 1,885,-1
 629 249 l 1,886,887
 628 238 628 238 620 236 c 0,888,889
 620 232 620 232 615 228 c 1,890,-1
 616 228 l 1,891,-1
 615 225 l 1,892,-1
 615 228 l 1,893,-1
 611 225 l 1,894,-1
 615 225 l 1,895,-1
 611 222 l 1,896,-1
 611 225 l 1,897,-1
 611 222 l 1,898,899
 607 220 607 220 606 215 c 1,900,-1
 600 215 l 1,901,902
 598 207 598 207 592 209 c 1,903,904
 588 201 588 201 582 201 c 1,905,906
 579 194 579 194 574 195 c 1,907,908
 571 188 571 188 567 191 c 1,909,910
 563 185 563 185 558 188 c 1,911,-1
 556 185 l 1,912,-1
 550 180 l 1,913,-1
 537 180 l 1,914,915
 535 175 535 175 532 177 c 2,916,-1
 523 177 l 1,917,-1
 511 177 l 1,918,-1
 505 177 l 1,919,-1
 500 177 l 1,920,-1
 487 177 l 1,921,922
 486 183 486 183 482 180 c 1,923,-1
 475 185 l 1,924,-1
 467 185 l 1,925,-1
 463 188 l 2,926,927
 456 190 456 190 454 195 c 1,928,929
 444 195 444 195 443 201 c 1,930,931
 436 201 436 201 434 209 c 1,932,-1
 429 212 l 1,933,-1
 422 212 l 1,934,-1
 429 212 l 1,935,-1
 422 212 l 1,936,-1
 422 215 l 1,937,-1
 422 212 l 1,938,-1
 422 215 l 1,939,940
 418 217 418 217 416 222 c 0,941,942
 415 222 415 222 410 228 c 1,943,944
 400 231 400 231 398 240 c 1,945,946
 390 241 390 241 389 249 c 1,947,-1
 383 252 l 1,948,-1
 387 252 l 1,949,-1
 383 252 l 1,950,-1
 383 260 l 1,951,952
 373 264 373 264 371 277 c 1,953,954
 362 282 362 282 362 291 c 1,955,-1
 360 291 l 1,956,-1
 362 291 l 1,957,-1
 357 295 l 1,958,-1
 357 301 l 1,959,960
 349 302 349 302 351 311 c 1,961,962
 346 313 346 313 348 319 c 1,963,964
 340 321 340 321 343 328 c 1,965,966
 337 329 337 329 338 335 c 1,967,968
 334 338 334 338 336 343 c 1,969,970
 330 345 330 345 333 348 c 1,971,972
 327 351 327 351 330 356 c 1,973,974
 325 358 325 358 327 362 c 1,975,-1
 324 365 l 1,976,-1
 323 375 l 1,977,-1
 320 375 l 1,978,-1
 323 375 l 1,979,-1
 320 375 l 1,980,-1
 320 383 l 1,981,982
 312 387 312 387 316 393 c 1,983,-1
 312 396 l 1,984,-1
 312 403 l 1,985,-1
 309 403 l 1,986,-1
 312 403 l 1,987,-1
 309 403 l 1,988,-1
 306 411 l 1,989,-1
 306 417 l 2,990,991
 304 422 304 422 304 430 c 1,992,993
 298 433 298 433 301 436 c 1,994,-1
 298 442 l 1,995,-1
 301 436 l 1,996,-1
 298 442 l 1,997,-1
 298 448 l 1,998,999
 294 452 294 452 295 461 c 1,1000,-1
 291 464 l 1,1001,-1
 288 475 l 1,1002,-1
 291 472 l 1,1003,-1
 288 479 l 1,1004,-1
 288 475 l 1,1005,-1
 288 479 l 1,1006,-1
 288 488 l 1,1007,-1
 288 485 l 1,1008,-1
 288 488 l 1,1009,1010
 282 494 282 494 285 502 c 1,1011,-1
 282 506 l 1,1012,-1
 282 515 l 1,1013,-1
 282 512 l 1,1014,-1
 280 519 l 1,1015,-1
 282 515 l 1,1016,-1
 280 519 l 1,1017,-1
 280 536 l 1,1018,-1
 277 536 l 1,1019,-1
 280 536 l 1,1020,-1
 277 536 l 1,1021,-1
 277 543 l 1,1022,-1
 277 558 l 1,1023,1024
 272 559 272 559 275 563 c 2,1025,-1
 275 571 l 1,1026,-1
 275 579 l 1,1027,-1
 271 587 l 1,1028,-1
 271 604 l 2,1029,1030
 271 613 271 613 268 619 c 2,1031,-1
 268 629 l 1,1032,-1
 268 635 l 1,1033,-1
 268 646 l 1,1034,-1
 268 653 l 1,1035,-1
 268 670 l 1,1036,-1
 268 676 l 1,1037,-1
 268 691 l 1,1038,-1
 268 697 l 1,1039,-1
 268 704 l 1,1040,-1
 268 718 l 1,1041,-1
 268 723 l 1,1042,-1
 268 731 l 1,1043,-1
 268 746 l 1,1044,-1
 268 750 l 1,1045,-1
 271 750 l 1,1046,-1
 268 750 l 1,1047,-1
 271 750 l 1,1048,-1
 271 766 l 1,1049,-1
 271 768 l 1,1050,-1
 271 766 l 1,1051,-1
 271 771 l 1,1052,-1
 271 768 l 1,1053,-1
 271 775 l 1,1054,-1
 271 771 l 1,1055,-1
 271 780 l 1,1056,-1
 271 775 l 1,1057,-1
 271 780 l 1,1058,-1
 275 786 l 1,1059,-1
 275 793 l 1,1060,-1
 275 786 l 1,1061,-1
 275 793 l 1,1062,-1
 275 799 l 1,1063,-1
 277 807 l 1,1064,-1
 277 820 l 1,1065,-1
 280 830 l 1,1066,1067
 278 843 278 843 282 847 c 1,1068,-1
 282 854 l 1,1069,-1
 282 861 l 1,1070,1071
 288 865 288 865 285 871 c 1,1072,-1
 288 874 l 1,1073,-1
 291 884 l 2,1074,1075
 291 894 291 894 295 898 c 1,1076,-1
 295 906 l 1,1077,-1
 298 915 l 1,1078,-1
 301 922 l 1,1079,-1
 304 930 l 1,1080,-1
 304 927 l 1,1081,-1
 304 930 l 1,1082,-1
 306 943 l 1,1083,-1
 306 939 l 1,1084,-1
 306 943 l 2,1085,1086
 308 951 308 951 312 954 c 2,1087,-1
 316 960 l 1,1088,-1
 316 967 l 1,1089,-1
 316 960 l 1,1090,-1
 320 970 l 2,1091,1092
 323 981 323 981 327 988 c 1,1093,1094
 327 1000 327 1000 336 1005 c 1,1095,1096
 336 1013 336 1013 343 1015 c 1,1097,1098
 341 1023 341 1023 348 1025 c 1,1099,-1
 348 1031 l 1,1100,-1
 348 1025 l 1,1101,-1
 348 1031 l 1,1102,1103
 354 1039 354 1039 360 1042 c 1,1104,1105
 361 1053 361 1053 369 1055 c 1,1106,1107
 371 1066 371 1066 378 1066 c 1,1108,1109
 383 1078 383 1078 389 1077 c 1,1110,1111
 394 1088 394 1088 401 1085 c 1,1112,-1
 404 1094 l 1,1113,-1
 410 1094 l 1,1114,1115
 413 1099 413 1099 416 1097 c 1,1116,1117
 418 1104 418 1104 422 1101 c 1,1118,-1
 422 1104 l 1,1119,-1
 422 1101 l 1,1120,-1
 422 1104 l 1,1121,-1
 429 1104 l 1,1122,1123
 431 1110 431 1110 441 1106 c 1,1124,-1
 441 1110 l 1,1125,-1
 441 1106 l 1,1126,-1
 441 1110 l 1,1127,-1
 449 1114 l 1,1128,-1
 446 1110 l 1,1129,-1
 449 1114 l 1,1130,-1
 454 1114 l 1,1131,-1
 470 1114 l 1,1132,-1
 475 1117 l 1,702,-1
EndSplineSet
EndChar

StartChar: one
Encoding: 49 49 18
Width: 705
Flags: W
LayerCount: 2
Fore
SplineSet
184 1115 m 2,0,1
 162 1079 162 1079 183 1041 c 2,2,-1
 399 677 l 1,3,4
 -60 425 -60 425 169 -2 c 1,5,6
 692 41 692 41 600 677 c 1,7,-1
 365 1041 l 1,8,9
 330 1067 330 1067 361 1107 c 1,10,11
 452 1300 452 1300 452 1303 c 2,12,-1
 281 1303 l 1,13,-1
 184 1115 l 2,0,1
443 501 m 1,14,15
 452 233 452 233 267 194 c 1,16,17
 208 360 208 360 443 501 c 1,14,15
EndSplineSet
EndChar

StartChar: two
Encoding: 50 50 19
Width: 1211
Flags: W
LayerCount: 2
Fore
SplineSet
180 939 m 1,0,-1
 182 939 l 1,1,-1
 309 639 l 1,2,3
 -44 436 -44 436 167 1 c 1,4,5
 648 145 648 145 478 636 c 1,6,-1
 384 895 l 1,7,-1
 602 1086 l 1,8,-1
 817 895 l 1,9,-1
 718 639 l 1,10,11
 561 143 561 143 1038 -2 c 1,12,13
 1248 433 1248 433 899 638 c 1,14,-1
 1020 939 l 1,15,-1
 601 1322 l 1,16,-1
 180 939 l 1,0,-1
857 502 m 1,17,18
 1017 327 1017 327 955 186 c 1,19,20
 775 344 775 344 857 502 c 1,17,18
243 189 m 1,22,23
 185 332 185 332 351 494 c 1,24,21
 421 345 421 345 243 189 c 1,22,23
EndSplineSet
EndChar

StartChar: three
Encoding: 51 51 20
Width: 1308
Flags: W
LayerCount: 2
Fore
SplineSet
297 1242 m 1,1,2
 204 1365 204 1365 65 1262 c 1,3,-1
 65 1064 l 1,4,-1
 67 1064 l 1,5,6
 122 1127 122 1127 159 1082 c 1,7,-1
 161 -7 l 1,8,-1
 322 -8 l 1,9,-1
 322 1063 l 1,10,11
 431 1183 431 1183 528 1063 c 1,12,-1
 527 -7 l 1,13,-1
 707 -8 l 1,14,-1
 706 1073 l 1,15,16
 821 1187 821 1187 910 1073 c 1,17,-1
 911 188 l 2,18,19
 913 14 913 14 1078 1 c 1,20,21
 1186 -13 1186 -13 1258 55 c 1,22,-1
 1195 186 l 1,23,24
 1098 115 1098 115 1082 204 c 1,25,-1
 1081 1063 l 1,26,27
 1094 1157 1094 1157 1038.5 1233 c 128,-1,28
 983 1309 983 1309 845 1313 c 128,-1,29
 707 1317 707 1317 617 1225 c 1,30,0
 471 1378 471 1378 297 1242 c 1,1,2
EndSplineSet
EndChar

StartChar: four
Encoding: 52 52 21
Width: 1202
Flags: W
LayerCount: 2
Fore
SplineSet
508 1227 m 1,1,2
 289 1055 289 1055 126 766 c 1,3,4
 10 479 10 479 277 437 c 1,5,-1
 666 423 l 1,6,-1
 667 -17 l 1,7,-1
 843 -17 l 1,8,-1
 843 -9 l 1,9,-1
 848 426 l 1,10,-1
 1107 426 l 1,11,-1
 1107 597 l 1,12,-1
 843 600 l 1,13,-1
 853 1183 l 1,14,-1
 850 1183 l 1,15,0
 767 1419 767 1419 508 1227 c 1,1,2
671 598 m 1,16,-1
 337 599 l 1,17,18
 224 640 224 640 324 775 c 2,19,-1
 451 945 l 1,20,-1
 568 1058 l 2,21,22
 691 1182 691 1182 685 1024 c 2,23,-1
 671 598 l 1,16,-1
EndSplineSet
EndChar

StartChar: five
Encoding: 53 53 22
Width: 1315
Flags: W
LayerCount: 2
Fore
SplineSet
88 1200 m 1,0,-1
 89 1025 l 1,1,2
 452 1249 452 1249 746 991 c 1,3,-1
 398 396 l 1,4,5
 236 445 236 445 144 357.5 c 128,-1,6
 52 270 52 270 94 108 c 1,7,8
 164 -15 164 -15 290 -5 c 128,-1,9
 416 5 416 5 467 131 c 1,10,11
 843 -102 843 -102 1193 109 c 1,12,-1
 1192 289 l 1,13,14
 850 77 850 77 540 288 c 1,15,-1
 899 926 l 1,16,17
 1064 872 1064 872 1156.5 968 c 128,-1,18
 1249 1064 1249 1064 1194 1212 c 1,19,20
 1144 1315 1144 1315 1014 1307.5 c 128,-1,21
 884 1300 884 1300 826 1152 c 1,22,23
 492 1421 492 1421 88 1200 c 1,0,-1
1061 1099.5 m 128,-1,25
 1044 1054 1044 1054 958 1070 c 1,26,27
 994 1164 994 1164 1036 1154.5 c 128,-1,24
 1078 1145 1078 1145 1061 1099.5 c 128,-1,25
344 231 m 1,29,30
 300 143 300 143 259 158 c 128,-1,31
 218 173 218 173 239 218.5 c 128,-1,28
 260 264 260 264 344 231 c 1,29,30
EndSplineSet
EndChar

StartChar: six
Encoding: 54 54 23
Width: 1407
Flags: W
LayerCount: 2
Fore
SplineSet
1013 1122 m 1,0,-1
 1010 1122 l 1,1,-1
 979 432 l 1,2,-1
 761 1308 l 1,3,-1
 645 1308 l 1,4,-1
 427 440 l 1,5,-1
 398 1117 l 1,6,-1
 389 1200 l 1,7,8
 314 1364 314 1364 74 1268 c 1,9,-1
 73 1110 l 1,10,11
 166 1173 166 1173 218 1120 c 1,12,-1
 279 2 l 1,13,-1
 500 2 l 1,14,-1
 704 869 l 1,15,-1
 899 2 l 1,16,-1
 1131 2 l 1,17,-1
 1196 1118 l 1,18,19
 1267 1162 1267 1162 1333 1114 c 1,20,-1
 1334 1273 l 1,21,22
 1098 1360 1098 1360 1021 1198 c 1,23,-1
 1013 1122 l 1,0,-1
EndSplineSet
EndChar

StartChar: seven
Encoding: 55 55 24
Width: 1405
Flags: W
LayerCount: 2
Fore
SplineSet
1107 531 m 128,-1,1
 1036 209 1036 209 669 212 c 1,2,3
 316 254 316 254 268 602 c 1,4,5
 438 578 438 578 546 649 c 128,-1,6
 654 720 654 720 674.5 865 c 128,-1,7
 695 1010 695 1010 620 1119 c 128,-1,8
 545 1228 545 1228 406 1234.5 c 128,-1,9
 267 1241 267 1241 184 1173 c 128,-1,10
 101 1105 101 1105 90 984 c 1,11,-1
 268 983 l 1,12,13
 305 1056 305 1056 387.5 1043 c 128,-1,14
 470 1030 470 1030 482 949 c 0,15,16
 512 762 512 762 203 790 c 1,17,-1
 79 798 l 1,18,-1
 78 625 l 1,19,20
 97 376 97 376 244.5 205.5 c 128,-1,21
 392 35 392 35 673 2 c 1,22,23
 992 -22 992 -22 1156.5 155 c 128,-1,24
 1321 332 1321 332 1324 634.5 c 128,-1,25
 1327 937 1327 937 1084 1312 c 1,26,-1
 874 1313 l 1,27,0
 1178 853 1178 853 1107 531 c 128,-1,1
EndSplineSet
EndChar

StartChar: eight
Encoding: 56 56 25
Width: 1107
Flags: W
LayerCount: 2
Fore
SplineSet
82 953 m 1,1,-1
 308 953 l 1,2,3
 387 1109 387 1109 564.5 1094 c 128,-1,4
 742 1079 742 1079 782.5 900 c 128,-1,5
 823 721 823 721 692 525 c 128,-1,6
 561 329 561 329 231 0 c 1,7,-1
 508 0 l 1,8,9
 844 334 844 334 955 576.5 c 128,-1,10
 1066 819 1066 819 979 1049 c 128,-1,11
 892 1279 892 1279 596 1299 c 1,12,0
 162 1311 162 1311 82 953 c 1,1,-1
EndSplineSet
EndChar

StartChar: nine
Encoding: 57 57 26
Width: 1107
Flags: W
LayerCount: 2
Fore
SplineSet
850 1192 m 1,0,1
 627 1359 627 1359 381 1289.5 c 128,-1,2
 135 1220 135 1220 91 1001.5 c 128,-1,3
 47 783 47 783 126.5 629.5 c 128,-1,4
 206 476 206 476 385.5 341 c 128,-1,5
 565 206 565 206 1052 0 c 1,6,-1
 1053 187 l 1,7,8
 667 370 667 370 501 488 c 128,-1,9
 335 606 335 606 288.5 745.5 c 128,-1,10
 242 885 242 885 314.5 993.5 c 128,-1,11
 387 1102 387 1102 506.5 1110 c 128,-1,12
 626 1118 626 1118 727.5 1052.5 c 128,-1,13
 829 987 829 987 862 867 c 1,14,-1
 1053 803 l 1,15,-1
 1053 1304 l 1,16,-1
 849 1304 l 1,17,-1
 850 1192 l 1,0,1
EndSplineSet
EndChar

StartChar: colon
Encoding: 58 58 27
Width: 569
Flags: W
LayerCount: 2
Fore
SplineSet
185 967.5 m 128,-1,1
 185 1078 185 1078 295.5 1078 c 128,-1,2
 406 1078 406 1078 406 967.5 c 128,-1,3
 406 857 406 857 295.5 857 c 128,-1,0
 185 857 185 857 185 967.5 c 128,-1,1
185 108.5 m 128,-1,5
 185 217 185 217 293.5 217 c 128,-1,6
 402 217 402 217 402 108.5 c 128,-1,7
 402 0 402 0 293.5 0 c 128,-1,4
 185 0 185 0 185 108.5 c 128,-1,5
EndSplineSet
EndChar

StartChar: semicolon
Encoding: 59 59 28
AltUni2: 00037e.ffffffff.0
Width: 569
Flags: W
LayerCount: 2
Fore
SplineSet
182 970.5 m 128,-1,1
 182 1084 182 1084 295.5 1084 c 128,-1,2
 409 1084 409 1084 409 970.5 c 128,-1,3
 409 857 409 857 295.5 857 c 128,-1,0
 182 857 182 857 182 970.5 c 128,-1,1
178 136 m 128,-1,5
 183 237 183 237 269 247 c 128,-1,6
 355 257 355 257 402.5 206.5 c 128,-1,7
 450 156 450 156 452.5 90.5 c 128,-1,8
 455 25 455 25 430 -41.5 c 128,-1,9
 405 -108 405 -108 362 -178.5 c 128,-1,10
 319 -249 319 -249 224 -300 c 1,11,-1
 170 -216 l 1,12,13
 232 -189 232 -189 261 -136.5 c 128,-1,14
 290 -84 290 -84 294 15 c 1,15,4
 173 35 173 35 178 136 c 128,-1,5
EndSplineSet
EndChar

StartChar: less
Encoding: 60 60 29
Width: 194
Flags: W
LayerCount: 2
Fore
SplineSet
-835 1534 m 1,0,1
 -694 1566 -694 1566 -582 1569 c 1,2,3
 -235 1533 -235 1533 -228 1296 c 1,4,5
 -229 1146 -229 1146 -367 1085.5 c 128,-1,6
 -505 1025 -505 1025 -664 1100 c 1,7,8
 -507 1130 -507 1130 -498 1245 c 1,9,10
 -477 1417 -477 1417 -676 1467 c 1,11,12
 -909 1466 -909 1466 -919 1270 c 1,13,-1
 -809 1270 l 1,14,15
 -798 1346 -798 1346 -697 1346 c 1,16,17
 -632 1316 -632 1316 -643 1261.5 c 128,-1,18
 -654 1207 -654 1207 -726 1201 c 128,-1,19
 -798 1195 -798 1195 -916 1206 c 1,20,21
 -838 1047 -838 1047 -722 985 c 128,-1,22
 -606 923 -606 923 -445 932.5 c 128,-1,23
 -284 942 -284 942 -177 1045.5 c 128,-1,24
 -70 1149 -70 1149 -84 1319 c 1,25,26
 -88 1489 -88 1489 -234 1599 c 128,-1,27
 -380 1709 -380 1709 -593 1700 c 1,28,29
 -699 1700 -699 1700 -836 1670 c 1,30,-1
 -835 1534 l 1,0,1
EndSplineSet
EndChar

StartChar: equal
Encoding: 61 61 30
Width: 1209
Flags: W
LayerCount: 2
Fore
SplineSet
1082 862 m 1,0,-1
 124 862 l 1,1,-1
 124 1030 l 1,2,-1
 1082 1030 l 1,3,-1
 1082 862 l 1,0,-1
1082 417 m 1,4,-1
 124 417 l 1,5,-1
 124 585 l 1,6,-1
 1082 585 l 1,7,-1
 1082 417 l 1,4,-1
EndSplineSet
EndChar

StartChar: greater
Encoding: 62 62 31
Width: 0
Flags: W
LayerCount: 2
Fore
SplineSet
-1207 1000 m 1,0,1
 -955 1086 -955 1086 -892 1229 c 1,2,3
 -800 1086 -800 1086 -590 1001 c 1,4,-1
 -553 1159 l 1,5,6
 -719 1215 -719 1215 -773 1322 c 1,7,8
 -739 1385 -739 1385 -712 1447 c 128,-1,9
 -685 1509 -685 1509 -697.5 1568.5 c 128,-1,10
 -710 1628 -710 1628 -763.5 1670 c 128,-1,11
 -817 1712 -817 1712 -894.5 1711.5 c 128,-1,12
 -972 1711 -972 1711 -1030.5 1673.5 c 128,-1,13
 -1089 1636 -1089 1636 -1101 1573.5 c 128,-1,14
 -1113 1511 -1113 1511 -1084 1447.5 c 128,-1,15
 -1055 1384 -1055 1384 -1011 1322 c 1,16,17
 -1054 1210 -1054 1210 -1235 1147 c 1,18,-1
 -1207 1000 l 1,0,1
-952.5 1470 m 128,-1,20
 -973 1517 -973 1517 -932.5 1548.5 c 128,-1,21
 -892 1580 -892 1580 -859 1546 c 128,-1,22
 -826 1512 -826 1512 -839 1469 c 128,-1,23
 -852 1426 -852 1426 -888 1371 c 1,24,19
 -932 1423 -932 1423 -952.5 1470 c 128,-1,20
EndSplineSet
EndChar

StartChar: question
Encoding: 63 63 32
Width: 1007
Flags: W
LayerCount: 2
Fore
SplineSet
597 311 m 1,0,1
 496 391 496 391 394 311 c 1,2,-1
 393 427 l 2,3,4
 392 620 392 620 555 724 c 1,5,6
 705 829 705 829 704.5 930.5 c 128,-1,7
 704 1032 704 1032 626.5 1086 c 128,-1,8
 549 1140 549 1140 422.5 1105 c 128,-1,9
 296 1070 296 1070 298 894 c 1,10,11
 206 804 206 804 114 893 c 1,12,13
 100 1086 100 1086 212.5 1196.5 c 128,-1,14
 325 1307 325 1307 510 1302 c 128,-1,15
 695 1297 695 1297 798 1201 c 128,-1,16
 901 1105 901 1105 901 975.5 c 128,-1,17
 901 846 901 846 859 774 c 128,-1,18
 817 702 817 702 712 616 c 0,19,20
 607 532 607 532 601.5 477.5 c 128,-1,21
 596 423 596 423 597 311 c 1,0,1
394 0 m 1,22,-1
 394 123 l 2,23,24
 394 246 394 246 496 236 c 1,25,26
 597 246 597 246 597 123 c 2,27,-1
 597 0 l 1,28,29
 496 -50 496 -50 394 0 c 1,22,-1
EndSplineSet
EndChar

StartChar: at
Encoding: 64 64 33
Width: 1311
Flags: W
LayerCount: 2
Fore
SplineSet
726 1699 m 128,-1,1
 760 1636 760 1636 735 1568.5 c 128,-1,2
 710 1501 710 1501 740.5 1490 c 128,-1,3
 771 1479 771 1479 796 1424 c 128,-1,4
 821 1369 821 1369 795 1309.5 c 128,-1,5
 769 1250 769 1250 747.5 1220.5 c 128,-1,6
 726 1191 726 1191 709.5 1154.5 c 128,-1,7
 693 1118 693 1118 706 1085.5 c 128,-1,8
 719 1053 719 1053 710 1018.5 c 128,-1,9
 701 984 701 984 643 964 c 1,10,11
 500 1020 500 1020 403 1002.5 c 128,-1,12
 306 985 306 985 259 916 c 128,-1,13
 212 847 212 847 216 720 c 128,-1,14
 220 593 220 593 275.5 436 c 128,-1,15
 331 279 331 279 424.5 177 c 128,-1,16
 518 75 518 75 602.5 30 c 128,-1,17
 687 -15 687 -15 769.5 34 c 128,-1,18
 852 83 852 83 945 232 c 128,-1,19
 1038 381 1038 381 1062.5 576.5 c 128,-1,20
 1087 772 1087 772 1035 861.5 c 128,-1,21
 983 951 983 951 886.5 935.5 c 128,-1,22
 790 920 790 920 747 804 c 0,23,24
 721 737 721 737 719.5 701.5 c 128,-1,25
 718 666 718 666 756 616.5 c 128,-1,26
 794 567 794 567 767 491 c 128,-1,27
 740 415 740 415 735 381.5 c 128,-1,28
 730 348 730 348 716 318 c 128,-1,29
 702 288 702 288 689.5 259 c 128,-1,30
 677 230 677 230 658 260 c 128,-1,31
 639 290 639 290 629 318 c 128,-1,32
 619 346 619 346 614 381.5 c 128,-1,33
 609 417 609 417 582.5 493.5 c 128,-1,34
 556 570 556 570 609.5 655.5 c 128,-1,35
 663 741 663 741 614 793 c 1,36,37
 526 833 526 833 476 796.5 c 128,-1,38
 426 760 426 760 424.5 678 c 128,-1,39
 423 596 423 596 450.5 497.5 c 128,-1,40
 478 399 478 399 525.5 323 c 128,-1,41
 573 247 573 247 653 163 c 1,42,43
 745 96 745 96 652 82 c 1,44,45
 568 138 568 138 520.5 188 c 128,-1,46
 473 238 473 238 421.5 306.5 c 128,-1,47
 370 375 370 375 338.5 467 c 128,-1,48
 307 559 307 559 299 656 c 128,-1,49
 291 753 291 753 329.5 843 c 128,-1,50
 368 933 368 933 462.5 939 c 128,-1,51
 557 945 557 945 665 888 c 1,52,53
 725 1032 725 1032 842 1083 c 128,-1,54
 959 1134 959 1134 1067.5 1080.5 c 128,-1,55
 1176 1027 1176 1027 1213.5 895 c 128,-1,56
 1251 763 1251 763 1213 557.5 c 128,-1,57
 1175 352 1175 352 1067.5 174 c 128,-1,58
 960 -4 960 -4 823 -79 c 128,-1,59
 686 -154 686 -154 534 -79 c 128,-1,60
 382 -4 382 -4 269.5 157.5 c 128,-1,61
 157 319 157 319 104 513 c 128,-1,62
 51 707 51 707 79 870 c 128,-1,63
 107 1033 107 1033 212 1095 c 128,-1,64
 317 1157 317 1157 431.5 1137.5 c 128,-1,65
 546 1118 546 1118 599.5 1086 c 128,-1,66
 653 1054 653 1054 635.5 1086.5 c 128,-1,67
 618 1119 618 1119 630.5 1152.5 c 128,-1,68
 643 1186 643 1186 607.5 1219.5 c 128,-1,69
 572 1253 572 1253 569 1304 c 128,-1,70
 566 1355 566 1355 602 1422 c 128,-1,71
 638 1489 638 1489 626 1540 c 128,-1,72
 614 1591 614 1591 653 1676.5 c 128,-1,0
 692 1762 692 1762 726 1699 c 128,-1,1
EndSplineSet
EndChar

StartChar: A
Encoding: 65 65 34
Width: 1106
Flags: W
LayerCount: 2
Fore
SplineSet
445 207 m 1,0,-1
 57 206 l 1,1,-1
 57 -2 l 1,2,-1
 684 2 l 1,3,-1
 684 1095 l 1,4,-1
 1056 1095 l 1,5,-1
 1056 1309 l 1,6,-1
 445 1309 l 1,7,-1
 445 207 l 1,0,-1
EndSplineSet
EndChar

StartChar: B
Encoding: 66 66 35
Width: 1508
Flags: W
LayerCount: 2
Fore
SplineSet
76 679 m 1,0,-1
 76 617 l 1,1,-1
 716 -22 l 1,2,-1
 777 -22 l 1,3,-1
 1417 621 l 1,4,-1
 1415 680 l 1,5,-1
 773 1320 l 1,6,-1
 722 1320 l 1,7,-1
 76 679 l 1,0,-1
744 982 m 1,8,-1
 1112 657 l 1,9,-1
 752 298 l 1,10,-1
 390 649 l 1,11,-1
 744 982 l 1,8,-1
EndSplineSet
EndChar

StartChar: C
Encoding: 67 67 36
Width: 1311
Flags: W
LayerCount: 2
Fore
SplineSet
98 644 m 1,0,-1
 962 644 l 1,1,-1
 962 -3 l 1,2,-1
 1198 -3 l 1,3,-1
 1197 1308 l 1,4,-1
 969 1306 l 1,5,-1
 969 872 l 1,6,-1
 328 872 l 1,7,-1
 329 1084 l 1,8,-1
 809 1086 l 1,9,-1
 809 1304 l 1,10,-1
 98 1304 l 1,11,-1
 98 644 l 1,0,-1
EndSplineSet
EndChar

StartChar: D
Encoding: 68 68 37
Width: 913
Flags: W
LayerCount: 2
Fore
SplineSet
519 1015.5 m 128,-1,1
 457 990 457 990 332 968 c 0,2,3
 216 947 216 947 174 917 c 128,-1,4
 132 887 132 887 110.5 841.5 c 128,-1,5
 89 796 89 796 92 681 c 2,6,-1
 119 1 l 1,7,-1
 322 -9 l 1,8,-1
 302 620 l 1,9,10
 284 718 284 718 312 757.5 c 128,-1,11
 340 797 340 797 467 805 c 1,12,13
 624 829 624 829 702 900.5 c 128,-1,14
 780 972 780 972 801 1104 c 1,15,-1
 818 1303 l 1,16,-1
 605 1303 l 1,17,-1
 594 1162 l 2,18,0
 581 1041 581 1041 519 1015.5 c 128,-1,1
EndSplineSet
EndChar

StartChar: E
Encoding: 69 69 38
Width: 1203
Flags: W
LayerCount: 2
Fore
SplineSet
101 1098 m 1,0,-1
 418 -7 l 1,1,-1
 572 -7 l 1,2,-1
 1098 1192 l 1,3,-1
 1099 1311 l 1,4,-1
 100 1311 l 1,5,-1
 101 1098 l 1,0,-1
822 1093 m 1,6,-1
 529 429 l 1,7,-1
 325 1092 l 1,8,-1
 822 1093 l 1,6,-1
EndSplineSet
EndChar

StartChar: F
Encoding: 70 70 39
Width: 1303
Flags: W
LayerCount: 2
Fore
SplineSet
954 1311 m 1,0,-1
 955 897 l 1,1,-1
 536 897 l 1,2,-1
 536 706 l 1,3,-1
 955 706 l 1,4,-1
 952 472 l 1,5,6
 938 212 938 212 646 223 c 1,7,8
 373 211 373 211 347 459 c 1,9,-1
 348 1306 l 1,10,-1
 102 1307 l 1,11,-1
 102 420 l 1,12,13
 112 1 112 1 655 -6 c 1,14,15
 1197 6 1197 6 1205 412 c 1,16,-1
 1204 1311 l 1,17,-1
 954 1311 l 1,0,-1
EndSplineSet
EndChar

StartChar: G
Encoding: 71 71 40
Width: 1205
Flags: W
LayerCount: 2
Fore
SplineSet
97 904 m 1,0,-1
 97 -2 l 1,1,-1
 312 0 l 1,2,-1
 316 748 l 1,3,-1
 826 989 l 1,4,-1
 824 -2 l 1,5,-1
 1068 -2 l 1,6,-1
 1068 1305 l 1,7,-1
 908 1305 l 1,8,-1
 97 904 l 1,0,-1
EndSplineSet
EndChar

StartChar: H
Encoding: 72 72 41
Width: 1610
Flags: W
LayerCount: 2
Fore
SplineSet
138 1084 m 1,0,-1
 351 1084 l 1,1,2
 143 954 143 954 99 762 c 128,-1,3
 55 570 55 570 103 407.5 c 128,-1,4
 151 245 151 245 272 134.5 c 128,-1,5
 393 24 393 24 566.5 4 c 128,-1,6
 740 -16 740 -16 831.5 8.5 c 128,-1,7
 923 33 923 33 1000 77.5 c 128,-1,8
 1077 122 1077 122 1137.5 214 c 128,-1,9
 1198 306 1198 306 1218 413 c 128,-1,10
 1238 520 1238 520 1227 729.5 c 128,-1,11
 1216 939 1216 939 1214 1046.5 c 128,-1,12
 1212 1154 1212 1154 1290.5 1147.5 c 128,-1,13
 1369 1141 1369 1141 1361 977 c 1,14,15
 1571 761 1571 761 1518 1090 c 1,16,17
 1489 1321 1489 1321 1259 1320 c 0,18,19
 1009 1319 1009 1319 1014 1046 c 1,20,21
 1058 482 1058 482 930 352.5 c 128,-1,22
 802 223 802 223 643.5 238 c 128,-1,23
 485 253 485 253 396 358.5 c 128,-1,24
 307 464 307 464 310 622.5 c 128,-1,25
 313 781 313 781 423 895 c 128,-1,26
 533 1009 533 1009 703 1030 c 1,27,28
 893 1020 893 1020 794 1190 c 1,29,-1
 735 1310 l 1,30,-1
 59 1310 l 1,31,-1
 138 1084 l 1,0,-1
EndSplineSet
EndChar

StartChar: I
Encoding: 73 73 42
Width: 1410
Flags: W
LayerCount: 2
Fore
SplineSet
427 810 m 1,0,-1
 89 810 l 1,1,-1
 89 601 l 1,2,-1
 428 601 l 1,3,-1
 428 -2 l 1,4,-1
 649 -2 l 1,5,-1
 649 598 l 1,6,-1
 1302 598 l 1,7,-1
 1298 809 l 1,8,-1
 649 809 l 1,9,-1
 650 1103 l 1,10,-1
 1305 1101 l 1,11,-1
 1305 1311 l 1,12,-1
 428 1311 l 1,13,-1
 427 810 l 1,0,-1
EndSplineSet
EndChar

StartChar: J
Encoding: 74 74 43
Width: 1205
Flags: W
LayerCount: 2
Fore
SplineSet
94 1304 m 1,0,-1
 94 1 l 1,1,-1
 1106 1 l 1,2,-1
 1105 227 l 1,3,-1
 362 228 l 1,4,-1
 362 557 l 1,5,-1
 1104 556 l 1,6,-1
 1106 778 l 1,7,-1
 363 779 l 1,8,-1
 362 1068 l 1,9,-1
 1100 1068 l 1,10,-1
 1101 1305 l 1,11,-1
 94 1304 l 1,0,-1
EndSplineSet
EndChar

StartChar: K
Encoding: 75 75 44
Width: 1398
Flags: W
LayerCount: 2
Fore
SplineSet
90 543 m 1,0,-1
 787 543 l 1,1,-1
 785 201 l 1,2,-1
 94 203 l 1,3,-1
 93 -4 l 1,4,-1
 1063 -3 l 1,5,-1
 1064 548 l 1,6,-1
 1322 546 l 1,7,-1
 1320 762 l 1,8,-1
 1050 762 l 1,9,-1
 1050 1311 l 1,10,-1
 90 1311 l 1,11,-1
 90 543 l 1,0,-1
787 1093 m 1,12,-1
 787 759 l 1,13,-1
 345 759 l 1,14,-1
 346 1092 l 1,15,-1
 787 1093 l 1,12,-1
EndSplineSet
EndChar

StartChar: L
Encoding: 76 76 45
Width: 1398
Flags: W
LayerCount: 2
Fore
SplineSet
294 1118 m 1,0,1
 567 1070 567 1070 685 1023 c 128,-1,2
 803 976 803 976 907 900 c 128,-1,3
 1011 824 1011 824 1057 730 c 128,-1,4
 1103 636 1103 636 1092.5 514 c 128,-1,5
 1082 392 1082 392 1019.5 319 c 128,-1,6
 957 246 957 246 855.5 225 c 128,-1,7
 754 204 754 204 649 243 c 128,-1,8
 544 282 544 282 493.5 403.5 c 128,-1,9
 443 525 443 525 543 712 c 1,10,-1
 650 714 l 1,11,-1
 570 919 l 1,12,-1
 53 919 l 1,13,-1
 107 720 l 1,14,-1
 315 720 l 1,15,16
 218 542 218 542 273 348 c 128,-1,17
 328 154 328 154 512 58.5 c 128,-1,18
 696 -37 696 -37 883.5 -7 c 128,-1,19
 1071 23 1071 23 1179.5 135 c 128,-1,20
 1288 247 1288 247 1318.5 385.5 c 128,-1,21
 1349 524 1349 524 1326.5 638 c 128,-1,22
 1304 752 1304 752 1248.5 847 c 128,-1,23
 1193 942 1193 942 1103.5 1010.5 c 128,-1,24
 1014 1079 1014 1079 912 1126.5 c 128,-1,25
 810 1174 810 1174 697 1211.5 c 128,-1,26
 584 1249 584 1249 294 1309 c 1,27,-1
 294 1118 l 1,0,1
EndSplineSet
EndChar

StartChar: M
Encoding: 77 77 46
Width: 1518
Flags: W
LayerCount: 2
Fore
SplineSet
798 1305 m 1,0,-1
 243 906 l 1,1,2
 129 801 129 801 247 690 c 1,3,-1
 789 298 l 1,4,-1
 789 194 l 1,5,-1
 89 193 l 1,6,-1
 86 -7 l 1,7,-1
 1014 -8 l 1,8,-1
 1014 149 l 1,9,-1
 1204 5 l 1,10,11
 1358 -36 1358 -36 1413 101 c 1,12,-1
 1016 399 l 1,13,-1
 1015 1305 l 1,14,-1
 798 1305 l 1,0,-1
797 1027 m 1,15,-1
 799 555 l 1,16,-1
 466 794 l 1,17,-1
 797 1027 l 1,15,-1
EndSplineSet
EndChar

StartChar: N
Encoding: 78 78 47
Width: 1410
Flags: W
LayerCount: 2
Fore
SplineSet
298 921 m 1,0,-1
 219 1016 l 1,1,-1
 87 902 l 1,2,-1
 362 585 l 1,3,-1
 496 691 l 1,4,-1
 432 778 l 1,5,-1
 773 1038 l 1,6,-1
 773 -2 l 1,7,-1
 972 1 l 1,8,-1
 1319 298 l 1,9,-1
 1268 385 l 1,10,-1
 981 239 l 1,11,-1
 982 1311 l 1,12,-1
 797 1311 l 1,13,-1
 298 921 l 1,0,-1
EndSplineSet
EndChar

StartChar: O
Encoding: 79 79 48
Width: 1402
Flags: W
LayerCount: 2
Fore
SplineSet
92 968 m 1,0,-1
 176 968 l 1,1,2
 260 998 260 998 282 1101 c 1,3,-1
 974 1101 l 1,4,-1
 92 188 l 1,5,-1
 92 3 l 1,6,-1
 1300 3 l 1,7,-1
 1300 351 l 1,8,-1
 1215 351 l 1,9,10
 1108 318 1108 318 1086 208 c 1,11,-1
 438 208 l 1,12,-1
 1303 1115 l 1,13,-1
 1303 1311 l 1,14,-1
 92 1311 l 1,15,-1
 92 968 l 1,0,-1
EndSplineSet
EndChar

StartChar: P
Encoding: 80 80 49
Width: 1605
Flags: W
LayerCount: 2
Fore
SplineSet
99 1100 m 1,0,-1
 291 1100 l 1,1,-1
 291 492 l 1,2,3
 255 -12 255 -12 799 -11 c 0,4,5
 1349 -9 1349 -9 1316 503 c 1,6,-1
 1316 1097 l 1,7,-1
 1510 1097 l 1,8,-1
 1510 1309 l 1,9,-1
 1080 1307 l 1,10,-1
 1079 523 l 1,11,12
 1097 226 1097 226 804 226 c 0,13,14
 506 228 506 228 522 535 c 1,15,-1
 522 1309 l 1,16,-1
 99 1309 l 1,17,-1
 99 1100 l 1,0,-1
EndSplineSet
EndChar

StartChar: Q
Encoding: 81 81 50
Width: 1407
Flags: W
LayerCount: 2
Fore
SplineSet
377 807 m 1,0,-1
 88 807 l 1,1,-1
 88 588 l 1,2,-1
 374 588 l 1,3,-1
 377 -1 l 1,4,-1
 1300 -1 l 1,5,-1
 1300 207 l 1,6,-1
 610 207 l 1,7,-1
 609 590 l 1,8,-1
 1300 588 l 1,9,-1
 1300 807 l 1,10,-1
 610 807 l 1,11,-1
 610 1099 l 1,12,-1
 1300 1098 l 1,13,-1
 1300 1311 l 1,14,-1
 373 1311 l 1,15,-1
 377 807 l 1,0,-1
EndSplineSet
EndChar

StartChar: R
Encoding: 82 82 51
Width: 1410
Flags: W
LayerCount: 2
Fore
SplineSet
84 1078 m 1,0,-1
 581 1078 l 1,1,-1
 581 -1 l 1,2,-1
 832 -1 l 1,3,-1
 829 1080 l 1,4,-1
 1315 1078 l 1,5,-1
 1315 1311 l 1,6,-1
 84 1311 l 1,7,-1
 84 1078 l 1,0,-1
EndSplineSet
EndChar

StartChar: S
Encoding: 83 83 52
Width: 1401
Flags: W
LayerCount: 2
Fore
SplineSet
77 1299 m 1,0,-1
 77 1102 l 1,1,-1
 232 1059 l 1,2,-1
 232 186 l 1,3,-1
 1247 -7 l 1,4,-1
 1208 184 l 1,5,-1
 554 311 l 1,6,-1
 1330 916 l 1,7,-1
 1207 1062 l 1,8,-1
 442 463 l 1,9,-1
 412 1182 l 1,10,-1
 77 1299 l 1,0,-1
EndSplineSet
EndChar

StartChar: T
Encoding: 84 84 53
Width: 1308
Flags: W
LayerCount: 2
Fore
SplineSet
297 1305 m 1,0,-1
 297 208 l 1,1,-1
 89 205 l 1,2,-1
 89 -9 l 1,3,-1
 1220 -9 l 1,4,-1
 1220 318 l 1,5,-1
 1159 318 l 1,6,7
 1048 288 1048 288 1008 205 c 1,8,-1
 521 208 l 1,9,-1
 518 1305 l 1,10,-1
 297 1305 l 1,0,-1
EndSplineSet
EndChar

StartChar: U
Encoding: 85 85 54
Width: 1209
Flags: W
LayerCount: 2
Fore
SplineSet
97 -8 m 1,0,-1
 1116 -8 l 1,1,-1
 1116 230 l 1,2,-1
 339 230 l 1,3,-1
 337 1310 l 1,4,-1
 97 1310 l 1,5,-1
 97 -8 l 1,0,-1
EndSplineSet
EndChar

StartChar: V
Encoding: 86 86 55
Width: 1301
Flags: W
LayerCount: 2
Fore
SplineSet
553 597 m 1,0,-1
 553 205 l 1,1,-1
 101 205 l 1,2,-1
 101 -6 l 1,3,-1
 797 -6 l 1,4,-1
 796 597 l 1,5,-1
 1243 1307 l 1,6,-1
 967 1309 l 1,7,-1
 669 861 l 1,8,-1
 379 1312 l 1,9,-1
 92 1312 l 1,10,-1
 553 597 l 1,0,-1
EndSplineSet
EndChar

StartChar: W
Encoding: 87 87 56
Width: 1099
Flags: W
LayerCount: 2
Fore
SplineSet
131 -4 m 1,0,-1
 357 -4 l 1,1,-1
 357 583 l 1,2,-1
 554 583 l 1,3,4
 623 592 623 592 641.5 550 c 128,-1,5
 660 508 660 508 676 433 c 1,6,7
 724 323 724 323 869 327 c 1,8,-1
 1018 327 l 1,9,-1
 1018 532 l 1,10,11
 933 525 933 525 879 539 c 128,-1,12
 825 553 825 553 813 593.5 c 128,-1,13
 801 634 801 634 797.5 684 c 128,-1,14
 794 734 794 734 750.5 769 c 128,-1,15
 707 804 707 804 629 799 c 1,16,-1
 352 798 l 1,17,-1
 353 1311 l 1,18,-1
 130 1311 l 1,19,-1
 131 -4 l 1,0,-1
EndSplineSet
EndChar

StartChar: X
Encoding: 88 88 57
Width: 1407
Flags: W
LayerCount: 2
Fore
SplineSet
78 1094 m 1,0,-1
 291 1094 l 1,1,-1
 291 409 l 1,2,3
 281 -19 281 -19 813 -13 c 0,4,5
 1312 -10 1312 -10 1299 425 c 1,6,-1
 1297 1309 l 1,7,-1
 1039 1308 l 1,8,-1
 1043 875 l 1,9,-1
 537 874 l 1,10,-1
 540 1305 l 1,11,-1
 77 1305 l 1,12,-1
 78 1094 l 1,0,-1
1041 619 m 1,13,-1
 1039 428 l 1,14,15
 1029 229 1029 229 801 234 c 1,16,17
 548 233 548 233 543 426 c 1,18,-1
 544 619 l 1,19,-1
 1041 619 l 1,13,-1
EndSplineSet
EndChar

StartChar: Y
Encoding: 89 89 58
Width: 1407
Flags: W
LayerCount: 2
Fore
SplineSet
293 202 m 1,0,-1
 71 202 l 1,1,-1
 72 -6 l 1,2,-1
 524 -3 l 1,3,-1
 524 523 l 1,4,-1
 912 523 l 1,5,-1
 911 206 l 1,6,-1
 687 206 l 1,7,-1
 687 -9 l 1,8,-1
 1143 -10 l 1,9,-1
 1143 1097 l 1,10,-1
 1328 1097 l 1,11,-1
 1328 1303 l 1,12,-1
 914 1305 l 1,13,-1
 916 735 l 1,14,-1
 524 734 l 1,15,-1
 524 1097 l 1,16,-1
 722 1097 l 1,17,-1
 722 1311 l 1,18,-1
 293 1311 l 1,19,-1
 293 202 l 1,0,-1
EndSplineSet
EndChar

StartChar: Z
Encoding: 90 90 59
Width: 1509
Flags: W
LayerCount: 2
Fore
SplineSet
311 610 m 1,1,2
 353 241 353 241 771 211 c 1,3,-1
 776 211 l 1,4,5
 1147 255 1147 255 1193 609 c 1,6,7
 1200 1024 1200 1024 754 1075 c 1,8,-1
 748 1075 l 1,9,0
 306 1043 306 1043 311 610 c 1,1,2
1224.5 1122.5 m 128,-1,11
 1414 933 1414 933 1414 647 c 0,12,13
 1414 351 1414 351 1229.5 166.5 c 128,-1,14
 1045 -18 1045 -18 751 -18 c 0,15,16
 465 -18 465 -18 275.5 171.5 c 128,-1,17
 86 361 86 361 86 647 c 256,18,19
 86 933 86 933 275.5 1122.5 c 128,-1,20
 465 1312 465 1312 751 1312 c 0,21,10
 1035 1312 1035 1312 1224.5 1122.5 c 128,-1,11
EndSplineSet
EndChar

StartChar: bracketleft
Encoding: 91 91 60
Width: 1008
Flags: W
LayerCount: 2
Fore
SplineSet
277 850 m 1,1,-1
 147 481 l 1,2,3
 230 312 230 312 340 426 c 1,4,5
 513 562 513 562 597 557.5 c 128,-1,6
 681 553 681 553 706.5 497.5 c 128,-1,7
 732 442 732 442 695.5 380.5 c 128,-1,8
 659 319 659 319 529 256 c 128,-1,9
 399 193 399 193 115 149 c 1,10,-1
 85 -16 l 1,11,12
 406 32 406 32 553 77.5 c 128,-1,13
 700 123 700 123 787.5 198.5 c 128,-1,14
 875 274 875 274 900 388 c 128,-1,15
 925 502 925 502 873.5 598.5 c 128,-1,16
 822 695 822 695 681 720 c 128,-1,17
 540 745 540 745 389 646 c 1,18,-1
 423 753 l 1,19,20
 490 904 490 904 688 855 c 1,21,-1
 806 810 l 1,22,-1
 890 959 l 1,23,24
 659 1046 659 1046 499 1020 c 1,25,0
 347 1001 347 1001 277 850 c 1,1,-1
EndSplineSet
EndChar

StartChar: backslash
Encoding: 92 92 61
Width: 1011
Flags: W
LayerCount: 2
Fore
SplineSet
332 1028.5 m 128,-1,1
 189 1012 189 1012 99 887 c 1,2,-1
 199 765 l 1,3,4
 283 875 283 875 365.5 868 c 128,-1,5
 448 861 448 861 426 751 c 1,6,7
 308 701 308 701 202 642 c 1,8,-1
 289 491 l 1,9,10
 407 557 407 557 496 593 c 1,11,12
 617 624 617 624 668 583.5 c 128,-1,13
 719 543 719 543 710 494 c 1,14,15
 568 502 568 502 459.5 472 c 128,-1,16
 351 442 351 442 255.5 388.5 c 128,-1,17
 160 335 160 335 115.5 255.5 c 128,-1,18
 71 176 71 176 95.5 88.5 c 128,-1,19
 120 1 120 1 229.5 -13.5 c 128,-1,20
 339 -28 339 -28 467.5 14.5 c 128,-1,21
 596 57 596 57 703.5 143.5 c 128,-1,22
 811 230 811 230 867.5 342 c 128,-1,23
 924 454 924 454 903 575 c 128,-1,24
 882 696 882 696 785.5 755 c 128,-1,25
 689 814 689 814 585 780 c 1,26,27
 620 882 620 882 547.5 963.5 c 128,-1,0
 475 1045 475 1045 332 1028.5 c 128,-1,1
703 371 m 1,28,29
 655 307 655 307 587.5 256.5 c 128,-1,30
 520 206 520 206 456 180.5 c 128,-1,31
 392 155 392 155 332 145 c 128,-1,32
 272 135 272 135 257 163.5 c 128,-1,33
 242 192 242 192 302.5 241 c 128,-1,34
 363 290 363 290 451 323.5 c 128,-1,35
 539 357 539 357 703 371 c 1,28,29
EndSplineSet
EndChar

StartChar: bracketright
Encoding: 93 93 62
Width: 1308
Flags: W
LayerCount: 2
Fore
SplineSet
727 603 m 1,0,1
 675 579 675 579 648 537 c 1,2,3
 571 618 571 618 462 632.5 c 128,-1,4
 353 647 353 647 248.5 602 c 128,-1,5
 144 557 144 557 104.5 439.5 c 128,-1,6
 65 322 65 322 118 192.5 c 128,-1,7
 171 63 171 63 287.5 21.5 c 128,-1,8
 404 -20 404 -20 492 5.5 c 128,-1,9
 580 31 580 31 648 104 c 1,10,11
 733 14 733 14 822 3.5 c 128,-1,12
 911 -7 911 -7 978.5 3.5 c 128,-1,13
 1046 14 1046 14 1100 54 c 128,-1,14
 1154 94 1154 94 1179 144.5 c 128,-1,15
 1204 195 1204 195 1210.5 253.5 c 128,-1,16
 1217 312 1217 312 1207 387.5 c 128,-1,17
 1197 463 1197 463 1128.5 536 c 128,-1,18
 1060 609 1060 609 929 626 c 1,19,-1
 1012 1017 l 1,20,-1
 815 1016 l 1,21,-1
 727 603 l 1,0,1
511 408 m 128,-1,23
 552 367 552 367 552 306 c 0,24,25
 552 247 552 247 511 206 c 128,-1,26
 470 165 470 165 410 165 c 0,27,28
 353 165 353 165 312 206 c 128,-1,29
 271 247 271 247 271 306 c 0,30,31
 271 367 271 367 312 408 c 128,-1,32
 353 449 353 449 410 449 c 0,33,22
 470 449 470 449 511 408 c 128,-1,23
986.5 409.5 m 128,-1,35
 1026 370 1026 370 1026 312 c 0,36,37
 1026 255 1026 255 986.5 215.5 c 128,-1,38
 947 176 947 176 890 176 c 0,39,40
 835 176 835 176 795 215.5 c 128,-1,41
 755 255 755 255 755 312 c 0,42,43
 755 370 755 370 795 409.5 c 128,-1,44
 835 449 835 449 890 449 c 0,45,34
 947 449 947 449 986.5 409.5 c 128,-1,35
EndSplineSet
EndChar

StartChar: asciicircum
Encoding: 94 94 63
Width: 1011
Flags: W
LayerCount: 2
Fore
SplineSet
768 934 m 1,0,1
 518 964 518 964 397 1027 c 128,-1,2
 276 1090 276 1090 261 1227 c 1,3,4
 263 1443 263 1443 486 1463 c 0,5,6
 589 1471 589 1471 651 1443 c 1,7,8
 506 1432 506 1432 478 1287 c 1,9,10
 467 1093 467 1093 672 1063 c 1,11,12
 900 1053 900 1053 910 1232 c 1,13,-1
 774 1272 l 1,14,15
 782 1186 782 1186 693 1195 c 1,16,17
 616 1214 616 1214 632.5 1274.5 c 128,-1,18
 649 1335 649 1335 720 1342 c 128,-1,19
 791 1349 791 1349 907 1336 c 1,20,21
 859 1497 859 1497 737 1564.5 c 128,-1,22
 615 1632 615 1632 475 1617 c 1,23,24
 288 1605 288 1605 183 1489.5 c 128,-1,25
 78 1374 78 1374 92 1213 c 1,26,27
 125 1001 125 1001 308 905 c 128,-1,28
 491 809 491 809 808 796 c 1,29,-1
 768 934 l 1,0,1
240 675 m 1,30,31
 472 664 472 664 592.5 590.5 c 128,-1,32
 713 517 713 517 717 390 c 1,33,34
 716 173 716 173 513 153 c 0,35,36
 415 145 415 145 356 173 c 1,37,38
 494 185 494 185 520 330 c 1,39,40
 531 524 531 524 336 554 c 1,41,42
 129 564 129 564 98 405 c 1,43,-1
 239 345 l 1,44,45
 231 431 231 431 317 422 c 1,46,47
 389 403 389 403 373.5 342.5 c 128,-1,48
 358 282 358 282 290 275 c 128,-1,49
 222 268 222 268 112 281 c 1,50,51
 158 119 158 119 274.5 51.5 c 128,-1,52
 391 -16 391 -16 524 -1 c 1,53,54
 701 11 701 11 801.5 127 c 128,-1,55
 902 243 902 243 888 404 c 0,56,57
 867 606 867 606 687.5 707.5 c 128,-1,58
 508 809 508 809 187 812 c 1,59,-1
 240 675 l 1,30,31
EndSplineSet
EndChar

StartChar: underscore
Encoding: 95 95 64
Width: 1205
Flags: W
LayerCount: 2
Fore
SplineSet
498 0 m 1,0,-1
 696 0 l 1,1,-1
 1134 1308 l 1,2,-1
 872 1308 l 1,3,-1
 628 533 l 1,4,5
 600 430 600 430 569 532 c 2,6,-1
 319 1311 l 1,7,-1
 62 1311 l 1,8,-1
 498 0 l 1,0,-1
EndSplineSet
EndChar

StartChar: grave
Encoding: 96 96 65
Width: 1308
Flags: W
LayerCount: 2
Fore
SplineSet
197 792 m 1,1,-1
 198 221 l 1,2,3
 171 151 171 151 77 198 c 1,4,-1
 77 4 l 1,5,6
 197 -30 197 -30 287.5 -7 c 128,-1,7
 378 16 378 16 385 119 c 1,8,-1
 385 685 l 2,9,10
 385 799 385 799 444.5 801.5 c 128,-1,11
 504 804 504 804 521 680 c 1,12,-1
 641 196 l 1,13,14
 677 -10 677 -10 868 -7 c 0,15,16
 1089 -3 1089 -3 1091 203 c 1,17,-1
 1120 779 l 2,18,19
 1125 830 1125 830 1153 833.5 c 128,-1,20
 1181 837 1181 837 1227 802 c 1,21,-1
 1226 993 l 1,22,23
 1089 1029 1089 1029 1012 992 c 128,-1,24
 935 955 935 955 926 820 c 2,25,-1
 899 272 l 1,26,27
 906 203 906 203 865 201.5 c 128,-1,28
 824 200 824 200 818 277 c 1,29,-1
 695 822 l 1,30,31
 659 1018 659 1018 440 1009 c 0,32,0
 211 1000 211 1000 197 792 c 1,1,-1
EndSplineSet
EndChar

StartChar: a
Encoding: 97 97 66
Width: 1107
Flags: W
LayerCount: 2
Fore
SplineSet
538 784 m 2,0,-1
 413 314 l 1,1,2
 384 169 384 169 134 245 c 1,3,-1
 99 31 l 1,4,-1
 254 -4 l 1,5,6
 546 -29 546 -29 604 200 c 2,7,-1
 720 647 l 1,8,9
 743 839 743 839 974 779 c 1,10,-1
 1009 975 l 1,11,-1
 854 1006 l 1,12,13
 599 1020 599 1020 538 784 c 2,0,-1
EndSplineSet
EndChar

StartChar: b
Encoding: 98 98 67
Width: 1509
Flags: W
LayerCount: 2
Fore
SplineSet
89 562 m 1,1,-1
 89 439 l 1,2,3
 295 116 295 116 626 0 c 1,4,5
 748 -31 748 -31 881 1 c 1,6,7
 1198 113 1198 113 1414 438 c 1,8,-1
 1414 563 l 1,9,10
 1198 881 1198 881 880 996 c 1,11,12
 752 1028 752 1028 624 997 c 1,13,0
 294 884 294 884 89 562 c 1,1,-1
746.5 765.5 m 128,-1,15
 833 766 833 766 921.5 718 c 128,-1,16
 1010 670 1010 670 1134 543 c 0,17,18
 1188 490 1188 490 1134 437 c 0,19,20
 1021 317 1021 317 926 271.5 c 128,-1,21
 831 226 831 226 748 225 c 128,-1,22
 665 224 665 224 575 265 c 128,-1,23
 485 306 485 306 358 437 c 0,24,25
 304 491 304 491 358 546 c 0,26,27
 496 673 496 673 578 719 c 128,-1,14
 660 765 660 765 746.5 765.5 c 128,-1,15
EndSplineSet
EndChar

StartChar: c
Encoding: 99 99 68
Width: 1200
Flags: W
LayerCount: 2
Fore
SplineSet
345.5 993 m 128,-1,1
 242 958 242 958 172 881 c 128,-1,2
 102 804 102 804 94 713.5 c 128,-1,3
 86 623 86 623 137 544 c 128,-1,4
 188 465 188 465 287.5 430.5 c 128,-1,5
 387 396 387 396 496 408 c 128,-1,6
 605 420 605 420 709 464 c 1,7,8
 714 333 714 333 684.5 261.5 c 128,-1,9
 655 190 655 190 585 161 c 128,-1,10
 515 132 515 132 412 152 c 128,-1,11
 309 172 309 172 207 299 c 1,12,-1
 80 177 l 1,13,14
 218 50 218 50 298.5 18.5 c 128,-1,15
 379 -13 379 -13 497.5 -18 c 128,-1,16
 616 -23 616 -23 707.5 27.5 c 128,-1,17
 799 78 799 78 843.5 186.5 c 128,-1,18
 888 295 888 295 878 538 c 1,19,20
 1089 622 1089 622 1105 798.5 c 128,-1,21
 1121 975 1121 975 980 1009 c 128,-1,22
 839 1043 839 1043 747.5 947.5 c 128,-1,23
 656 852 656 852 693 638 c 1,24,25
 560 578 560 578 474.5 573 c 128,-1,26
 389 568 389 568 330.5 608.5 c 128,-1,27
 272 649 272 649 287 714.5 c 128,-1,28
 302 780 302 780 378.5 814.5 c 128,-1,29
 455 849 455 849 579 846 c 1,30,-1
 617 1000 l 1,31,0
 449 1028 449 1028 345.5 993 c 128,-1,1
953 816 m 128,-1,33
 962 760 962 760 853 707 c 1,34,35
 832 812 832 812 888 842 c 128,-1,32
 944 872 944 872 953 816 c 128,-1,33
EndSplineSet
EndChar

StartChar: d
Encoding: 100 100 69
Width: 809
Flags: W
LayerCount: 2
Fore
SplineSet
426 840.5 m 128,-1,1
 362 793 362 793 202 775 c 1,2,3
 77 726 77 726 93 593 c 1,4,-1
 91 -3 l 1,5,-1
 299 -3 l 1,6,-1
 299 486 l 1,7,8
 280 585 280 585 372.5 607.5 c 128,-1,9
 465 630 465 630 533 674 c 128,-1,10
 601 718 601 718 645 787 c 128,-1,11
 689 856 689 856 709 1002 c 1,12,-1
 496 1002 l 1,13,0
 490 888 490 888 426 840.5 c 128,-1,1
EndSplineSet
EndChar

StartChar: e
Encoding: 101 101 70
Width: 1003
Flags: W
LayerCount: 2
Fore
SplineSet
113 735 m 1,1,-1
 266 196 l 1,2,3
 321 35 321 35 412.5 10 c 128,-1,4
 504 -15 504 -15 585 11.5 c 128,-1,5
 666 38 666 38 718 196 c 2,6,-1
 892 730 l 2,7,8
 979 1003 979 1003 699 1012 c 1,9,-1
 295 1012 l 1,10,0
 20 999 20 999 113 735 c 1,1,-1
631 806 m 1,11,12
 709 790 709 790 665 687 c 1,13,-1
 563 315 l 1,14,15
 510 180 510 180 435 309 c 1,16,-1
 348 682 l 1,17,18
 298 804 298 804 395 806 c 2,19,-1
 631 806 l 1,11,12
EndSplineSet
EndChar

StartChar: f
Encoding: 102 102 71
Width: 2011
Flags: W
LayerCount: 2
Fore
SplineSet
1095 864.5 m 128,-1,1
 1183 780 1183 780 1356 622 c 1,2,3
 1422 806 1422 806 1514.5 866.5 c 128,-1,4
 1607 927 1607 927 1721 895 c 128,-1,5
 1835 863 1835 863 1884.5 774.5 c 128,-1,6
 1934 686 1934 686 1914.5 579 c 128,-1,7
 1895 472 1895 472 1822.5 394 c 128,-1,8
 1750 316 1750 316 1645.5 305 c 128,-1,9
 1541 294 1541 294 1435 345 c 1,10,11
 1368 172 1368 172 1280.5 80 c 128,-1,12
 1193 -12 1193 -12 1076.5 -12 c 128,-1,13
 960 -12 960 -12 879 31 c 128,-1,14
 798 74 798 74 678.5 218 c 128,-1,15
 559 362 559 362 331 649 c 1,16,17
 219 799 219 799 100 628 c 1,18,-1
 35 791 l 1,19,20
 142 921 142 921 256 907 c 128,-1,21
 370 893 370 893 443.5 799 c 128,-1,22
 517 705 517 705 635 568.5 c 128,-1,23
 753 432 753 432 855 324 c 128,-1,24
 957 216 957 216 1036.5 210 c 128,-1,25
 1116 204 1116 204 1164.5 258.5 c 128,-1,26
 1213 313 1213 313 1273 441 c 1,27,28
 1060 642 1060 642 997 711 c 128,-1,29
 934 780 934 780 869 826.5 c 128,-1,30
 804 873 804 873 686 764 c 1,31,-1
 603 909 l 1,32,33
 682 1004 682 1004 766 1017 c 128,-1,34
 850 1030 850 1030 928.5 989.5 c 128,-1,0
 1007 949 1007 949 1095 864.5 c 128,-1,1
1505 512 m 1,35,36
 1626 466 1626 466 1680 505.5 c 128,-1,37
 1734 545 1734 545 1743 616.5 c 128,-1,38
 1752 688 1752 688 1690.5 709.5 c 128,-1,39
 1629 731 1629 731 1588 686.5 c 128,-1,40
 1547 642 1547 642 1505 512 c 1,35,36
EndSplineSet
EndChar

StartChar: g
Encoding: 103 103 72
Width: 1208
Flags: W
LayerCount: 2
Fore
SplineSet
778 846 m 1,1,2
 602 909 602 909 460 869.5 c 128,-1,3
 318 830 318 830 264 713.5 c 128,-1,4
 210 597 210 597 221 466 c 128,-1,5
 232 335 232 335 213 219 c 1,6,7
 190 147 190 147 81 190 c 1,8,-1
 82 1 l 1,9,10
 415 -73 415 -73 442 174 c 1,11,12
 448 308 448 308 436.5 428.5 c 128,-1,13
 425 549 425 549 473 603.5 c 128,-1,14
 521 658 521 658 598 651 c 128,-1,15
 675 644 675 644 738 595 c 1,16,-1
 737 -3 l 1,17,-1
 964 -3 l 1,18,-1
 965 632 l 1,19,20
 943 848 943 848 1115 773 c 1,21,-1
 1115 965 l 1,22,23
 1075 996 1075 996 975 1004 c 1,24,0
 810 993 810 993 778 846 c 1,1,2
EndSplineSet
EndChar

StartChar: h
Encoding: 104 104 73
Width: 1514
Flags: W
LayerCount: 2
Fore
SplineSet
147 1014 m 1,0,1
 108 817 108 817 91.5 683.5 c 128,-1,2
 75 550 75 550 91.5 390 c 128,-1,3
 108 230 108 230 190.5 129.5 c 128,-1,4
 273 29 273 29 376 2.5 c 128,-1,5
 479 -24 479 -24 588.5 -9.5 c 128,-1,6
 698 5 698 5 784 123.5 c 128,-1,7
 870 242 870 242 887 534 c 0,8,9
 901 720 901 720 968 768 c 128,-1,10
 1035 816 1035 816 1097 782 c 128,-1,11
 1159 748 1159 748 1180.5 648.5 c 128,-1,12
 1202 549 1202 549 1196 424.5 c 128,-1,13
 1190 300 1190 300 1129 -4 c 1,14,-1
 1345 -4 l 1,15,16
 1394 202 1394 202 1411 374.5 c 128,-1,17
 1428 547 1428 547 1399.5 692.5 c 128,-1,18
 1371 838 1371 838 1291.5 914 c 128,-1,19
 1212 990 1212 990 1124 1006 c 128,-1,20
 1036 1022 1036 1022 931 1000.5 c 128,-1,21
 826 979 826 979 755 875.5 c 128,-1,22
 684 772 684 772 667 530 c 0,23,24
 647 277 647 277 561 228 c 128,-1,25
 475 179 475 179 397 223 c 128,-1,26
 319 267 319 267 297.5 406 c 128,-1,27
 276 545 276 545 351 1014 c 1,28,-1
 147 1014 l 1,0,1
EndSplineSet
EndChar

StartChar: i
Encoding: 105 105 74
Width: 1110
Flags: W
LayerCount: 2
Fore
SplineSet
437 893 m 128,-1,1
 349 786 349 786 356 606 c 1,2,-1
 94 605 l 1,3,-1
 94 446 l 1,4,-1
 350 446 l 1,5,-1
 350 2 l 1,6,-1
 555 -6 l 1,7,-1
 553 446 l 1,8,-1
 958 446 l 1,9,-1
 958 611 l 1,10,-1
 557 612 l 1,11,12
 552 808 552 808 733 818 c 1,13,-1
 1006 816 l 1,14,-1
 1006 1009 l 1,15,-1
 716 1009 l 1,16,0
 525 1000 525 1000 437 893 c 128,-1,1
EndSplineSet
EndChar

StartChar: j
Encoding: 106 106 75
Width: 910
Flags: W
LayerCount: 2
Fore
SplineSet
180 495 m 1,1,2
 60 410 60 410 85 237.5 c 128,-1,3
 110 65 110 65 286.5 7 c 128,-1,4
 463 -51 463 -51 624 21 c 128,-1,5
 785 93 785 93 817 254 c 1,6,-1
 663 315 l 1,7,8
 612 205 612 205 525 178.5 c 128,-1,9
 438 152 438 152 350 188.5 c 128,-1,10
 262 225 262 225 267.5 307.5 c 128,-1,11
 273 390 273 390 386 405 c 1,12,13
 489 397 489 397 548.5 399.5 c 128,-1,14
 608 402 608 402 600 492 c 1,15,16
 613 571 613 571 550.5 579.5 c 128,-1,17
 488 588 488 588 384 576 c 1,18,19
 281 613 281 613 274.5 692 c 128,-1,20
 268 771 268 771 351 815.5 c 128,-1,21
 434 860 434 860 524.5 828.5 c 128,-1,22
 615 797 615 797 656 685 c 1,23,-1
 812 745 l 1,24,25
 775 930 775 930 614 993 c 128,-1,26
 453 1056 453 1056 283 991 c 128,-1,27
 113 926 113 926 86 761 c 128,-1,0
 59 596 59 596 180 495 c 1,1,2
EndSplineSet
EndChar

StartChar: k
Encoding: 107 107 76
Width: 1111
Flags: W
LayerCount: 2
Fore
SplineSet
123.5 809 m 128,-1,1
 78 674 78 674 135 557 c 128,-1,2
 192 440 192 440 330 395.5 c 128,-1,3
 468 351 468 351 697 421 c 1,4,5
 687 241 687 241 538.5 197.5 c 128,-1,6
 390 154 390 154 94 248 c 1,7,-1
 99 67 l 1,8,9
 280 -18 280 -18 493.5 -11 c 128,-1,10
 707 -4 707 -4 808 134 c 256,11,12
 909 272 909 272 897 482 c 1,13,-1
 1013 515 l 1,14,-1
 1018 703 l 1,15,16
 940 683 940 683 882 668 c 1,17,18
 841 880 841 880 677.5 957.5 c 128,-1,19
 514 1035 514 1035 341.5 989.5 c 128,-1,0
 169 944 169 944 123.5 809 c 128,-1,1
576.5 786.5 m 128,-1,21
 661 745 661 745 683 601 c 1,22,23
 460 554 460 554 383.5 581.5 c 128,-1,24
 307 609 307 609 310 687.5 c 128,-1,25
 313 766 313 766 402.5 797 c 128,-1,20
 492 828 492 828 576.5 786.5 c 128,-1,21
EndSplineSet
EndChar

StartChar: l
Encoding: 108 108 77
Width: 1111
Flags: W
LayerCount: 2
Fore
SplineSet
241 821 m 1,0,1
 418 846 418 846 597 786 c 1,2,3
 758 705 758 705 798 584 c 128,-1,4
 838 463 838 463 795.5 354 c 128,-1,5
 753 245 753 245 629 199.5 c 128,-1,6
 505 154 505 154 389 217 c 1,7,8
 534 247 534 247 563 406 c 1,9,10
 585 664 585 664 346 701 c 1,11,12
 112 699 112 699 90 509 c 1,13,-1
 234 459 l 1,14,15
 236 547 236 547 334 530 c 1,16,17
 416 504 416 504 394 435 c 128,-1,18
 372 366 372 366 299.5 357.5 c 128,-1,19
 227 349 227 349 93 354 c 1,20,21
 166 143 166 143 293 60.5 c 128,-1,22
 420 -22 420 -22 585.5 -9.5 c 128,-1,23
 751 3 751 3 859.5 95.5 c 128,-1,24
 968 188 968 188 998 324.5 c 128,-1,25
 1028 461 1028 461 992 602 c 128,-1,26
 956 743 956 743 834.5 846 c 128,-1,27
 713 949 713 949 549 979.5 c 128,-1,28
 385 1010 385 1010 201 990 c 1,29,-1
 241 821 l 1,0,1
EndSplineSet
EndChar

StartChar: m
Encoding: 109 109 78
Width: 1106
Flags: W
LayerCount: 2
Fore
SplineSet
625 956 m 1,0,-1
 410 769 l 1,1,2
 193 542 193 542 407 377 c 1,3,4
 530 292 530 292 689 283 c 1,5,6
 654 141 654 141 282 181 c 1,7,8
 101 247 101 247 83 134 c 1,9,-1
 79 11 l 1,10,11
 405 -30 405 -30 620 0 c 128,-1,12
 835 30 835 30 876 249 c 1,13,14
 946 237 946 237 1028 265 c 1,15,-1
 1030 434 l 1,16,17
 953 406 953 406 905 429 c 1,18,-1
 909 985 l 1,19,20
 737 1073 737 1073 625 956 c 1,0,-1
718 463 m 1,21,22
 564 483 564 483 527 517.5 c 128,-1,23
 490 552 490 552 513 599.5 c 128,-1,24
 536 647 536 647 721 796 c 1,25,-1
 718 463 l 1,21,22
EndSplineSet
EndChar

StartChar: n
Encoding: 110 110 79
Width: 1307
Flags: W
LayerCount: 2
Fore
SplineSet
244 696 m 1,0,-1
 177 772 l 1,1,-1
 43 660 l 1,2,-1
 262 398 l 1,3,-1
 382 493 l 1,4,-1
 335 563 l 1,5,-1
 518 668 l 1,6,-1
 549 383 l 1,7,8
 572 0 572 0 902 -2 c 1,9,10
 1187 -19 1187 -19 1230 312 c 1,11,-1
 1054 340 l 1,12,13
 1029 171 1029 171 909 186 c 1,14,15
 758 178 758 178 742 406 c 1,16,-1
 728 1006 l 1,17,-1
 507 1006 l 1,18,-1
 509 868 l 1,19,-1
 244 696 l 1,0,-1
EndSplineSet
EndChar

StartChar: o
Encoding: 111 111 80
Width: 1111
Flags: W
LayerCount: 2
Fore
SplineSet
178 982 m 1,1,-1
 148 773 l 1,2,3
 436 831 436 831 595.5 827.5 c 128,-1,4
 755 824 755 824 780 761 c 128,-1,5
 805 698 805 698 696 670 c 128,-1,6
 587 642 587 642 437 629 c 128,-1,7
 287 616 287 616 186 533.5 c 128,-1,8
 85 451 85 451 97.5 287 c 128,-1,9
 110 123 110 123 240 52 c 128,-1,10
 370 -19 370 -19 585 -15.5 c 128,-1,11
 800 -12 800 -12 998 32 c 1,12,-1
 952 232 l 1,13,14
 791 180 791 180 659 173.5 c 128,-1,15
 527 167 527 167 417 195.5 c 128,-1,16
 307 224 307 224 301 308 c 128,-1,17
 295 392 295 392 383 425.5 c 128,-1,18
 471 459 471 459 650 472.5 c 128,-1,19
 829 486 829 486 919.5 573.5 c 128,-1,20
 1010 661 1010 661 981.5 807.5 c 128,-1,21
 953 954 953 954 748.5 993.5 c 128,-1,0
 544 1033 544 1033 178 982 c 1,1,-1
EndSplineSet
EndChar

StartChar: p
Encoding: 112 112 81
Width: 1608
Flags: W
LayerCount: 2
Fore
SplineSet
1185 904 m 1,1,2
 1139 659 1139 659 1121 556.5 c 128,-1,3
 1103 454 1103 454 1029.5 322.5 c 128,-1,4
 956 191 956 191 794 211 c 1,5,6
 644 211 644 211 576.5 332 c 128,-1,7
 509 453 509 453 487 553.5 c 128,-1,8
 465 654 465 654 421 896 c 0,9,10
 401 1014 401 1014 270 1005 c 1,11,12
 163 1005 163 1005 80 1001 c 1,13,-1
 80 830 l 1,14,-1
 166 835 l 1,15,16
 258 866 258 866 271 715 c 1,17,18
 318 370 318 370 454 170.5 c 128,-1,19
 590 -29 590 -29 803 -11 c 1,20,21
 1023 -27 1023 -27 1162 162.5 c 128,-1,22
 1301 352 1301 352 1339 714 c 1,23,24
 1350 867 1350 867 1435 836 c 1,25,-1
 1514 831 l 1,26,-1
 1514 1006 l 1,27,28
 1431 1015 1431 1015 1330 1005 c 1,29,0
 1197 1005 1197 1005 1185 904 c 1,1,2
EndSplineSet
EndChar

StartChar: q
Encoding: 113 113 82
Width: 1007
Flags: W
LayerCount: 2
Fore
SplineSet
84 1006 m 1,0,-1
 84 835 l 1,1,-1
 387 835 l 2,2,3
 604 836 604 836 536 614 c 1,4,-1
 125 614 l 1,5,-1
 125 453 l 1,6,-1
 508 456 l 1,7,-1
 407 -1 l 1,8,-1
 594 -1 l 1,9,-1
 683 445 l 1,10,-1
 933 447 l 1,11,-1
 934 614 l 1,12,-1
 723 614 l 1,13,14
 807 1023 807 1023 412 1006 c 1,15,-1
 84 1006 l 1,0,-1
EndSplineSet
EndChar

StartChar: r
Encoding: 114 114 83
Width: 908
Flags: W
LayerCount: 2
Fore
SplineSet
53 854 m 1,0,1
 215 783 215 783 329 609 c 1,2,3
 182 450 182 450 158 357.5 c 128,-1,4
 134 265 134 265 163.5 178 c 128,-1,5
 193 91 193 91 271 32.5 c 128,-1,6
 349 -26 349 -26 451 -26.5 c 128,-1,7
 553 -27 553 -27 630 38.5 c 128,-1,8
 707 104 707 104 732.5 184 c 128,-1,9
 758 264 758 264 736.5 356 c 128,-1,10
 715 448 715 448 589 599 c 1,11,12
 664 772 664 772 841 842 c 1,13,-1
 702 1008 l 1,14,15
 577 922 577 922 451 752 c 1,16,17
 323 923 323 923 193 1010 c 1,18,-1
 53 854 l 1,0,1
456 492 m 1,19,20
 551 358 551 358 566.5 291 c 128,-1,21
 582 224 582 224 517.5 181.5 c 128,-1,22
 453 139 453 139 387.5 177.5 c 128,-1,23
 322 216 322 216 329 288 c 128,-1,24
 336 360 336 360 456 492 c 1,19,20
EndSplineSet
EndChar

StartChar: s
Encoding: 115 115 84
Width: 1310
Flags: W
LayerCount: 2
Fore
SplineSet
268 846 m 1,0,1
 497 855 497 855 547 785 c 128,-1,2
 597 715 597 715 566 638 c 1,3,4
 437 707 437 707 321.5 695.5 c 128,-1,5
 206 684 206 684 142.5 603.5 c 128,-1,6
 79 523 79 523 81.5 408 c 128,-1,7
 84 293 84 293 156 210.5 c 128,-1,8
 228 128 228 128 356 69 c 128,-1,9
 484 10 484 10 642.5 -5 c 128,-1,10
 801 -20 801 -20 963 -11 c 1,11,12
 1057 -13 1057 -13 1047 75 c 1,13,-1
 1047 178 l 1,14,15
 829 143 829 143 674 160 c 128,-1,16
 519 177 519 177 390 248 c 1,17,18
 231 349 231 349 279 458 c 128,-1,19
 327 567 327 567 483 481 c 1,20,21
 453 418 453 418 375 379 c 1,22,23
 386 303 386 303 520 317 c 1,24,25
 580 343 580 343 630 414 c 1,26,27
 722 381 722 381 782.5 369.5 c 128,-1,28
 843 358 843 358 906.5 362.5 c 128,-1,29
 970 367 970 367 1017.5 386 c 128,-1,30
 1065 405 1065 405 1106 461 c 128,-1,31
 1147 517 1147 517 1171 606.5 c 128,-1,32
 1195 696 1195 696 1214 1010 c 1,33,-1
 1025 990 l 1,34,35
 1015 795 1015 795 1003.5 712 c 128,-1,36
 992 629 992 629 954 580.5 c 128,-1,37
 916 532 916 532 857 533.5 c 128,-1,38
 798 535 798 535 722 566 c 1,39,40
 738 653 738 653 740.5 707 c 128,-1,41
 743 761 743 761 722 836 c 128,-1,42
 701 911 701 911 600.5 961.5 c 128,-1,43
 500 1012 500 1012 230 1016 c 1,44,-1
 268 846 l 1,0,1
EndSplineSet
EndChar

StartChar: t
Encoding: 116 116 85
Width: 1003
Flags: W
LayerCount: 2
Fore
SplineSet
450 714 m 1,0,1
 134 687 134 687 89.5 450.5 c 128,-1,2
 45 214 45 214 214 84.5 c 128,-1,3
 383 -45 383 -45 623 12 c 128,-1,4
 863 69 863 69 908 321 c 1,5,-1
 715 366 l 1,6,7
 671 180 671 180 493 184.5 c 128,-1,8
 315 189 315 189 283 319 c 1,9,10
 252 551 252 551 569 541 c 0,11,12
 666 541 666 541 666 649 c 2,13,-1
 666 1026 l 1,14,-1
 455 1026 l 1,15,-1
 450 714 l 1,0,1
EndSplineSet
EndChar

StartChar: u
Encoding: 117 117 86
Width: 1012
Flags: W
LayerCount: 2
Fore
SplineSet
886 31 m 1,0,1
 958 196 958 196 849 228 c 1,2,-1
 646 198 l 1,3,4
 343 173 343 173 375 401 c 1,5,-1
 414 1004 l 1,6,-1
 211 1004 l 1,7,-1
 165 327 l 1,8,9
 156 71 156 71 381.5 16 c 128,-1,10
 607 -39 607 -39 886 31 c 1,0,1
EndSplineSet
EndChar

StartChar: v
Encoding: 118 118 87
Width: 1211
Flags: W
LayerCount: 2
Fore
SplineSet
94 969 m 1,1,-1
 156 817 l 1,2,3
 240 906 240 906 272 820 c 1,4,5
 228 698 228 698 231 633 c 128,-1,6
 234 568 234 568 282 507.5 c 128,-1,7
 330 447 330 447 404.5 427 c 128,-1,8
 479 407 479 407 529.5 401.5 c 128,-1,9
 580 396 580 396 716 411 c 1,10,11
 746 218 746 218 652.5 172.5 c 128,-1,12
 559 127 559 127 467.5 163 c 128,-1,13
 376 199 376 199 326 320 c 1,14,-1
 154 260 l 1,15,16
 257 56 257 56 402.5 12.5 c 128,-1,17
 548 -31 548 -31 644.5 -17 c 128,-1,18
 741 -3 741 -3 801.5 54 c 128,-1,19
 862 111 862 111 888 212.5 c 128,-1,20
 914 314 914 314 881 486 c 1,21,22
 989 542 989 542 1036.5 599 c 128,-1,23
 1084 656 1084 656 1103.5 719 c 128,-1,24
 1123 782 1123 782 1108 859.5 c 128,-1,25
 1093 937 1093 937 1017.5 980.5 c 128,-1,26
 942 1024 942 1024 845 1006.5 c 128,-1,27
 748 989 748 989 705 924 c 128,-1,28
 662 859 662 859 655.5 782.5 c 128,-1,29
 649 706 649 706 679 590 c 1,30,31
 593 558 593 558 528 565.5 c 128,-1,32
 463 573 463 573 425.5 619 c 128,-1,33
 388 665 388 665 439 800 c 1,34,35
 445 915 445 915 403 967.5 c 128,-1,36
 361 1020 361 1020 271.5 1024 c 128,-1,0
 182 1028 182 1028 94 969 c 1,1,-1
937.5 779.5 m 128,-1,38
 934 729 934 729 852 662 c 1,39,40
 816 765 816 765 840.5 811.5 c 128,-1,41
 865 858 865 858 903 844 c 128,-1,37
 941 830 941 830 937.5 779.5 c 128,-1,38
EndSplineSet
EndChar

StartChar: w
Encoding: 119 119 88
Width: 913
Flags: W
LayerCount: 2
Fore
SplineSet
81 1004 m 1,0,-1
 81 828 l 1,1,-1
 323 826 l 1,2,3
 590 862 590 862 500 599 c 1,4,-1
 364 -2 l 1,5,-1
 558 -2 l 1,6,-1
 723 749 l 1,7,8
 743 1029 743 1029 331 1001 c 1,9,-1
 81 1004 l 1,0,-1
EndSplineSet
EndChar

StartChar: x
Encoding: 120 120 89
Width: 1007
Flags: W
LayerCount: 2
Fore
SplineSet
77 1005 m 1,0,-1
 78 844 l 1,1,2
 185 879 185 879 197 802 c 128,-1,3
 209 725 209 725 220 638 c 128,-1,4
 231 551 231 551 337 505 c 1,5,6
 220 458 220 458 195 346.5 c 128,-1,7
 170 235 170 235 229.5 125 c 128,-1,8
 289 15 289 15 426.5 -15 c 128,-1,9
 564 -45 564 -45 740 4.5 c 128,-1,10
 916 54 916 54 911 273 c 1,11,-1
 909 1003 l 1,12,-1
 728 1003 l 1,13,-1
 730 607 l 1,14,-1
 572 607 l 1,15,16
 438 614 438 614 404 667 c 128,-1,17
 370 720 370 720 360 840.5 c 128,-1,18
 350 961 350 961 277.5 991 c 128,-1,19
 205 1021 205 1021 77 1005 c 1,0,-1
727 430 m 1,20,-1
 727 320 l 1,21,22
 732 188 732 188 642.5 160 c 128,-1,23
 553 132 553 132 456.5 165 c 128,-1,24
 360 198 360 198 370.5 305.5 c 128,-1,25
 381 413 381 413 579 431 c 1,26,-1
 727 430 l 1,20,-1
EndSplineSet
EndChar

StartChar: y
Encoding: 121 121 90
Width: 1310
Flags: W
LayerCount: 2
Fore
SplineSet
240 698 m 1,1,2
 235 509 235 509 240 374 c 1,3,4
 122 283 122 283 99.5 204.5 c 128,-1,5
 77 126 77 126 107.5 54.5 c 128,-1,6
 138 -17 138 -17 247.5 -16 c 128,-1,7
 357 -15 357 -15 422.5 76 c 128,-1,8
 488 167 488 167 477 302 c 1,9,-1
 835 528 l 1,10,11
 854 332 854 332 824.5 244.5 c 128,-1,12
 795 157 795 157 573 186 c 1,13,-1
 573 -5 l 1,14,-1
 777 -5 l 1,15,16
 1041 -9 1041 -9 1047 238.5 c 128,-1,17
 1053 486 1053 486 1045 664 c 1,18,19
 1154 711 1154 711 1190 789 c 128,-1,20
 1226 867 1226 867 1200.5 944.5 c 128,-1,21
 1175 1022 1175 1022 1057 1022 c 128,-1,22
 939 1022 939 1022 877.5 947.5 c 128,-1,23
 816 873 816 873 825 730 c 1,24,-1
 457 499 l 1,25,26
 453 575 453 575 448.5 724 c 128,-1,27
 444 873 444 873 703 818 c 1,28,-1
 694 1011 l 1,29,-1
 508 1019 l 1,30,0
 216 1007 216 1007 240 698 c 1,1,2
EndSplineSet
EndChar

StartChar: z
Encoding: 122 122 91
Width: 1107
Flags: W
LayerCount: 2
Fore
SplineSet
113.5 724.5 m 128,-1,1
 26 538 26 538 111 315.5 c 128,-1,2
 196 93 196 93 419 27.5 c 128,-1,3
 642 -38 642 -38 809 42.5 c 128,-1,4
 976 123 976 123 1009 282.5 c 128,-1,5
 1042 442 1042 442 982.5 557 c 128,-1,6
 923 672 923 672 730 702 c 128,-1,7
 537 732 537 732 414 561 c 1,8,9
 430 421 430 421 541 443 c 1,10,11
 641 547 641 547 733.5 512.5 c 128,-1,12
 826 478 826 478 827.5 383 c 128,-1,13
 829 288 829 288 742 229 c 128,-1,14
 655 170 655 170 530 190.5 c 128,-1,15
 405 211 405 211 333.5 317 c 128,-1,16
 262 423 262 423 275.5 556.5 c 128,-1,17
 289 690 289 690 382.5 762 c 128,-1,18
 476 834 476 834 587 839.5 c 128,-1,19
 698 845 698 845 894 786 c 1,20,-1
 987 930 l 1,21,22
 801 1021 801 1021 643 1024 c 128,-1,23
 485 1027 485 1027 343 969 c 128,-1,0
 201 911 201 911 113.5 724.5 c 128,-1,1
EndSplineSet
EndChar

StartChar: braceleft
Encoding: 123 123 92
Width: 1209
Flags: W
LayerCount: 2
Fore
SplineSet
147 576 m 1,0,-1
 320 569 l 2,1,2
 387 570 387 570 402 622 c 1,3,4
 599 738 599 738 727 719 c 128,-1,5
 855 700 855 700 869 589.5 c 128,-1,6
 883 479 883 479 725.5 370 c 128,-1,7
 568 261 568 261 101 174 c 1,8,-1
 78 -9 l 1,9,10
 362 14 362 14 579.5 65 c 128,-1,11
 797 116 797 116 963.5 245.5 c 128,-1,12
 1130 375 1130 375 1132 609 c 128,-1,13
 1134 843 1134 843 940 932 c 128,-1,14
 746 1021 746 1021 514 911 c 1,15,-1
 556 1048 l 1,16,-1
 1075 1093 l 1,17,-1
 1102 1315 l 1,18,-1
 373 1258 l 1,19,-1
 147 576 l 1,0,-1
EndSplineSet
EndChar

StartChar: bar
Encoding: 124 124 93
Width: 1308
Flags: W
LayerCount: 2
Fore
SplineSet
66 1068 m 1,0,-1
 176 821 l 1,1,-1
 275 855 l 1,2,-1
 279 974 l 1,3,-1
 516 1090 l 1,4,-1
 383 797 l 2,5,6
 336 701 336 701 452 634 c 1,7,8
 646 810 646 810 804.5 828.5 c 128,-1,9
 963 847 963 847 997 736 c 128,-1,10
 1031 625 1031 625 915 458.5 c 128,-1,11
 799 292 799 292 601 209.5 c 128,-1,12
 403 127 403 127 370 188 c 128,-1,13
 337 249 337 249 505 394 c 1,14,15
 632 494 632 494 808 550 c 1,16,17
 958 618 958 618 795 678 c 1,18,19
 659 662 659 662 496.5 575.5 c 128,-1,20
 334 489 334 489 234.5 361 c 128,-1,21
 135 233 135 233 178.5 104 c 128,-1,22
 222 -25 222 -25 393 -20.5 c 128,-1,23
 564 -16 564 -16 688 38 c 128,-1,24
 812 92 812 92 905.5 162.5 c 128,-1,25
 999 233 999 233 1072 319.5 c 128,-1,26
 1145 406 1145 406 1190 547.5 c 128,-1,27
 1235 689 1235 689 1208.5 830.5 c 128,-1,28
 1182 972 1182 972 1028.5 1028 c 128,-1,29
 875 1084 875 1084 666 984 c 1,30,-1
 749 1174 l 1,31,32
 822 1279 822 1279 592 1315 c 1,33,-1
 66 1068 l 1,0,-1
EndSplineSet
EndChar

StartChar: braceright
Encoding: 125 125 94
Width: 1611
Flags: W
LayerCount: 2
Fore
SplineSet
683 643 m 1,0,1
 603 734 603 734 476 745 c 128,-1,2
 349 756 349 756 241 698 c 128,-1,3
 133 640 133 640 94 503 c 128,-1,4
 55 366 55 366 105 227.5 c 128,-1,5
 155 89 155 89 274.5 29.5 c 128,-1,6
 394 -30 394 -30 541.5 6 c 128,-1,7
 689 42 689 42 785 204 c 1,8,9
 896 42 896 42 1038 10.5 c 128,-1,10
 1180 -21 1180 -21 1308 29 c 128,-1,11
 1436 79 1436 79 1488.5 220 c 128,-1,12
 1541 361 1541 361 1498.5 493 c 128,-1,13
 1456 625 1456 625 1353.5 687 c 128,-1,14
 1251 749 1251 749 1121.5 745.5 c 128,-1,15
 992 742 992 742 909 654 c 1,16,-1
 908 1309 l 1,17,-1
 681 1306 l 1,18,-1
 683 643 l 1,0,1
560.5 486 m 128,-1,20
 609 438 609 438 609 369 c 0,21,22
 609 302 609 302 560.5 254 c 128,-1,23
 512 206 512 206 443 206 c 256,24,25
 374 206 374 206 325.5 254 c 128,-1,26
 277 302 277 302 277 369 c 0,27,28
 277 438 277 438 325.5 486 c 128,-1,29
 374 534 374 534 443 534 c 256,30,19
 512 534 512 534 560.5 486 c 128,-1,20
1263 490 m 128,-1,32
 1313 442 1313 442 1313 373 c 0,33,34
 1313 306 1313 306 1263 258 c 128,-1,35
 1213 210 1213 210 1142 210 c 256,36,37
 1071 210 1071 210 1021 258 c 128,-1,38
 971 306 971 306 971 373 c 0,39,40
 971 442 971 442 1021 490 c 128,-1,41
 1071 538 1071 538 1142 538 c 256,42,31
 1213 538 1213 538 1263 490 c 128,-1,32
EndSplineSet
EndChar

StartChar: asciitilde
Encoding: 126 126 95
Width: 1312
Flags: W
LayerCount: 2
Fore
SplineSet
996 382 m 1,0,1
 1010 220 1010 220 883.5 219.5 c 128,-1,2
 757 219 757 219 765 385 c 1,3,-1
 765 1011 l 1,4,5
 741 1321 741 1321 435 1320 c 1,6,7
 107 1325 107 1325 85 1014 c 1,8,-1
 85 3 l 1,9,-1
 85 3 l 1,10,-1
 303 3 l 1,11,-1
 303 3 l 1,12,-1
 303 931 l 1,13,14
 317 1069 317 1069 425.5 1066.5 c 128,-1,15
 534 1064 534 1064 535 927 c 2,16,-1
 535 281 l 1,17,18
 558 -29 558 -29 905 -18 c 1,19,20
 1210 -29 1210 -29 1221 281 c 1,21,-1
 1222 1305 l 1,22,-1
 996 1305 l 1,23,-1
 996 382 l 1,0,1
EndSplineSet
EndChar

StartChar: section
Encoding: 167 167 96
Width: 1011
Flags: W
LayerCount: 2
Fore
SplineSet
240 675 m 1,0,1
 482 664 482 664 597.5 590.5 c 128,-1,2
 713 517 713 517 717 380 c 1,3,4
 716 163 716 163 513 143 c 0,5,6
 415 135 415 135 356 163 c 1,7,8
 494 175 494 175 520 320 c 1,9,10
 531 514 531 514 326 544 c 1,11,12
 149 554 149 554 108 395 c 1,13,-1
 239 335 l 1,14,15
 231 421 231 421 317 412 c 1,16,17
 389 393 389 393 373.5 332.5 c 128,-1,18
 358 272 358 272 290 265 c 128,-1,19
 222 258 222 258 112 271 c 1,20,21
 158 109 158 109 274.5 41.5 c 128,-1,22
 391 -26 391 -26 524 -11 c 1,23,24
 701 1 701 1 801.5 117 c 128,-1,25
 902 233 902 233 888 394 c 1,26,27
 857 606 857 606 682.5 702.5 c 128,-1,28
 508 799 508 799 187 792 c 1,29,-1
 240 675 l 1,0,1
241 1487 m 1,30,31
 466 1496 466 1496 577 1420.5 c 128,-1,32
 688 1345 688 1345 691 1213 c 1,33,34
 680 1006 680 1006 496 986 c 0,35,36
 402 979 402 979 346 1006 c 1,37,38
 478 1017 478 1017 503 1156 c 1,39,40
 513 1342 513 1342 317 1370 c 1,41,42
 129 1380 129 1380 108 1210 c 1,43,-1
 233 1170 l 1,44,45
 226 1253 226 1253 308 1244 c 1,46,47
 377 1226 377 1226 362 1168 c 128,-1,48
 347 1110 347 1110 282 1103.5 c 128,-1,49
 217 1097 217 1097 112 1109 c 1,50,51
 156 954 156 954 267.5 889.5 c 128,-1,52
 379 825 379 825 506 839 c 1,53,54
 676 850 676 850 772.5 961.5 c 128,-1,55
 869 1073 869 1073 855 1227 c 1,56,57
 825 1430 825 1430 658 1522.5 c 128,-1,58
 491 1615 491 1615 184 1608 c 1,59,-1
 241 1487 l 1,30,31
EndSplineSet
EndChar

StartChar: logicalnot
Encoding: 172 172 97
Width: 1200
Flags: W
LayerCount: 2
Fore
SplineSet
480.5 672 m 128,-1,1
 514 641 514 641 514 595 c 0,2,3
 514 551 514 551 480.5 519.5 c 128,-1,4
 447 488 447 488 400 488 c 256,5,6
 353 488 353 488 319.5 519.5 c 128,-1,7
 286 551 286 551 286 595 c 0,8,9
 286 641 286 641 319.5 672 c 128,-1,10
 353 703 353 703 400 703 c 256,11,0
 447 703 447 703 480.5 672 c 128,-1,1
EndSplineSet
EndChar

StartChar: macron
Encoding: 175 175 98
Width: 1300
Flags: W
LayerCount: 2
Fore
SplineSet
290 1210 m 1,0,-1
 644 145 l 1,1,-1
 1018 1208 l 1,2,-1
 1220 1207 l 1,3,-1
 735 -147 l 1,4,5
 629 -267 629 -267 532 -150 c 1,6,-1
 78 1209 l 1,7,-1
 290 1210 l 1,0,-1
EndSplineSet
EndChar

StartChar: degree
Encoding: 176 176 99
Width: 674
Flags: W
LayerCount: 2
Fore
SplineSet
339 1372 m 256,0,1
 253 1372 253 1372 191.5 1311 c 128,-1,2
 130 1250 130 1250 130 1163 c 256,3,4
 130 1076 130 1076 191 1016 c 128,-1,5
 252 956 252 956 339 956 c 256,6,7
 426 956 426 956 486 1016 c 128,-1,8
 546 1076 546 1076 546 1163 c 256,9,10
 546 1250 546 1250 485.5 1311 c 128,-1,11
 425 1372 425 1372 339 1372 c 256,0,1
339 1442 m 0,12,13
 454 1442 454 1442 535 1360.5 c 128,-1,14
 616 1279 616 1279 616 1164 c 0,15,16
 616 1050 616 1050 534 968 c 128,-1,17
 452 886 452 886 337 886 c 0,18,19
 220 886 220 886 140 967 c 128,-1,20
 60 1048 60 1048 60 1164 c 256,21,22
 60 1280 60 1280 141.5 1361 c 128,-1,23
 223 1442 223 1442 339 1442 c 0,12,13
EndSplineSet
EndChar

StartChar: plusminus
Encoding: 177 177 100
Width: 682
Flags: W
LayerCount: 2
Fore
SplineSet
331 733 m 1,0,-1
 331 1287 l 1,1,2
 229 1206 229 1206 107 1174 c 1,3,-1
 107 1297 l 1,4,5
 169 1317 169 1317 245 1370 c 128,-1,6
 321 1423 321 1423 368 1484 c 1,7,-1
 476 1484 l 1,8,-1
 476 733 l 1,9,-1
 331 733 l 1,0,-1
EndSplineSet
EndChar

StartChar: uni00B3
Encoding: 179 179 101
Width: 682
Flags: W
LayerCount: 2
Fore
SplineSet
33 929 m 1,0,-1
 179 944 l 1,1,2
 199 884 199 884 231 862 c 0,3,4
 274 832 274 832 333 832 c 0,5,6
 404 832 404 832 447 871 c 128,-1,7
 490 910 490 910 490 965 c 0,8,9
 490 1015 490 1015 454 1045 c 128,-1,10
 418 1075 418 1075 331 1075 c 0,11,12
 319 1075 319 1075 298 1073 c 0,13,14
 284 1072 284 1072 276 1072 c 1,15,-1
 298 1182 l 1,16,17
 379 1181 379 1181 416.5 1211 c 128,-1,18
 454 1241 454 1241 454 1284 c 0,19,20
 454 1321 454 1321 424 1347 c 128,-1,21
 394 1373 394 1373 335 1373 c 0,22,23
 279 1373 279 1373 247.5 1351 c 128,-1,24
 216 1329 216 1329 193 1271 c 1,25,-1
 50 1294 l 1,26,27
 91 1400 91 1400 153.5 1442 c 128,-1,28
 216 1484 216 1484 336 1484 c 0,29,30
 480 1484 480 1484 545.5 1430.5 c 128,-1,31
 611 1377 611 1377 611 1297 c 0,32,33
 611 1242 611 1242 575.5 1199 c 128,-1,34
 540 1156 540 1156 473 1137 c 1,35,36
 562 1115 562 1115 604 1064.5 c 128,-1,37
 646 1014 646 1014 646 946 c 0,38,39
 646 853 646 853 567 784 c 128,-1,40
 488 715 488 715 342 715 c 0,41,42
 202 715 202 715 128 770.5 c 128,-1,43
 54 826 54 826 33 929 c 1,0,-1
EndSplineSet
EndChar

StartChar: acute
Encoding: 180 180 102
Width: 984
Flags: W
LayerCount: 2
Fore
SplineSet
836 -412 m 1,0,-1
 750 -412 l 2,1,2
 571 -412 571 -412 469.5 -319.5 c 128,-1,3
 368 -227 368 -227 368 -49 c 2,4,-1
 368 91 l 1,5,6
 378 240 378 240 295 334 c 0,7,8
 218 418 218 418 60 466 c 1,9,-1
 60 537 l 1,10,11
 218 585 218 585 305 669 c 1,12,13
 378 782 378 782 368 912 c 1,14,-1
 368 1052 l 2,15,16
 368 1230 368 1230 469.5 1322.5 c 128,-1,17
 571 1415 571 1415 750 1415 c 2,18,-1
 826 1415 l 1,19,20
 896 1350 896 1350 826 1267 c 1,21,22
 707 1286 707 1286 610 1236 c 1,23,24
 517 1146 517 1146 532 952 c 128,-1,25
 547 758 547 758 482 644 c 1,26,27
 423 553 423 553 346 513 c 1,28,-1
 346 490 l 1,29,30
 423 459 423 459 482 359 c 0,31,32
 547 245 547 245 537 51 c 128,-1,33
 527 -143 527 -143 610 -233 c 1,34,35
 727 -283 727 -283 836 -264 c 1,36,37
 896 -347 896 -347 836 -412 c 1,0,-1
EndSplineSet
EndChar

StartChar: mu
Encoding: 181 181 103
Width: 1000
Flags: W
LayerCount: 2
Fore
SplineSet
158 -251 m 1,1,2
 259 -270 259 -270 379 -220 c 1,3,4
 463 -131 463 -131 453 61.5 c 128,-1,5
 443 254 443 254 509 367 c 0,6,7
 569 467 569 467 648 497 c 1,8,-1
 648 520 l 1,9,10
 569 560 569 560 509 650 c 1,11,12
 443 763 443 763 458 955.5 c 128,-1,13
 473 1148 473 1148 379 1237 c 1,14,15
 280 1287 280 1287 158 1268 c 1,16,17
 97 1351 97 1351 158 1415 c 1,18,-1
 236 1415 l 2,19,20
 418 1415 418 1415 521.5 1323.5 c 128,-1,21
 625 1232 625 1232 625 1055 c 2,22,-1
 625 916 l 1,23,24
 615 787 615 787 690 675 c 1,25,26
 759 591 759 591 920 544 c 1,27,-1
 920 473 l 1,28,29
 759 426 759 426 700 342 c 1,30,31
 615 249 615 249 625 101 c 1,32,-1
 625 -38 l 2,33,34
 625 -215 625 -215 521.5 -306.5 c 128,-1,35
 418 -398 418 -398 236 -398 c 2,36,-1
 158 -398 l 1,37,0
 97 -334 97 -334 158 -251 c 1,1,2
EndSplineSet
EndChar

StartChar: paragraph
Encoding: 182 182 104
Width: 1118
Flags: W
LayerCount: 2
Fore
SplineSet
982 -363 m 1,0,-1
 842 -363 l 1,1,-1
 842 1359 l 1,2,-1
 655 1359 l 1,3,-1
 655 -363 l 1,4,-1
 515 -363 l 1,5,-1
 515 593 l 1,6,7
 309 598 309 598 183 722 c 128,-1,8
 57 846 57 846 57 1050 c 0,9,10
 57 1257 57 1257 187 1373 c 128,-1,11
 317 1489 317 1489 560 1489 c 2,12,-1
 982 1489 l 1,13,-1
 982 -363 l 1,0,-1
EndSplineSet
EndChar

StartChar: periodcentered
Encoding: 183 183 105
AltUni2: 002219.ffffffff.0
Width: 508
Flags: W
LayerCount: 2
Fore
SplineSet
145 740 m 2,0,-1
 227 824 l 2,1,2
 242 838 242 838 256 838 c 0,3,4
 269 838 269 838 287 822 c 2,5,-1
 367 736 l 2,6,7
 379 720 379 720 379 707 c 0,8,9
 379 692 379 692 365 676 c 2,10,-1
 285 588 l 2,11,12
 265 568 265 568 256 568 c 0,13,14
 240 568 240 568 227 582 c 2,15,-1
 139 683 l 2,16,17
 129 696 129 696 129 709 c 0,18,19
 129 724 129 724 145 740 c 2,0,-1
EndSplineSet
EndChar

StartChar: uni00B9
Encoding: 185 185 106
Width: 1300
Flags: W
LayerCount: 2
Fore
SplineSet
571 262 m 1,0,-1
 571 396 l 1,1,-1
 571 590 l 1,2,-1
 349 590 l 1,3,-1
 196 590 l 1,4,5
 136 671 136 671 196 742 c 1,6,-1
 349 742 l 1,7,-1
 571 742 l 1,8,-1
 571 966 l 1,9,-1
 571 1109 l 1,10,11
 650 1169 650 1169 729 1109 c 1,12,-1
 729 966 l 1,13,-1
 729 742 l 1,14,-1
 953 742 l 1,15,-1
 1106 742 l 1,16,17
 1176 671 1176 671 1106 590 c 1,18,-1
 953 590 l 1,19,-1
 729 590 l 1,20,-1
 729 396 l 1,21,-1
 729 262 l 1,22,23
 650 202 650 202 571 262 c 1,0,-1
1103 -52 m 1,24,-1
 648 -52 l 1,25,-1
 193 -52 l 1,26,27
 133 25 133 25 193 102 c 1,28,-1
 648 102 l 1,29,-1
 1103 102 l 1,30,31
 1173 25 1173 25 1103 -52 c 1,24,-1
EndSplineSet
EndChar

StartChar: ordmasculine
Encoding: 186 186 107
Width: 1100
Flags: W
LayerCount: 2
Fore
SplineSet
556 281 m 1,0,1
 407 134 407 134 260 -15 c 1,2,3
 140 -15 140 -15 141 104 c 1,4,5
 289 252 289 252 437 400 c 1,6,7
 289 548 289 548 141 697 c 1,8,9
 140 815 140 815 260 814 c 1,10,11
 407 667 407 667 556 518 c 1,12,13
 704 667 704 667 853 814 c 1,14,15
 983 815 983 815 970 695 c 1,16,17
 822 548 822 548 674 400 c 1,18,19
 822 252 822 252 970 104 c 1,20,21
 970 -15 970 -15 852 -15 c 1,22,23
 703 134 703 134 556 281 c 1,0,1
EndSplineSet
EndChar

StartChar: guillemotright
Encoding: 187 187 108
Width: 1200
Flags: W
LayerCount: 2
Fore
SplineSet
121 261 m 1,0,1
 52 350 52 350 121 440 c 1,2,-1
 604 440 l 1,3,-1
 1087 440 l 1,4,-1
 1088 440 l 1,5,-1
 1088 439 l 1,6,7
 1145 350 1145 350 1088 261 c 1,8,-1
 604 261 l 1,9,-1
 121 261 l 1,0,1
687 824 m 1,11,12
 755 742 755 742 687 667 c 1,13,14
 596 592 596 592 505 671 c 1,15,16
 438 750 438 750 505 829 c 1,17,10
 596 907 596 907 687 824 c 1,11,12
687 42 m 1,19,20
 755 -41 755 -41 687 -116 c 1,21,22
 596 -191 596 -191 505 -112 c 1,23,24
 438 -33 438 -33 505 46 c 1,25,18
 596 124 596 124 687 42 c 1,19,20
EndSplineSet
EndChar

StartChar: questiondown
Encoding: 191 191 112
Width: 1211
Flags: W
LayerCount: 2
Fore
SplineSet
689 1264 m 1,0,-1
 688 206 l 1,1,2
 828 307 828 307 872.5 412 c 128,-1,3
 917 517 917 517 946 690 c 1,4,5
 981 829 981 829 1127 829 c 1,6,7
 1092 539 1092 539 1039 404 c 128,-1,8
 986 269 986 269 900.5 167 c 128,-1,9
 815 65 815 65 614 -13 c 1,10,11
 454 31 454 31 369 87 c 128,-1,12
 284 143 284 143 226.5 226 c 128,-1,13
 169 309 169 309 131 398 c 128,-1,14
 93 487 93 487 83.5 588 c 128,-1,15
 74 689 74 689 107 834 c 1,16,17
 239 806 239 806 317 764.5 c 128,-1,18
 395 723 395 723 506 603 c 1,19,-1
 510 1258 l 1,20,21
 591 1344 591 1344 689 1264 c 1,0,-1
235 623 m 1,22,23
 250 505 250 505 280 437.5 c 128,-1,24
 310 370 310 370 361 308.5 c 128,-1,25
 412 247 412 247 524 206 c 1,26,27
 502 325 502 325 485 380.5 c 128,-1,28
 468 436 468 436 417.5 495.5 c 128,-1,29
 367 555 367 555 235 623 c 1,22,23
EndSplineSet
EndChar

StartChar: Agrave
Encoding: 192 192 113
Width: 1306
Flags: W
LayerCount: 2
Fore
SplineSet
1205 1310 m 1,0,1
 1247 951 1247 951 1000 656 c 1,2,3
 1243 351 1243 351 1203 -6 c 1,4,-1
 1025 -10 l 1,5,6
 1003 349 1003 349 886 460 c 1,7,8
 658 325 658 325 407 454 c 1,9,10
 279 344 279 344 274 -4 c 1,11,-1
 96 -3 l 1,12,13
 53 351 53 351 295 655 c 1,14,15
 56 937 56 937 91 1301 c 1,16,-1
 268 1310 l 1,17,18
 253 942 253 942 398 822 c 1,19,20
 642 990 642 990 880 848 c 1,21,22
 1055 953 1055 953 1020 1313 c 1,23,-1
 1205 1310 l 1,0,1
461 650 m 1,24,25
 656 478 656 478 839 660 c 1,26,27
 654 824 654 824 461 650 c 1,24,25
EndSplineSet
EndChar

StartChar: Aacute
Encoding: 193 193 114
Width: 1315
Flags: W
LayerCount: 2
Fore
SplineSet
1196 1305 m 1,0,1
 1200 1023 1200 1023 1143.5 910.5 c 128,-1,2
 1087 798 1087 798 922 666 c 1,3,4
 1052 603 1052 603 1116 489.5 c 128,-1,5
 1180 376 1180 376 1215 0 c 1,6,-1
 1010 0 l 1,7,8
 1006 358 1006 358 826 479.5 c 128,-1,9
 646 601 646 601 460.5 482.5 c 128,-1,10
 275 364 275 364 304 0 c 1,11,-1
 85 3 l 1,12,13
 114 377 114 377 183.5 492.5 c 128,-1,14
 253 608 253 608 392 666 c 1,15,16
 215 801 215 801 157.5 908.5 c 128,-1,17
 100 1016 100 1016 98 1301 c 1,18,-1
 306 1301 l 1,19,20
 270 964 270 964 458.5 857.5 c 128,-1,21
 647 751 647 751 828 854.5 c 128,-1,22
 1009 958 1009 958 1000 1308 c 1,23,-1
 1196 1305 l 1,0,1
EndSplineSet
EndChar

StartChar: Acircumflex
Encoding: 194 194 115
Width: 1509
Flags: W
LayerCount: 2
Fore
SplineSet
849 1232 m 1,1,-1
 850 671 l 1,2,-1
 1126 673 l 1,3,4
 1231 656 1231 656 1258 519 c 1,5,-1
 1258 197 l 1,6,-1
 1406 196 l 1,7,-1
 1410 9 l 1,8,-1
 1151 11 l 1,9,10
 1061 30 1061 30 1071 131 c 1,11,-1
 1072 480 l 1,12,-1
 846 480 l 1,13,-1
 846 475 l 1,14,-1
 846 -10 l 1,15,-1
 652 -5 l 1,16,-1
 655 486 l 1,17,-1
 206 486 l 1,18,19
 14 524 14 524 118 725 c 1,20,-1
 572 1260 l 1,21,0
 738 1386 738 1386 849 1232 c 1,1,-1
321 665 m 1,22,-1
 658 665 l 1,23,-1
 659 1075 l 1,24,-1
 321 665 l 1,22,-1
EndSplineSet
EndChar

StartChar: Atilde
Encoding: 195 195 116
Width: 1507
Flags: W
LayerCount: 2
Fore
SplineSet
1409 1255 m 1,1,2
 1419 1049 1419 1049 1347 960 c 128,-1,3
 1275 871 1275 871 1149.5 851.5 c 128,-1,4
 1024 832 1024 832 890 874 c 1,5,-1
 849 737 l 1,6,7
 1078 636 1078 636 1173 583 c 128,-1,8
 1268 530 1268 530 1326.5 449.5 c 128,-1,9
 1385 369 1385 369 1380.5 252.5 c 128,-1,10
 1376 136 1376 136 1285 66 c 128,-1,11
 1194 -4 1194 -4 1038 32.5 c 128,-1,12
 882 69 882 69 690 174 c 1,13,14
 587 14 587 14 449 -12 c 128,-1,15
 311 -38 311 -38 90 55 c 1,16,17
 95 305 95 305 236 389 c 128,-1,18
 377 473 377 473 578 399 c 1,19,-1
 632 629 l 1,20,21
 473 704 473 704 359.5 761 c 128,-1,22
 246 818 246 818 182 896 c 128,-1,23
 118 974 118 974 131.5 1080.5 c 128,-1,24
 145 1187 145 1187 218 1246.5 c 128,-1,25
 291 1306 291 1306 380.5 1314 c 128,-1,26
 470 1322 470 1322 543.5 1296.5 c 128,-1,27
 617 1271 617 1271 813 1127 c 1,28,29
 900 1315 900 1315 1087.5 1317 c 128,-1,0
 1275 1319 1275 1319 1409 1255 c 1,1,2
962 1016 m 1,30,31
 1155 983 1155 983 1193.5 1061.5 c 128,-1,32
 1232 1140 1232 1140 1138.5 1154.5 c 128,-1,33
 1045 1169 1045 1169 962 1016 c 1,30,31
427 947 m 128,-1,35
 507 890 507 890 680 817 c 1,36,-1
 727 961 l 1,37,38
 589 1064 589 1064 510.5 1103.5 c 128,-1,39
 432 1143 432 1143 379 1125 c 128,-1,40
 326 1107 326 1107 336.5 1055.5 c 128,-1,34
 347 1004 347 1004 427 947 c 128,-1,35
796 572 m 1,41,-1
 749 338 l 1,42,43
 909 260 909 260 998 227.5 c 128,-1,44
 1087 195 1087 195 1136.5 214 c 128,-1,45
 1186 233 1186 233 1190.5 291.5 c 128,-1,46
 1195 350 1195 350 1115 404 c 128,-1,47
 1035 458 1035 458 796 572 c 1,41,-1
338.5 136.5 m 128,-1,49
 436 120 436 120 528 242 c 1,50,51
 366 319 366 319 303.5 236 c 128,-1,48
 241 153 241 153 338.5 136.5 c 128,-1,49
EndSplineSet
EndChar

StartChar: Adieresis
Encoding: 196 196 117
Width: 1604
Flags: W
LayerCount: 2
Fore
SplineSet
1093 1104 m 1,0,-1
 1047 412 l 1,1,-1
 907 996 l 1,2,3
 889 1176 889 1176 804 1287 c 1,4,5
 705 1176 705 1176 693 996 c 1,6,-1
 560 419 l 1,7,-1
 497 1098 l 1,8,9
 484 1310 484 1310 317 1312 c 128,-1,10
 150 1314 150 1314 108 1209.5 c 128,-1,11
 66 1105 66 1105 108 1000 c 1,12,-1
 266 997 l 1,13,14
 211 1066 211 1066 239 1135 c 1,15,16
 306 1206 306 1206 340 1130 c 1,17,-1
 413 -2 l 1,18,19
 625 -67 625 -67 714 304 c 1,20,-1
 804 704 l 1,21,-1
 889 304 l 1,22,23
 977 -67 977 -67 1199 -2 c 1,24,-1
 1257 1109 l 2,25,26
 1258 1174 1258 1174 1310 1170 c 128,-1,27
 1362 1166 1362 1166 1370 1095.5 c 128,-1,28
 1378 1025 1378 1025 1319 1001 c 1,29,-1
 108 996 l 1,30,31
 139 895 139 895 274 867 c 1,32,-1
 1351 880 l 1,33,34
 1466 904 1466 904 1502 1007.5 c 128,-1,35
 1538 1111 1538 1111 1491.5 1209.5 c 128,-1,36
 1445 1308 1445 1308 1272 1302.5 c 128,-1,37
 1099 1297 1099 1297 1093 1104 c 1,0,-1
EndSplineSet
EndChar

StartChar: Aring
Encoding: 197 197 118
Width: 1509
Flags: W
LayerCount: 2
Fore
SplineSet
1225 669.5 m 128,-1,1
 1198 498 1198 498 1081 355.5 c 128,-1,2
 964 213 964 213 823 191.5 c 128,-1,3
 682 170 682 170 509.5 228.5 c 128,-1,4
 337 287 337 287 308 554 c 1,5,6
 458 533 458 533 548.5 603 c 128,-1,7
 639 673 639 673 653.5 786 c 128,-1,8
 668 899 668 899 608.5 996 c 128,-1,9
 549 1093 549 1093 411 1107.5 c 128,-1,10
 273 1122 273 1122 189 1069 c 128,-1,11
 105 1016 105 1016 91 887 c 1,12,-1
 257 885 l 1,13,14
 291 956 291 956 374.5 945 c 128,-1,15
 458 934 458 934 461 819 c 1,16,17
 452 699 452 699 243 723 c 1,18,-1
 89 720 l 1,19,-1
 88 574 l 1,20,21
 110 327 110 327 248 187.5 c 128,-1,22
 386 48 386 48 538 10.5 c 128,-1,23
 690 -27 690 -27 851.5 -10.5 c 128,-1,24
 1013 6 1013 6 1155 146.5 c 128,-1,25
 1297 287 1297 287 1354 444 c 128,-1,26
 1411 601 1411 601 1417 775.5 c 128,-1,27
 1423 950 1423 950 1350 1126.5 c 128,-1,28
 1277 1303 1277 1303 1094.5 1308 c 128,-1,29
 912 1313 912 1313 850.5 1158.5 c 128,-1,30
 789 1004 789 1004 828.5 836 c 128,-1,31
 868 668 868 668 918 557.5 c 128,-1,32
 968 447 968 447 1200 -1 c 1,33,-1
 1386 -2 l 1,34,35
 1097 559 1097 559 1047 706 c 128,-1,36
 997 853 997 853 1003.5 997 c 128,-1,37
 1010 1141 1010 1141 1087.5 1143 c 128,-1,38
 1165 1145 1165 1145 1208.5 993 c 128,-1,0
 1252 841 1252 841 1225 669.5 c 128,-1,1
EndSplineSet
EndChar

StartChar: AE
Encoding: 198 198 119
Width: 1009
Flags: W
LayerCount: 2
Fore
SplineSet
267 1308 m 1,0,-1
 95 1308 l 1,1,-1
 95 634 l 1,2,-1
 245 688 l 1,3,4
 300 817 300 817 372.5 882.5 c 128,-1,5
 445 948 445 948 559 945.5 c 128,-1,6
 673 943 673 943 720 841.5 c 128,-1,7
 767 740 767 740 705.5 627 c 128,-1,8
 644 514 644 514 518 409 c 128,-1,9
 392 304 392 304 95 150 c 1,10,-1
 99 -5 l 1,11,12
 496 175 496 175 633 284 c 128,-1,13
 770 393 770 393 850.5 524 c 128,-1,14
 931 655 931 655 907.5 849.5 c 128,-1,15
 884 1044 884 1044 668.5 1112.5 c 128,-1,16
 453 1181 453 1181 266 1001 c 1,17,-1
 267 1308 l 1,0,-1
EndSplineSet
EndChar

StartChar: Ccedilla
Encoding: 199 199 120
Width: 1211
Flags: W
LayerCount: 2
Fore
SplineSet
676 1058 m 1,0,1
 501 1207 501 1207 304 1139 c 128,-1,2
 107 1071 107 1071 84 867 c 128,-1,3
 61 663 61 663 135.5 532.5 c 128,-1,4
 210 402 210 402 354.5 283 c 128,-1,5
 499 164 499 164 870 -25 c 1,6,-1
 873 139 l 1,7,8
 592 293 592 293 468 402.5 c 128,-1,9
 344 512 344 512 293 630 c 128,-1,10
 242 748 242 748 273.5 849 c 128,-1,11
 305 950 305 950 402.5 962.5 c 128,-1,12
 500 975 500 975 581 929.5 c 128,-1,13
 662 884 662 884 697 686 c 1,14,-1
 858 787 l 1,15,-1
 859 961 l 1,16,17
 854 1098 854 1098 902.5 1127 c 128,-1,18
 951 1156 951 1156 1068 1104 c 1,19,-1
 1127 1248 l 1,20,21
 1004 1321 1004 1321 909.5 1312.5 c 128,-1,22
 815 1304 815 1304 755 1245 c 128,-1,23
 695 1186 695 1186 676 1058 c 1,0,1
EndSplineSet
EndChar

StartChar: Egrave
Encoding: 200 200 121
Width: 1215
Flags: W
LayerCount: 2
Fore
SplineSet
415 866 m 128,-1,1
 468 928 468 928 488.5 978.5 c 128,-1,2
 509 1029 509 1029 511 1118 c 1,3,4
 405 1074 405 1074 357 1018 c 128,-1,5
 309 962 309 962 280 909.5 c 128,-1,6
 251 857 251 857 237 744 c 1,7,0
 362 804 362 804 415 866 c 128,-1,1
511 24 m 1,9,-1
 508 763 l 1,10,11
 397 655 397 655 319 617 c 128,-1,12
 241 579 241 579 110 554 c 1,13,14
 77 685 77 685 86 775.5 c 128,-1,15
 95 866 95 866 133 946 c 128,-1,16
 171 1026 171 1026 228.5 1101 c 128,-1,17
 286 1176 286 1176 370.5 1226.5 c 128,-1,18
 455 1277 455 1277 614 1316 c 1,19,20
 815 1247 815 1247 900.5 1155 c 128,-1,21
 986 1063 986 1063 1038.5 941.5 c 128,-1,22
 1091 820 1091 820 1125 559 c 1,23,24
 971 559 971 559 946 684 c 1,25,26
 908 839 908 839 863.5 934 c 128,-1,27
 819 1029 819 1029 688 1119 c 1,28,-1
 688 19 l 1,29,8
 592 -54 592 -54 511 24 c 1,9,-1
EndSplineSet
EndChar

StartChar: Eacute
Encoding: 201 201 122
Width: 1414
Flags: W
LayerCount: 2
Fore
SplineSet
675 858 m 1,0,1
 577 936 577 936 472 950 c 128,-1,2
 367 964 367 964 266 925.5 c 128,-1,3
 165 887 165 887 115 765 c 128,-1,4
 65 643 65 643 114 519.5 c 128,-1,5
 163 396 163 396 271.5 346.5 c 128,-1,6
 380 297 380 297 509 327 c 1,7,-1
 395 -2 l 1,8,-1
 614 1 l 1,9,-1
 742 397 l 1,10,11
 829 330 829 330 894.5 320 c 128,-1,12
 960 310 960 310 1028 315 c 128,-1,13
 1096 320 1096 320 1156 349 c 128,-1,14
 1216 378 1216 378 1255 431 c 128,-1,15
 1294 484 1294 484 1311 563.5 c 128,-1,16
 1328 643 1328 643 1303 725 c 128,-1,17
 1278 807 1278 807 1224 857.5 c 128,-1,18
 1170 908 1170 908 1090 929 c 128,-1,19
 1010 950 1010 950 910 924 c 1,20,-1
 1033 1309 l 1,21,-1
 825 1308 l 1,22,-1
 675 858 l 1,0,1
528.5 735 m 128,-1,24
 573 692 573 692 573 629 c 0,25,26
 573 568 573 568 528.5 525.5 c 128,-1,27
 484 483 484 483 417 483 c 0,28,29
 355 483 355 483 309.5 525.5 c 128,-1,30
 264 568 264 568 264 629 c 0,31,32
 264 692 264 692 309.5 735 c 128,-1,33
 355 778 355 778 417 778 c 0,34,23
 484 778 484 778 528.5 735 c 128,-1,24
1101.5 732 m 128,-1,36
 1147 688 1147 688 1147 624 c 0,37,38
 1147 561 1147 561 1101.5 517 c 128,-1,39
 1056 473 1056 473 989 473 c 0,40,41
 924 473 924 473 877.5 517 c 128,-1,42
 831 561 831 561 831 624 c 0,43,44
 831 688 831 688 877.5 732 c 128,-1,45
 924 776 924 776 989 776 c 0,46,35
 1056 776 1056 776 1101.5 732 c 128,-1,36
EndSplineSet
EndChar

StartChar: Ecircumflex
Encoding: 202 202 123
Width: 1703
Flags: W
LayerCount: 2
Fore
SplineSet
353 1242 m 1,1,2
 258 1365 258 1365 105 1272 c 1,3,-1
 105 1074 l 1,4,-1
 107 1074 l 1,5,6
 173 1127 173 1127 222 1082 c 1,7,-1
 224 -7 l 1,8,-1
 399 -8 l 1,9,-1
 399 1063 l 1,10,11
 491 1183 491 1183 590 1063 c 1,12,-1
 589 -7 l 1,13,-1
 794 -8 l 1,14,-1
 793 1073 l 1,15,16
 891 1187 891 1187 972 1073 c 1,17,-1
 973 298 l 1,18,19
 1026 -26 1026 -26 1379 -6 c 1,20,21
 1608 37 1608 37 1617 318 c 1,22,23
 1606 532 1606 532 1399 588 c 1,24,25
 1254 623 1254 623 1158 564 c 1,26,-1
 1157 1063 l 1,27,28
 1171 1157 1171 1157 1109 1233 c 128,-1,29
 1047 1309 1047 1309 910.5 1313 c 128,-1,30
 774 1317 774 1317 682 1225 c 1,31,0
 532 1378 532 1378 353 1242 c 1,1,2
1406 388.5 m 128,-1,33
 1447 349 1447 349 1447 292 c 0,34,35
 1447 236 1447 236 1406 197 c 128,-1,36
 1365 158 1365 158 1304 158 c 0,37,38
 1247 158 1247 158 1205.5 197 c 128,-1,39
 1164 236 1164 236 1164 292 c 0,40,41
 1164 349 1164 349 1205.5 388.5 c 128,-1,42
 1247 428 1247 428 1304 428 c 0,43,32
 1365 428 1365 428 1406 388.5 c 128,-1,33
EndSplineSet
EndChar

StartChar: Edieresis
Encoding: 203 203 124
Width: 1708
Flags: W
LayerCount: 2
Fore
SplineSet
498 1207 m 0,1,2
 285 1035 285 1035 123 766 c 1,3,4
 5 489 5 489 273 437 c 1,5,-1
 663 423 l 1,6,-1
 664 -17 l 1,7,-1
 847 -17 l 1,8,-1
 847 -9 l 1,9,-1
 851 426 l 1,10,-1
 990 426 l 1,11,12
 992 351 992 351 992 266 c 1,13,14
 1033 25 1033 25 1297 -6 c 1,15,16
 1571 1 1571 1 1617 284 c 1,17,18
 1607 597 1607 597 1286 607 c 1,19,20
 1169 602 1169 602 1111 538 c 1,21,22
 1113 628 1113 628 1004 609 c 1,23,-1
 847 610 l 1,24,-1
 855 1183 l 1,25,-1
 853 1183 l 1,26,0
 766 1419 766 1419 498 1207 c 0,1,2
668 608 m 1,27,-1
 367 609 l 1,28,29
 254 630 254 630 356 785 c 1,30,-1
 446 905 l 1,31,-1
 546 998 l 1,32,33
 687 1122 687 1122 671 934 c 1,34,-1
 668 608 l 1,27,-1
1410 411 m 128,-1,36
 1452 378 1452 378 1462 306 c 1,37,38
 1452 234 1452 234 1415 191 c 128,-1,39
 1378 148 1378 148 1299 148 c 0,40,41
 1233 148 1233 148 1191 186 c 128,-1,42
 1149 224 1149 224 1149 305 c 1,43,44
 1159 377 1159 377 1201 410.5 c 128,-1,45
 1243 444 1243 444 1299 444 c 0,46,35
 1368 444 1368 444 1410 411 c 128,-1,36
EndSplineSet
EndChar

StartChar: Igrave
Encoding: 204 204 125
Width: 1608
Flags: W
LayerCount: 2
Fore
SplineSet
98 1210 m 1,0,-1
 199 1065 l 1,1,2
 502 1229 502 1229 806 991 c 1,3,-1
 438 386 l 1,4,5
 286 455 286 455 169 372.5 c 128,-1,6
 52 290 52 290 104 98 c 1,7,8
 184 -25 184 -25 325 -10 c 128,-1,9
 466 5 466 5 527 141 c 1,10,11
 843 -12 843 -12 1192 -4 c 1,12,13
 1483 24 1483 24 1513 299 c 1,14,15
 1507 432 1507 432 1432 524 c 1,16,17
 1332 622 1332 622 1171 610 c 1,18,19
 965 580 965 580 919 419 c 1,20,21
 870 291 870 291 941 163 c 1,22,23
 750 207 750 207 590 298 c 1,24,-1
 959 916 l 1,25,26
 1154 852 1154 852 1266.5 943 c 128,-1,27
 1379 1034 1379 1034 1344 1202 c 1,28,29
 1244 1335 1244 1335 1094 1317.5 c 128,-1,30
 944 1300 944 1300 886 1162 c 1,31,32
 502 1411 502 1411 98 1210 c 1,0,-1
1166 1074.5 m 128,-1,34
 1124 1024 1124 1024 1018 1070 c 1,35,36
 1074 1194 1074 1194 1141 1159.5 c 128,-1,33
 1208 1125 1208 1125 1166 1074.5 c 128,-1,34
394 231 m 1,38,39
 330 123 330 123 269 148 c 128,-1,40
 208 173 208 173 254 233.5 c 128,-1,37
 300 294 300 294 394 231 c 1,38,39
1304.5 420.5 m 128,-1,42
 1352 383 1352 383 1352 322 c 256,43,44
 1352 261 1352 261 1304.5 213.5 c 128,-1,45
 1257 166 1257 166 1197 166 c 0,46,47
 1139 166 1139 166 1096.5 208 c 128,-1,48
 1054 250 1054 250 1054 311 c 0,49,50
 1054 373 1054 373 1096.5 415.5 c 128,-1,51
 1139 458 1139 458 1197 458 c 0,52,41
 1257 458 1257 458 1304.5 420.5 c 128,-1,42
EndSplineSet
EndChar

StartChar: Iacute
Encoding: 205 205 126
Width: 1617
Flags: W
LayerCount: 2
Fore
SplineSet
928 902 m 1,0,-1
 899 492 l 1,1,-1
 694 1308 l 1,2,-1
 575 1308 l 1,3,-1
 381 500 l 1,4,-1
 353 1117 l 1,5,-1
 344 1200 l 1,6,7
 284 1364 284 1364 69 1298 c 1,8,-1
 68 1110 l 1,9,10
 136 1163 136 1163 184 1100 c 1,11,-1
 222 2 l 1,12,-1
 335 2 l 2,13,14
 459 2 459 2 510 246 c 2,15,-1
 640 849 l 1,16,-1
 742 246 l 1,17,18
 814 2 814 2 943 2 c 2,19,-1
 1041 2 l 1,20,-1
 1067 375 l 1,21,-1
 1093 748 l 1,22,23
 1196 715 1196 715 1262 722 c 0,24,25
 1509 742 1509 742 1517 1011 c 1,26,27
 1514 1283 1514 1283 1243 1307 c 1,28,29
 907 1320 907 1320 928 902 c 1,0,-1
1323 1108.5 m 128,-1,31
 1356 1069 1356 1069 1356 1012 c 0,32,33
 1356 946 1356 946 1323 912 c 128,-1,34
 1290 878 1290 878 1226 878 c 0,35,36
 1163 878 1163 878 1130.5 912 c 128,-1,37
 1098 946 1098 946 1098 1012 c 0,38,39
 1098 1079 1098 1079 1130.5 1113.5 c 128,-1,40
 1163 1148 1163 1148 1226 1148 c 0,41,30
 1290 1148 1290 1148 1323 1108.5 c 128,-1,31
EndSplineSet
EndChar

StartChar: Icircumflex
Encoding: 206 206 127
Width: 1916
Flags: W
LayerCount: 2
Fore
SplineSet
1097 709.5 m 128,-1,1
 1103 506 1103 506 1013.5 347.5 c 128,-1,2
 924 189 924 189 598 212 c 1,3,4
 323 254 323 254 268 612 c 1,5,6
 419 588 419 588 531.5 654 c 128,-1,7
 644 720 644 720 658.5 865 c 128,-1,8
 673 1010 673 1010 597 1109 c 128,-1,9
 521 1208 521 1208 384 1214.5 c 128,-1,10
 247 1221 247 1221 173.5 1163 c 128,-1,11
 100 1105 100 1105 89 974 c 1,12,-1
 258 973 l 1,13,14
 283 1046 283 1046 371 1033 c 128,-1,15
 459 1020 459 1020 471 899 c 1,16,17
 469 762 469 762 196 790 c 1,18,-1
 79 798 l 1,19,-1
 78 625 l 1,20,21
 96 356 96 356 236 195.5 c 128,-1,22
 376 35 376 35 602 2 c 1,23,24
 981 -42 981 -42 1181 222 c 1,25,26
 1244 -3 1244 -3 1488 -16 c 1,27,28
 1785 -26 1785 -26 1816 307 c 1,29,30
 1802 606 1802 606 1494 625 c 1,31,32
 1360 620 1360 620 1289 545 c 1,33,34
 1340 907 1340 907 1110 1322 c 1,35,-1
 962 1213 l 1,36,0
 1091 913 1091 913 1097 709.5 c 128,-1,1
1609 404 m 128,-1,38
 1646 370 1646 370 1656 296 c 1,39,40
 1646 223 1646 223 1609 189.5 c 128,-1,41
 1572 156 1572 156 1493 146 c 1,42,43
 1418 156 1418 156 1381 189.5 c 128,-1,44
 1344 223 1344 223 1334 296 c 1,45,46
 1344 370 1344 370 1381 409 c 128,-1,47
 1418 448 1418 448 1493 448 c 1,48,37
 1572 438 1572 438 1609 404 c 128,-1,38
EndSplineSet
EndChar

StartChar: Idieresis
Encoding: 207 207 128
Width: 1514
Flags: W
LayerCount: 2
Fore
SplineSet
82 1013 m 1,1,-1
 258 893 l 1,2,3
 354 1099 354 1099 529 1089 c 128,-1,4
 704 1079 704 1079 738.5 900 c 128,-1,5
 773 721 773 721 646.5 525 c 128,-1,6
 520 329 520 329 215 0 c 1,7,-1
 459 0 l 1,8,-1
 590 137 l 1,9,-1
 723 295 l 1,10,11
 752 41 752 41 1000 -13 c 1,12,13
 1338 -45 1338 -45 1407 234 c 1,14,15
 1431 525 1431 525 1208 597 c 0,16,17
 1023 660 1023 660 889 576 c 1,18,19
 1025 849 1025 849 931.5 1069 c 128,-1,20
 838 1289 838 1289 555 1309 c 1,21,0
 219 1321 219 1321 82 1013 c 1,1,-1
1191.5 409 m 128,-1,23
 1231 370 1231 370 1241 296 c 1,24,25
 1231 223 1231 223 1186.5 184.5 c 128,-1,26
 1142 146 1142 146 1072 146 c 0,27,28
 1004 146 1004 146 959.5 179 c 128,-1,29
 915 212 915 212 905 284 c 1,30,31
 905 358 905 358 949.5 403 c 128,-1,32
 994 448 994 448 1072 448 c 0,33,22
 1152 448 1152 448 1191.5 409 c 128,-1,23
EndSplineSet
EndChar

StartChar: Eth
Encoding: 208 208 129
Width: 1410
Flags: W
LayerCount: 2
Fore
SplineSet
739 1078 m 1,0,1
 544 1210 544 1210 341 1151.5 c 128,-1,2
 138 1093 138 1093 99.5 898.5 c 128,-1,3
 61 704 61 704 130 564 c 128,-1,4
 199 424 199 424 355.5 301 c 128,-1,5
 512 178 512 178 914 -10 c 1,6,-1
 915 161 l 1,7,8
 579 328 579 328 450.5 435.5 c 128,-1,9
 322 543 322 543 281.5 670.5 c 128,-1,10
 241 798 241 798 299 887 c 128,-1,11
 357 976 357 976 440.5 983 c 128,-1,12
 524 990 524 990 628 940 c 128,-1,13
 732 890 732 890 730 716 c 1,14,-1
 897 668 l 1,15,-1
 897 787 l 1,16,17
 966 750 966 750 1036 750 c 1,18,19
 1312 778 1312 778 1318 1034 c 1,20,21
 1307 1281 1307 1281 1032 1313 c 1,22,23
 755 1294 755 1294 739 1078 c 1,0,1
1137.5 1126 m 128,-1,25
 1181 1086 1181 1086 1181 1027 c 0,26,27
 1181 970 1181 970 1137.5 930.5 c 128,-1,28
 1094 891 1094 891 1031 891 c 0,29,30
 970 891 970 891 926.5 930.5 c 128,-1,31
 883 970 883 970 883 1027 c 0,32,33
 883 1086 883 1086 926.5 1126 c 128,-1,34
 970 1166 970 1166 1031 1166 c 0,35,24
 1094 1166 1094 1166 1137.5 1126 c 128,-1,25
EndSplineSet
EndChar

StartChar: Ntilde
Encoding: 209 209 130
Width: 200
Flags: W
LayerCount: 2
Fore
SplineSet
100 1700 m 1,0,1
 189 1672 189 1672 100 1581 c 1,2,3
 -8 1615 -8 1615 -6.5 1529 c 128,-1,4
 -5 1443 -5 1443 20 1348 c 1,5,6
 102 1408 102 1408 174 1456 c 1,7,8
 170 1592 170 1592 218.5 1655 c 128,-1,9
 267 1718 267 1718 337 1706 c 1,10,11
 400 1683 400 1683 408.5 1626 c 128,-1,12
 417 1569 417 1569 389 1522 c 128,-1,13
 361 1475 361 1475 309 1431 c 1,14,15
 317 1346 317 1346 329 1314.5 c 128,-1,16
 341 1283 341 1283 353 1191 c 1,17,18
 357 1069 357 1069 287.5 1022 c 128,-1,19
 218 975 218 975 143 993 c 1,20,21
 93 1000 93 1000 71.5 1036.5 c 128,-1,22
 50 1073 50 1073 63 1103 c 128,-1,23
 76 1133 76 1133 152 1115 c 1,24,25
 226 1112 226 1112 230 1188 c 0,26,27
 233 1264 233 1264 202 1339 c 1,28,29
 108 1276 108 1276 16 1198 c 1,30,31
 13 1097 13 1097 -36.5 1037.5 c 128,-1,32
 -86 978 -86 978 -154 999 c 1,33,34
 -198 1008 -198 1008 -214 1055 c 128,-1,35
 -230 1102 -230 1102 -204 1165 c 128,-1,36
 -178 1228 -178 1228 -89 1265 c 1,37,38
 -104 1385 -104 1385 -126 1491 c 1,39,40
 -140 1611 -140 1611 -79.5 1670.5 c 128,-1,41
 -19 1730 -19 1730 100 1700 c 1,0,1
EndSplineSet
EndChar

StartChar: Ograve
Encoding: 210 210 131
Width: 1200
Flags: W
LayerCount: 2
Fore
SplineSet
99 1217 m 1,0,-1
 1152 1215 l 1,1,-1
 1145 1098 l 1,2,-1
 564 -156 l 1,3,4
 463 -261 463 -261 363 -152 c 1,5,-1
 97 1015 l 1,6,-1
 99 1217 l 1,0,-1
331 991 m 1,7,-1
 497 232 l 1,8,-1
 845 992 l 1,9,-1
 331 991 l 1,7,-1
1102 703 m 1,10,-1
 1096 530 l 1,11,-1
 51 530 l 1,12,-1
 55 703 l 1,13,-1
 1102 703 l 1,10,-1
EndSplineSet
EndChar

StartChar: Oacute
Encoding: 211 211 132
Width: 1500
Flags: W
LayerCount: 2
Fore
SplineSet
790 625 m 1,0,1
 610 651 610 651 551.5 564 c 128,-1,2
 493 477 493 477 515 356 c 1,3,-1
 667 356 l 1,4,-1
 892 356 l 1,5,6
 863 578 863 578 989 711.5 c 128,-1,7
 1115 845 1115 845 1432 800 c 1,8,-1
 1369 624 l 1,9,10
 1183 644 1183 644 1124 564 c 128,-1,11
 1065 484 1065 484 1088 356 c 1,12,-1
 1367 352 l 1,13,-1
 1315 187 l 1,14,-1
 1078 187 l 1,15,-1
 1088 -195 l 1,16,-1
 883 -205 l 1,17,-1
 883 193 l 1,18,-1
 520 191 l 1,19,-1
 514 -201 l 1,20,-1
 319 -208 l 1,21,-1
 319 181 l 1,22,-1
 91 181 l 1,23,-1
 130 357 l 1,24,-1
 311 358 l 1,25,26
 298 596 298 596 421.5 721.5 c 128,-1,27
 545 847 545 847 862 792 c 1,28,-1
 790 625 l 1,0,1
EndSplineSet
EndChar

StartChar: Ocircumflex
Encoding: 212 212 133
Width: 1400
Flags: W
LayerCount: 2
Fore
SplineSet
1278 205 m 1,0,-1
 1111 205 l 1,1,-1
 1111 -201 l 1,2,-1
 897 -201 l 1,3,-1
 898 206 l 1,4,-1
 508 208 l 1,5,-1
 476 -204 l 1,6,-1
 269 -205 l 1,7,-1
 297 210 l 1,8,-1
 91 211 l 1,9,-1
 126 395 l 1,10,-1
 300 395 l 1,11,12
 296 851 296 851 741 819 c 1,13,14
 1112 816 1112 816 1110 508 c 1,15,-1
 1119 396 l 1,16,-1
 1327 395 l 1,17,-1
 1278 205 l 1,0,-1
511 391 m 1,18,-1
 909 391 l 1,19,-1
 899 488 l 1,20,21
 896 621 896 621 763 613 c 1,22,-1
 637 610 l 1,23,24
 529 598 529 598 519 490 c 2,25,-1
 511 391 l 1,18,-1
EndSplineSet
EndChar

StartChar: Odieresis
Encoding: 214 214 134
Width: 1800
Flags: W
LayerCount: 2
Fore
SplineSet
391 578 m 1,0,-1
 668 578 l 1,1,-1
 668 1208 l 1,2,-1
 1403 1208 l 1,3,-1
 1404 1009 l 1,4,-1
 872 1007 l 1,5,-1
 872 572 l 1,6,-1
 1246 572 l 1,7,8
 1458 562 1458 562 1468 362 c 1,9,-1
 1468 13 l 1,10,-1
 1725 12 l 1,11,12
 1710 -201 1710 -201 1481.5 -204 c 128,-1,13
 1253 -207 1253 -207 1256 -3 c 2,14,-1
 1256 269 l 1,15,16
 1267 383 1267 383 1127 371 c 1,17,-1
 870 371 l 1,18,-1
 869 102 l 1,19,-1
 867 -202 l 1,20,-1
 99 -204 l 1,21,-1
 93 3 l 1,22,-1
 663 3 l 1,23,-1
 663 373 l 1,24,-1
 398 372 l 1,25,-1
 391 578 l 1,0,-1
EndSplineSet
EndChar

StartChar: multiply
Encoding: 215 215 135
Width: 1200
Flags: W
LayerCount: 2
Fore
SplineSet
321 364 m 1,0,-1
 481 376 l 1,1,-1
 481 476 l 2,2,3
 483 807 483 807 804 814 c 0,4,5
 925 814 925 814 1023 737 c 1,6,-1
 978 566 l 1,7,8
 903 643 903 643 802 644 c 0,9,10
 652 649 652 649 654 427 c 2,11,-1
 654 385 l 1,12,-1
 754 385 l 1,13,14
 887 398 887 398 996.5 339 c 128,-1,15
 1106 280 1106 280 1124 118.5 c 128,-1,16
 1142 -43 1142 -43 1018 -204 c 1,17,-1
 853 -114 l 1,18,19
 976 -15 976 -15 958 110 c 0,20,21
 938 235 938 235 752 223 c 1,22,-1
 652 223 l 1,23,-1
 652 110 l 1,24,25
 636 -228 636 -228 319 -204 c 1,26,27
 198 -204 198 -204 88 -106 c 1,28,-1
 145 69 l 1,29,30
 219 -33 219 -33 318 -33 c 1,31,32
 478 -56 478 -56 478 159 c 2,33,-1
 478 213 l 1,34,-1
 342 199 l 1,35,-1
 321 364 l 1,0,-1
EndSplineSet
EndChar

StartChar: Oslash
Encoding: 216 216 136
Width: 1600
Flags: W
LayerCount: 2
Fore
SplineSet
302 1203 m 1,0,-1
 301 596 l 1,1,-1
 709 596 l 1,2,-1
 709 1197 l 1,3,-1
 1503 1197 l 1,4,-1
 1506 1000 l 1,5,-1
 912 998 l 1,6,-1
 912 590 l 1,7,-1
 1512 592 l 1,8,-1
 1515 -195 l 1,9,-1
 1305 -205 l 1,10,-1
 1302 402 l 1,11,-1
 909 402 l 1,12,-1
 907 -201 l 1,13,-1
 100 -203 l 1,14,-1
 94 2 l 1,15,-1
 704 2 l 1,16,-1
 704 404 l 1,17,-1
 87 402 l 1,18,-1
 87 1203 l 1,19,-1
 302 1203 l 1,0,-1
EndSplineSet
EndChar

StartChar: Ugrave
Encoding: 217 217 137
Width: 1200
Flags: W
LayerCount: 2
Fore
SplineSet
266 810 m 1,0,-1
 266 453 l 1,1,2
 253 369 253 369 344 382 c 1,3,-1
 521 382 l 1,4,-1
 521 641 l 2,5,6
 521 802 521 802 691 802 c 2,7,-1
 1102 802 l 1,8,-1
 1099 636 l 1,9,-1
 774 635 l 1,10,11
 681 647 681 647 693 568 c 1,12,-1
 693 378 l 1,13,-1
 940 378 l 2,14,15
 1112 379 1112 379 1112 215 c 2,16,-1
 1114 -200 l 1,17,-1
 938 -207 l 1,18,-1
 937 144 l 1,19,20
 948 230 948 230 863 218 c 1,21,-1
 691 218 l 1,22,-1
 691 -29 l 2,23,24
 689 -203 689 -203 509 -204 c 2,25,-1
 93 -205 l 1,26,-1
 88 -33 l 1,27,-1
 446 -33 l 1,28,29
 531 -45 531 -45 519 31 c 1,30,-1
 519 220 l 1,31,-1
 266 219 l 2,32,33
 87 218 87 218 87 395 c 2,34,-1
 87 810 l 1,35,-1
 266 810 l 1,0,-1
EndSplineSet
EndChar

StartChar: Uacute
Encoding: 218 218 138
Width: 1500
Flags: W
LayerCount: 2
Fore
SplineSet
590 949 m 1,0,-1
 1121 950 l 1,1,-1
 1115 761 l 1,2,-1
 715 761 l 1,3,-1
 715 -96 l 2,4,5
 718 -200 718 -200 629 -196 c 1,6,-1
 99 -196 l 1,7,-1
 94 -17 l 1,8,-1
 522 -17 l 1,9,-1
 523 857 l 2,10,11
 521 938 521 938 590 949 c 1,0,-1
918 1639.5 m 128,-1,13
 938 1576 938 1576 934 1521.5 c 128,-1,14
 930 1467 930 1467 928.5 1321.5 c 128,-1,15
 927 1176 927 1176 958.5 1151 c 128,-1,16
 990 1126 990 1126 1027.5 1148 c 128,-1,17
 1065 1170 1065 1170 1252 1717 c 1,18,-1
 1426 1713 l 1,19,-1
 1188 1092 l 2,20,21
 1136 952 1136 952 967.5 974.5 c 128,-1,22
 799 997 799 997 791 1151 c 1,23,24
 792 1420 792 1420 792 1489 c 128,-1,25
 792 1558 792 1558 765.5 1564 c 128,-1,26
 739 1570 739 1570 709.5 1541.5 c 128,-1,27
 680 1513 680 1513 660 1558.5 c 128,-1,28
 640 1604 640 1604 681 1658 c 128,-1,29
 722 1712 722 1712 810 1707.5 c 128,-1,12
 898 1703 898 1703 918 1639.5 c 128,-1,13
EndSplineSet
EndChar

StartChar: Ucircumflex
Encoding: 219 219 139
Width: 1100
Flags: W
LayerCount: 2
Fore
SplineSet
737 276 m 0,1,2
 702 58 702 58 658 1 c 128,-1,3
 614 -56 614 -56 537 -56 c 0,4,5
 461 -56 461 -56 417 1 c 128,-1,6
 373 58 373 58 334 277 c 1,7,8
 309 462 309 462 152 459 c 1,9,-1
 76 432 l 1,10,-1
 58 304 l 1,11,-1
 131 324 l 1,12,13
 198 349 198 349 220 242 c 1,14,15
 246 4 246 4 329 -107.5 c 128,-1,16
 412 -219 412 -219 535 -211 c 1,17,18
 657 -229 657 -229 746 -110.5 c 128,-1,19
 835 8 835 8 863 251 c 1,20,21
 867 355 867 355 937 327 c 1,22,-1
 1016 307 l 1,23,-1
 998 430 l 1,24,-1
 906 459 l 1,25,0
 765 464 765 464 737 276 c 0,1,2
906 548 m 1,26,-1
 998 565 l 1,27,-1
 1017 690 l 1,28,-1
 929 680 l 1,29,30
 867 659 867 659 856 755 c 0,31,32
 835 995 835 995 746 1108.5 c 128,-1,33
 657 1222 657 1222 535 1212 c 1,34,35
 404 1211 404 1211 325 1100 c 128,-1,36
 246 989 246 989 220 755 c 1,37,38
 199 667 199 667 131 682 c 1,39,-1
 58 693 l 1,40,-1
 76 565 l 1,41,-1
 152 548 l 1,42,43
 300 555 300 555 334 727 c 0,44,45
 373 945 373 945 418 1005.5 c 128,-1,46
 463 1066 463 1066 537 1066 c 0,47,48
 622 1068 622 1068 662 1006.5 c 128,-1,49
 702 945 702 945 737 729 c 0,50,51
 765 551 765 551 906 548 c 1,26,-1
EndSplineSet
EndChar

StartChar: Udieresis
Encoding: 220 220 140
Width: 800
Flags: W
LayerCount: 2
Fore
SplineSet
617 670 m 1,0,1
 419 672 419 672 315.5 731.5 c 128,-1,2
 212 791 212 791 209 895 c 0,3,4
 201 1071 201 1071 385 1088 c 0,5,6
 467 1095 467 1095 514 1071 c 1,7,8
 401 1063 401 1063 388 944 c 0,9,10
 370 785 370 785 539 760 c 1,11,12
 688 752 688 752 719 866 c 1,13,-1
 612 931 l 1,14,15
 618 862 618 862 547 869 c 1,16,17
 487 884 487 884 499.5 933.5 c 128,-1,18
 512 983 512 983 568.5 988.5 c 128,-1,19
 625 994 625 994 670 990 c 0,20,21
 733 984 733 984 697 1050 c 1,22,23
 679 1115 679 1115 582.5 1170 c 128,-1,24
 486 1225 486 1225 375 1213 c 1,25,26
 219 1204 219 1204 141 1109.5 c 128,-1,27
 63 1015 63 1015 75 883 c 0,28,29
 92 719 92 719 240.5 631.5 c 128,-1,30
 389 544 389 544 661 540 c 1,31,-1
 617 670 l 1,0,1
160 378 m 1,32,33
 384 357 384 357 492 291.5 c 128,-1,34
 600 226 600 226 595 121 c 0,35,36
 585 -52 585 -52 408 -68 c 0,37,38
 328 -75 328 -75 288 -52 c 1,39,40
 392 -42 392 -42 406 80 c 1,41,42
 431 241 431 241 255 274 c 1,43,44
 101 274 101 274 76 166 c 1,45,-1
 184 108 l 1,46,47
 178 164 178 164 246 157 c 1,48,49
 306 140 306 140 293.5 90 c 128,-1,50
 281 40 281 40 225.5 34 c 128,-1,51
 170 28 170 28 125 34 c 0,52,53
 55 38 55 38 97 -29 c 0,54,55
 149 -122 149 -122 232.5 -165.5 c 128,-1,56
 316 -209 316 -209 419 -205 c 1,57,58
 564 -213 564 -213 651 -103 c 128,-1,59
 738 7 738 7 727 123 c 1,60,61
 727 309 727 309 565.5 403 c 128,-1,62
 404 497 404 497 106 509 c 1,63,-1
 160 378 l 1,32,33
EndSplineSet
EndChar

StartChar: Yacute
Encoding: 221 221 141
Width: 700
Flags: W
LayerCount: 2
Fore
SplineSet
72 380 m 1,0,1
 215 315 215 315 262 220 c 1,2,3
 198 148 198 148 166.5 76 c 128,-1,4
 135 4 135 4 159 -68.5 c 128,-1,5
 183 -141 183 -141 237 -177 c 128,-1,6
 291 -213 291 -213 374 -213.5 c 128,-1,7
 457 -214 457 -214 511 -177 c 128,-1,8
 565 -140 565 -140 588 -72.5 c 128,-1,9
 611 -5 611 -5 582.5 71.5 c 128,-1,10
 554 148 554 148 477 220 c 1,11,12
 540 333 540 333 635 378 c 1,13,-1
 525 502 l 1,14,15
 450 459 450 459 368 329 c 1,16,17
 291 450 291 450 172 513 c 1,18,-1
 72 380 l 1,0,1
373 141 m 1,19,20
 482 18 482 18 425 -54 c 128,-1,21
 368 -126 368 -126 315 -53 c 128,-1,22
 262 20 262 20 373 141 c 1,19,20
172 525 m 1,23,24
 291 578 291 578 368 695 c 1,25,26
 450 570 450 570 525 526 c 1,27,-1
 635 647 l 1,28,29
 527 703 527 703 477 801 c 1,30,31
 543 872 543 872 571.5 942 c 128,-1,32
 600 1012 600 1012 582.5 1082.5 c 128,-1,33
 565 1153 565 1153 511 1189.5 c 128,-1,34
 457 1226 457 1226 379 1225.5 c 128,-1,35
 301 1225 301 1225 247 1189.5 c 128,-1,36
 193 1154 193 1154 169.5 1084 c 128,-1,37
 146 1014 146 1014 176 942.5 c 128,-1,38
 206 871 206 871 262 801 c 1,39,40
 215 709 215 709 72 644 c 1,41,-1
 172 525 l 1,23,24
322.5 1055.5 m 128,-1,43
 375 1120 375 1120 429 1055.5 c 128,-1,44
 483 991 483 991 371 882 c 1,45,42
 270 991 270 991 322.5 1055.5 c 128,-1,43
EndSplineSet
EndChar

StartChar: Thorn
Encoding: 222 222 142
Width: 700
Flags: W
LayerCount: 2
Fore
SplineSet
435 442 m 1,0,1
 434 288 434 288 429 208 c 1,2,3
 437 144 437 144 327 121 c 128,-1,4
 217 98 217 98 227 5 c 1,5,6
 250 -75 250 -75 347 -71 c 1,7,8
 459 -77 459 -77 471 48 c 1,9,-1
 615 58 l 1,10,11
 634 -24 634 -24 593 -93 c 0,12,13
 506 -232 506 -232 350 -221 c 1,14,15
 220 -225 220 -225 145 -158.5 c 128,-1,16
 70 -92 70 -92 68 5 c 1,17,18
 50 78 50 78 97 148 c 128,-1,19
 144 218 144 218 269 245 c 1,20,21
 277 319 277 319 275 446 c 1,22,-1
 435 442 l 1,0,1
278 572 m 1,23,24
 279 715 279 715 283 785 c 1,25,26
 276 847 276 847 376.5 870 c 128,-1,27
 477 893 477 893 478 994 c 1,28,29
 466 1083 466 1083 363 1078 c 0,30,31
 246 1075 246 1075 233 951 c 1,32,-1
 95 941 l 1,33,34
 76 1023 76 1023 115 1090 c 1,35,36
 170 1217 170 1217 359 1227 c 1,37,38
 515 1220 515 1220 577 1150 c 128,-1,39
 639 1080 639 1080 631 994 c 1,40,41
 639 922 639 922 598.5 853 c 128,-1,42
 558 784 558 784 438 757 c 1,43,44
 430 684 430 684 432 568 c 1,45,-1
 278 572 l 1,23,24
EndSplineSet
EndChar

StartChar: germandbls
Encoding: 223 223 143
Width: 800
Flags: W
LayerCount: 2
Fore
SplineSet
467 479 m 1,1,2
 444 310 444 310 419.5 267 c 128,-1,3
 395 224 395 224 354 200.5 c 128,-1,4
 313 177 313 177 261 165 c 128,-1,5
 209 153 209 153 211.5 107.5 c 128,-1,6
 214 62 214 62 237 -197 c 1,7,-1
 93 -202 l 1,8,-1
 83 184 l 1,9,10
 96 245 96 245 131.5 257.5 c 128,-1,11
 167 270 167 270 209 275.5 c 128,-1,12
 251 281 251 281 290.5 309.5 c 128,-1,13
 330 338 330 338 316 446 c 1,14,0
 373 510 373 510 467 479 c 1,1,2
330 560 m 1,16,17
 352 706 352 706 376 748 c 128,-1,18
 400 790 400 790 441 813 c 128,-1,19
 482 836 482 836 533 847.5 c 128,-1,20
 584 859 584 859 582 904.5 c 128,-1,21
 580 950 580 950 556 1214 c 1,22,-1
 699 1219 l 1,23,-1
 709 830 l 1,24,25
 696 769 696 769 660.5 756.5 c 128,-1,26
 625 744 625 744 584 739 c 128,-1,27
 543 734 543 734 503.5 705.5 c 128,-1,28
 464 677 464 677 478 592 c 1,29,15
 423 530 423 530 330 560 c 1,16,17
EndSplineSet
EndChar

StartChar: agrave
Encoding: 224 224 144
Width: 1200
Flags: W
LayerCount: 2
Fore
SplineSet
225 491 m 0,0,1
 299 491 299 491 334 446.5 c 128,-1,2
 369 402 369 402 377.5 308 c 128,-1,3
 386 214 386 214 420 107.5 c 128,-1,4
 454 1 454 1 499 -42.5 c 128,-1,5
 544 -86 544 -86 595 -85 c 1,6,7
 648 -91 648 -91 693.5 -48.5 c 128,-1,8
 739 -6 739 -6 770 105 c 128,-1,9
 801 216 801 216 808 309.5 c 128,-1,10
 815 403 815 403 858 449.5 c 128,-1,11
 901 496 901 496 962 493 c 1,12,13
 1067 495 1067 495 1106 435 c 1,14,-1
 1052 335 l 1,15,16
 1010 379 1010 379 975 372.5 c 128,-1,17
 940 366 940 366 932.5 287 c 128,-1,18
 925 208 925 208 900 100.5 c 128,-1,19
 875 -7 875 -7 835.5 -72 c 128,-1,20
 796 -137 796 -137 737 -176 c 128,-1,21
 678 -215 678 -215 594 -212 c 1,22,23
 512 -214 512 -214 458 -175.5 c 128,-1,24
 404 -137 404 -137 364 -70 c 128,-1,25
 324 -3 324 -3 296 99.5 c 128,-1,26
 268 202 268 202 258.5 281 c 128,-1,27
 249 360 249 360 224.5 371 c 128,-1,28
 200 382 200 382 140 337 c 1,29,-1
 95 437 l 1,30,31
 144 495 144 495 225 491 c 0,0,1
225 1215 m 1,32,33
 299 1215 299 1215 334 1171.5 c 128,-1,34
 369 1128 369 1128 377.5 1036 c 128,-1,35
 386 944 386 944 420 841 c 128,-1,36
 454 738 454 738 499 695 c 128,-1,37
 544 652 544 652 595 653 c 1,38,39
 648 646 648 646 693.5 688 c 128,-1,40
 739 730 739 730 770 838.5 c 128,-1,41
 801 947 801 947 808 1038.5 c 128,-1,42
 815 1130 815 1130 858 1175 c 128,-1,43
 901 1220 901 1220 962 1217 c 1,44,45
 1067 1219 1067 1219 1106 1161 c 1,46,-1
 1052 1062 l 1,47,48
 1010 1106 1010 1106 975 1099 c 128,-1,49
 940 1092 940 1092 932.5 1015.5 c 128,-1,50
 925 939 925 939 900 834 c 128,-1,51
 875 729 875 729 835.5 665.5 c 128,-1,52
 796 602 796 602 737 564 c 128,-1,53
 678 526 678 526 594 529 c 1,54,55
 512 527 512 527 458 565 c 128,-1,56
 404 603 404 603 364 667.5 c 128,-1,57
 324 732 324 732 296 832.5 c 128,-1,58
 268 933 268 933 258.5 1010 c 128,-1,59
 249 1087 249 1087 224.5 1098 c 128,-1,60
 200 1109 200 1109 140 1064 c 1,61,-1
 95 1163 l 1,62,63
 144 1220 144 1220 225 1215 c 1,32,33
EndSplineSet
EndChar

StartChar: aacute
Encoding: 225 225 145
Width: 800
Flags: W
LayerCount: 2
Fore
SplineSet
179 1087 m 1,0,1
 373 1103 373 1103 482.5 1035 c 128,-1,2
 592 967 592 967 585 854 c 1,3,4
 583 680 583 680 406 664 c 0,5,6
 323 656 323 656 276 680 c 1,7,8
 390 688 390 688 412 806 c 1,9,10
 421 973 421 973 248 987 c 0,11,12
 97 996 97 996 75 863 c 1,13,-1
 184 817 l 1,14,15
 178 878 178 878 240 880 c 1,16,17
 303 865 303 865 290.5 816 c 128,-1,18
 278 767 278 767 219.5 761.5 c 128,-1,19
 161 756 161 756 116 761 c 0,20,21
 53 766 53 766 89 700 c 1,22,23
 107 636 107 636 205 586 c 128,-1,24
 303 536 303 536 415 539 c 0,25,26
 573 547 573 547 648.5 641 c 128,-1,27
 724 735 724 735 722 839 c 1,28,29
 731 1021 731 1021 584.5 1129.5 c 128,-1,30
 438 1238 438 1238 115 1224 c 1,31,-1
 179 1087 l 1,0,1
184 356 m 1,32,33
 409 347 409 347 497.5 279 c 128,-1,34
 586 211 586 211 591 124 c 1,35,36
 590 -44 590 -44 417 -78 c 1,37,38
 325 -75 325 -75 276 -53 c 1,39,40
 391 -43 391 -43 414 75 c 0,41,42
 441 233 441 233 251 266 c 1,43,44
 92 276 92 276 66 150 c 1,45,-1
 177 103 l 1,46,47
 171 158 171 158 242 150 c 1,48,49
 304 134 304 134 290.5 85 c 128,-1,50
 277 36 277 36 219.5 29.5 c 128,-1,51
 162 23 162 23 116 31 c 1,52,53
 45 35 45 35 89 -32 c 1,54,55
 140 -121 140 -121 226.5 -164 c 128,-1,56
 313 -207 313 -207 418 -203 c 1,57,58
 559 -212 559 -212 648.5 -113.5 c 128,-1,59
 738 -15 738 -15 734 135 c 0,60,61
 734 283 734 283 591.5 387.5 c 128,-1,62
 449 492 449 492 114 496 c 1,63,-1
 184 356 l 1,32,33
EndSplineSet
EndChar

StartChar: acircumflex
Encoding: 226 226 146
Width: 700
Flags: W
LayerCount: 2
Fore
SplineSet
71 361 m 1,0,1
 223 307 223 307 265 207 c 1,2,3
 206 137 206 137 177.5 67 c 128,-1,4
 149 -3 149 -3 171 -72 c 128,-1,5
 193 -141 193 -141 242.5 -176 c 128,-1,6
 292 -211 292 -211 368.5 -211.5 c 128,-1,7
 445 -212 445 -212 495 -176 c 128,-1,8
 545 -140 545 -140 566 -75.5 c 128,-1,9
 587 -11 587 -11 561 63 c 128,-1,10
 535 137 535 137 463 206 c 1,11,12
 522 315 522 315 628 358 c 1,13,-1
 558 479 l 1,14,15
 438 437 438 437 363 311 c 1,16,17
 292 437 292 437 133 489 c 1,18,-1
 71 361 l 1,0,1
368 131 m 1,19,20
 468 11 468 11 415.5 -58 c 128,-1,21
 363 -127 363 -127 313.5 -57 c 128,-1,22
 264 13 264 13 368 131 c 1,19,20
71 1084 m 1,23,24
 223 1030 223 1030 265 930 c 1,25,26
 206 861 206 861 177.5 791 c 128,-1,27
 149 721 149 721 171 651 c 128,-1,28
 193 581 193 581 242.5 546.5 c 128,-1,29
 292 512 292 512 368.5 512 c 128,-1,30
 445 512 445 512 495 547 c 128,-1,31
 545 582 545 582 566 648 c 128,-1,32
 587 714 587 714 561 787 c 128,-1,33
 535 860 535 860 463 929 c 1,34,35
 522 1039 522 1039 628 1081 c 1,36,-1
 558 1202 l 1,37,38
 438 1160 438 1160 363 1035 c 1,39,40
 292 1159 292 1159 133 1212 c 1,41,-1
 71 1084 l 1,23,24
368 855 m 1,42,43
 468 735 468 735 415.5 665.5 c 128,-1,44
 363 596 363 596 313.5 666 c 128,-1,45
 264 736 264 736 368 855 c 1,42,43
EndSplineSet
EndChar

StartChar: atilde
Encoding: 227 227 147
Width: 700
Flags: W
LayerCount: 2
Fore
SplineSet
147 500 m 2,0,-1
 605 499 l 1,1,2
 663 493 663 493 620 396 c 1,3,-1
 322 -203 l 1,4,-1
 236 -200 l 1,5,-1
 77 400 l 2,6,7
 54 501 54 501 147 500 c 2,0,-1
205 365 m 1,8,-1
 297 11 l 1,9,-1
 480 366 l 1,10,-1
 205 365 l 1,8,-1
551 542 m 2,11,-1
 104 544 l 1,12,13
 37 550 37 550 80 645 c 1,14,-1
 376 1212 l 1,15,-1
 462 1210 l 1,16,-1
 620 642 l 1,17,18
 643 540 643 540 551 542 c 2,11,-1
494 668 m 1,19,-1
 402 1001 l 1,20,-1
 220 667 l 1,21,-1
 494 668 l 1,19,-1
EndSplineSet
EndChar

StartChar: adieresis
Encoding: 228 228 148
Width: 300
Flags: W
LayerCount: 2
Fore
SplineSet
7 1673.5 m 128,-1,1
 35 1645 35 1645 42.5 1560.5 c 128,-1,2
 50 1476 50 1476 43.5 1313.5 c 128,-1,3
 37 1151 37 1151 67.5 1132 c 128,-1,4
 98 1113 98 1113 130 1129 c 128,-1,5
 162 1145 162 1145 336 1708 c 1,6,-1
 486 1709 l 1,7,-1
 261 1086 l 1,8,9
 209 972 209 972 74 988.5 c 128,-1,10
 -61 1005 -61 1005 -78 1147 c 1,11,12
 -77 1430 -77 1430 -77 1504.5 c 128,-1,13
 -77 1579 -77 1579 -104.5 1586 c 128,-1,14
 -132 1593 -132 1593 -168 1558 c 128,-1,15
 -204 1523 -204 1523 -212 1569 c 128,-1,16
 -220 1615 -220 1615 -190.5 1661.5 c 128,-1,17
 -161 1708 -161 1708 -91 1705 c 128,-1,0
 -21 1702 -21 1702 7 1673.5 c 128,-1,1
EndSplineSet
EndChar

StartChar: aring
Encoding: 229 229 149
Width: 200
Flags: W
LayerCount: 2
Fore
SplineSet
358 1699 m 1,0,1
 415 1677 415 1677 417.5 1619.5 c 128,-1,2
 420 1562 420 1562 367 1546 c 1,3,4
 300 1581 300 1581 258.5 1553.5 c 128,-1,5
 217 1526 217 1526 178.5 1338 c 128,-1,6
 140 1150 140 1150 100 1084.5 c 128,-1,7
 60 1019 60 1019 -6 1001.5 c 128,-1,8
 -72 984 -72 984 -159 1012 c 1,9,10
 -207 1033 -207 1033 -210.5 1086 c 128,-1,11
 -214 1139 -214 1139 -155 1160 c 1,12,13
 -78 1122 -78 1122 -33.5 1154.5 c 128,-1,14
 11 1187 11 1187 49 1372 c 128,-1,15
 87 1557 87 1557 123 1615.5 c 128,-1,16
 159 1674 159 1674 220 1697.5 c 128,-1,17
 281 1721 281 1721 358 1699 c 1,0,1
EndSplineSet
EndChar

StartChar: ae
Encoding: 230 230 150
Width: 1500
Flags: W
LayerCount: 2
Fore
SplineSet
802 638 m 1,0,1
 622 654 622 654 558 561.5 c 128,-1,2
 494 469 494 469 507 357 c 1,3,-1
 669 357 l 1,4,-1
 895 357 l 1,5,6
 876 580 876 580 1002 714 c 128,-1,7
 1128 848 1128 848 1436 803 c 1,8,-1
 1382 636 l 1,9,10
 1196 656 1196 656 1137 571 c 128,-1,11
 1078 486 1078 486 1091 357 c 1,12,-1
 1411 354 l 1,13,-1
 1359 188 l 1,14,-1
 1071 188 l 1,15,-1
 1071 -194 l 1,16,-1
 866 -204 l 1,17,-1
 876 195 l 1,18,-1
 502 192 l 1,19,-1
 495 -201 l 1,20,-1
 300 -208 l 1,21,-1
 310 182 l 1,22,-1
 81 182 l 1,23,-1
 120 359 l 1,24,-1
 312 360 l 1,25,26
 309 599 309 599 443 719.5 c 128,-1,27
 577 840 577 840 865 795 c 1,28,-1
 802 638 l 1,0,1
EndSplineSet
EndChar

StartChar: ccedilla
Encoding: 231 231 151
Width: 1400
Flags: W
LayerCount: 2
Fore
SplineSet
1272 196 m 1,0,-1
 1109 196 l 1,1,-1
 1097 -201 l 1,2,-1
 885 -201 l 1,3,-1
 887 198 l 1,4,-1
 502 199 l 1,5,-1
 489 -204 l 1,6,-1
 285 -205 l 1,7,-1
 293 201 l 1,8,-1
 80 203 l 1,9,-1
 114 385 l 1,10,-1
 306 385 l 1,11,12
 282 791 282 791 603 818 c 1,13,-1
 807 816 l 1,14,15
 1107 806 1107 806 1116 493 c 1,16,-1
 1114 386 l 1,17,-1
 1319 385 l 1,18,-1
 1272 196 l 1,0,-1
514 381 m 1,19,-1
 897 381 l 1,20,21
 944 628 944 628 699 608 c 1,22,23
 503 615 503 615 514 381 c 1,19,-1
EndSplineSet
EndChar

StartChar: ecircumflex
Encoding: 234 234 152
Width: 300
Flags: W
LayerCount: 2
Fore
SplineSet
160.5 1686.5 m 128,-1,1
 219 1663 219 1663 242.5 1594.5 c 128,-1,2
 266 1526 266 1526 228 1465 c 1,3,4
 330 1471 330 1471 379 1417 c 128,-1,5
 428 1363 428 1363 428 1309.5 c 128,-1,6
 428 1256 428 1256 411 1205 c 128,-1,7
 394 1154 394 1154 349 1101.5 c 128,-1,8
 304 1049 304 1049 248 1019 c 128,-1,9
 192 989 192 989 142 979 c 128,-1,10
 92 969 92 969 30.5 972.5 c 128,-1,11
 -31 976 -31 976 -67.5 996 c 128,-1,12
 -104 1016 -104 1016 -121.5 1043 c 128,-1,13
 -139 1070 -139 1070 -133.5 1122.5 c 128,-1,14
 -128 1175 -128 1175 -79.5 1219.5 c 128,-1,15
 -31 1264 -31 1264 71 1283.5 c 128,-1,16
 173 1303 173 1303 298 1278 c 1,17,18
 297 1345 297 1345 224.5 1362.5 c 128,-1,19
 152 1380 152 1380 77 1342.5 c 128,-1,20
 2 1305 2 1305 -39 1421 c 1,21,22
 37 1450 37 1450 71 1464.5 c 128,-1,23
 105 1479 105 1479 123.5 1505 c 128,-1,24
 142 1531 142 1531 130.5 1559.5 c 128,-1,25
 119 1588 119 1588 81 1592 c 128,-1,26
 43 1596 43 1596 15 1570 c 128,-1,27
 -13 1544 -13 1544 -39 1495 c 1,28,-1
 -114 1588 l 1,29,30
 -54 1688 -54 1688 24 1699 c 128,-1,0
 102 1710 102 1710 160.5 1686.5 c 128,-1,1
52.5 1076 m 128,-1,32
 103 1079 103 1079 164.5 1103.5 c 128,-1,33
 226 1128 226 1128 281 1198 c 1,34,35
 177 1216 177 1216 108 1200 c 128,-1,36
 39 1184 39 1184 8.5 1157.5 c 128,-1,37
 -22 1131 -22 1131 -10 1102 c 128,-1,31
 2 1073 2 1073 52.5 1076 c 128,-1,32
EndSplineSet
EndChar

StartChar: edieresis
Encoding: 235 235 153
Width: 200
Flags: W
LayerCount: 2
Fore
SplineSet
363 1709 m 1,0,1
 424 1671 424 1671 394 1583 c 1,2,3
 301 1604 301 1604 283.5 1537 c 128,-1,4
 266 1470 266 1470 259 1000 c 1,5,-1
 117 998 l 1,6,-1
 126 1421 l 1,7,8
 63 1470 63 1470 10.5 1447.5 c 128,-1,9
 -42 1425 -42 1425 -38.5 1318.5 c 128,-1,10
 -35 1212 -35 1212 -64 1103 c 1,11,12
 -84 1005 -84 1005 -182 1001 c 0,13,14
 -249 1000 -249 1000 -281.5 1023 c 128,-1,15
 -314 1046 -314 1046 -303 1140 c 1,16,17
 -203 1096 -203 1096 -181 1157.5 c 128,-1,18
 -159 1219 -159 1219 -162 1352 c 1,19,20
 -160 1480 -160 1480 -111.5 1529 c 128,-1,21
 -63 1578 -63 1578 8 1586 c 128,-1,22
 79 1594 79 1594 148 1563 c 1,23,24
 160 1724 160 1724 363 1709 c 1,0,1
EndSplineSet
EndChar

StartChar: igrave
Encoding: 236 236 154
Width: 200
Flags: W
LayerCount: 2
Fore
SplineSet
27 1712 m 0,0,1
 149 1715 149 1715 213 1649.5 c 128,-1,2
 277 1584 277 1584 287 1475 c 1,3,-1
 398 1523 l 1,4,-1
 413 1402 l 1,5,6
 352 1361 352 1361 309 1345 c 1,7,8
 317 1211 317 1211 261 1103 c 0,9,10
 196 986 196 986 24 990 c 0,11,12
 -122 995 -122 995 -222 1076 c 1,13,-1
 -187 1199 l 1,14,15
 -50 1115 -50 1115 26 1123 c 1,16,17
 94 1115 94 1115 136 1161 c 128,-1,18
 178 1207 178 1207 172 1283 c 1,19,20
 87 1252 87 1252 18 1252 c 1,21,22
 -85 1264 -85 1264 -141.5 1319.5 c 128,-1,23
 -198 1375 -198 1375 -209 1475 c 0,24,25
 -216 1568 -216 1568 -154.5 1640 c 128,-1,26
 -93 1712 -93 1712 27 1712 c 0,0,1
-74 1475 m 1,27,28
 -69 1393 -69 1393 28 1381 c 1,29,30
 93 1385 93 1385 162 1425 c 1,31,32
 151 1506 151 1506 125 1542.5 c 128,-1,33
 99 1579 99 1579 22 1584 c 1,34,35
 -70 1575 -70 1575 -74 1475 c 1,27,28
EndSplineSet
EndChar

StartChar: iacute
Encoding: 237 237 155
Width: 400
Flags: W
LayerCount: 2
Fore
SplineSet
483 1701 m 1,0,-1
 411 1391 l 1,1,2
 487 1388 487 1388 531 1333.5 c 128,-1,3
 575 1279 575 1279 573 1217 c 1,4,5
 589 1113 589 1113 525.5 1041 c 128,-1,6
 462 969 462 969 339 975 c 0,7,8
 246 980 246 980 193 1041 c 1,9,10
 160 982 160 982 48 972 c 1,11,12
 -53 969 -53 969 -115.5 1032 c 128,-1,13
 -178 1095 -178 1095 -179 1201 c 0,14,15
 -179 1305 -179 1305 -109 1361 c 128,-1,16
 -39 1417 -39 1417 52 1408 c 0,17,18
 159 1402 159 1402 200 1336 c 1,19,20
 221 1369 221 1369 262 1387 c 1,21,-1
 343 1700 l 1,22,-1
 483 1701 l 1,0,-1
263 1183 m 1,23,24
 277 1095 277 1095 370 1095 c 1,25,26
 448 1105 448 1105 455 1183 c 0,27,28
 460 1267 460 1267 371 1282 c 1,29,30
 261 1276 261 1276 263 1183 c 1,23,24
-58 1183 m 1,31,32
 -45 1095 -45 1095 48 1095 c 1,33,34
 126 1105 126 1105 133 1183 c 0,35,36
 138 1267 138 1267 49 1282 c 1,37,38
 -61 1276 -61 1276 -58 1183 c 1,31,32
EndSplineSet
EndChar

StartChar: icircumflex
Encoding: 238 238 156
Width: 200
Flags: W
LayerCount: 2
Fore
SplineSet
61 1710 m 1,0,1
 196 1716 196 1716 264 1635.5 c 128,-1,2
 332 1555 332 1555 313 1485 c 1,3,-1
 193 1483 l 1,4,5
 180 1536 180 1536 147 1556.5 c 128,-1,6
 114 1577 114 1577 61 1577 c 0,7,8
 -66 1580 -66 1580 -74 1469 c 1,9,10
 -64 1362 -64 1362 50 1369 c 1,11,12
 100 1409 100 1409 104 1318 c 128,-1,13
 108 1227 108 1227 52 1251 c 1,14,15
 -51 1244 -51 1244 -51 1163 c 1,16,17
 -40 1091 -40 1091 63 1094 c 1,18,19
 159 1091 159 1091 189 1171 c 1,20,-1
 315 1165 l 1,21,22
 301 1044 301 1044 227 1003.5 c 128,-1,23
 153 963 153 963 61 967 c 1,24,25
 -37 959 -37 959 -109.5 1011 c 128,-1,26
 -182 1063 -182 1063 -188 1156 c 0,27,28
 -194 1250 -194 1250 -121 1297 c 1,29,30
 -215 1349 -215 1349 -213 1464 c 1,31,32
 -217 1564 -217 1564 -147.5 1638.5 c 128,-1,33
 -78 1713 -78 1713 61 1710 c 1,0,1
EndSplineSet
EndChar

StartChar: idieresis
Encoding: 239 239 157
Width: 400
Flags: W
LayerCount: 2
Fore
SplineSet
217 1716 m 1,0,-1
 200 1606 l 1,1,2
 52 1578 52 1578 15.5 1516.5 c 128,-1,3
 -21 1455 -21 1455 23 1401 c 1,4,5
 81 1355 81 1355 225 1375 c 1,6,7
 234 1480 234 1480 260 1548.5 c 128,-1,8
 286 1617 286 1617 362.5 1645.5 c 128,-1,9
 439 1674 439 1674 501.5 1639.5 c 128,-1,10
 564 1605 564 1605 572 1528.5 c 128,-1,11
 580 1452 580 1452 515 1380.5 c 128,-1,12
 450 1309 450 1309 336 1278 c 1,13,14
 329 1105 329 1105 244 1039.5 c 128,-1,15
 159 974 159 974 52 989 c 1,16,17
 -119 991 -119 991 -173 1119 c 1,18,-1
 -83 1185 l 1,19,20
 -26 1105 -26 1105 52 1107 c 1,21,22
 112 1095 112 1095 160.5 1132.5 c 128,-1,23
 209 1170 209 1170 216 1262 c 1,24,25
 39 1250 39 1250 -33 1299 c 1,26,27
 -115 1341 -115 1341 -122 1450 c 1,28,29
 -116 1686 -116 1686 217 1716 c 1,0,-1
351 1400 m 1,31,32
 429 1429 429 1429 447.5 1476.5 c 128,-1,33
 466 1524 466 1524 429.5 1534 c 128,-1,34
 393 1544 393 1544 374 1510.5 c 128,-1,30
 355 1477 355 1477 351 1400 c 1,31,32
EndSplineSet
EndChar

StartChar: eth
Encoding: 240 240 158
Width: 500
Flags: W
LayerCount: 2
Fore
SplineSet
694 1666 m 1,1,2
 716 1545 716 1545 692 1563 c 128,-1,3
 668 1581 668 1581 643 1589.5 c 128,-1,4
 618 1598 618 1598 592.5 1578 c 128,-1,5
 567 1558 567 1558 569 1399.5 c 128,-1,6
 571 1241 571 1241 567.5 1136 c 128,-1,7
 564 1031 564 1031 511.5 1006 c 128,-1,8
 459 981 459 981 409 998.5 c 128,-1,9
 359 1016 359 1016 341 1062.5 c 128,-1,10
 323 1109 323 1109 259 1302.5 c 128,-1,11
 195 1496 195 1496 167 1537 c 128,-1,12
 139 1578 139 1578 114 1539 c 128,-1,13
 89 1500 89 1500 84.5 1319.5 c 128,-1,14
 80 1139 80 1139 54 1076 c 128,-1,15
 28 1013 28 1013 -35 996.5 c 128,-1,16
 -98 980 -98 980 -159.5 1006.5 c 128,-1,17
 -221 1033 -221 1033 -220 1082.5 c 128,-1,18
 -219 1132 -219 1132 -188 1136.5 c 128,-1,19
 -157 1141 -157 1141 -129 1125 c 128,-1,20
 -101 1109 -101 1109 -71 1133.5 c 128,-1,21
 -41 1158 -41 1158 -40 1248.5 c 128,-1,22
 -39 1339 -39 1339 -33 1461 c 128,-1,23
 -27 1583 -27 1583 14.5 1645.5 c 128,-1,24
 56 1708 56 1708 140 1706 c 1,25,26
 236 1718 236 1718 282 1608 c 128,-1,27
 328 1498 328 1498 446 1183 c 1,28,29
 442 1517 442 1517 458 1588.5 c 128,-1,30
 474 1660 474 1660 511.5 1685 c 128,-1,31
 549 1710 549 1710 592 1709.5 c 128,-1,0
 635 1709 635 1709 694 1666 c 1,1,2
EndSplineSet
EndChar

StartChar: ntilde
Encoding: 241 241 159
Width: 100
Flags: W
LayerCount: 2
Fore
SplineSet
463 1721 m 1,0,1
 440 1517 440 1517 415.5 1469.5 c 128,-1,2
 391 1422 391 1422 348.5 1396.5 c 128,-1,3
 306 1371 306 1371 243 1358 c 128,-1,4
 180 1345 180 1345 182.5 1290 c 128,-1,5
 185 1235 185 1235 218 999 c 1,6,-1
 71 995 l 1,7,-1
 51 1369 l 1,8,9
 64 1436 64 1436 100.5 1450.5 c 128,-1,10
 137 1465 137 1465 189.5 1475 c 128,-1,11
 242 1485 242 1485 283 1516.5 c 128,-1,12
 324 1548 324 1548 320 1695 c 1,13,-1
 463 1721 l 1,0,1
EndSplineSet
EndChar

StartChar: ograve
Encoding: 242 242 160
Width: 200
Flags: W
LayerCount: 2
Fore
SplineSet
199 1708 m 1,0,1
 198 1533 198 1533 193 1448 c 1,2,3
 201 1391 201 1391 83 1356 c 128,-1,4
 -35 1321 -35 1321 -25 1221 c 0,5,6
 -12 1126 -12 1126 98 1131 c 1,7,8
 234 1124 234 1124 236 1267 c 1,9,-1
 394 1278 l 1,10,11
 414 1181 414 1181 372 1108 c 0,12,13
 292 970 292 970 92 982 c 0,14,15
 -43 988 -43 988 -115 1058.5 c 128,-1,16
 -187 1129 -187 1129 -179 1221 c 1,17,18
 -197 1290 -197 1290 -148.5 1374 c 128,-1,19
 -100 1458 -100 1458 28 1487 c 1,20,21
 36 1566 36 1566 34 1702 c 1,22,-1
 199 1708 l 1,0,1
EndSplineSet
EndChar

StartChar: oacute
Encoding: 243 243 161
Width: 300
Flags: W
LayerCount: 2
Fore
SplineSet
222 1709 m 1,0,-1
 207 1417 l 2,1,2
 199 1268 199 1268 233.5 1195 c 128,-1,3
 268 1122 268 1122 336 1116 c 1,4,5
 443 1092 443 1092 475 1206 c 1,6,-1
 602 1208 l 1,7,8
 604 1076 604 1076 519 1016.5 c 128,-1,9
 434 957 434 957 326 981 c 1,10,11
 225 985 225 985 157 1050 c 1,12,13
 98 1118 98 1118 77.5 1200.5 c 128,-1,14
 57 1283 57 1283 57 1432 c 1,15,16
 -27 1348 -27 1348 -103 1337 c 1,17,-1
 -57 1255 l 1,18,-1
 -155 1184 l 1,19,-1
 -328 1416 l 1,20,-1
 -231 1501 l 1,21,22
 -164 1429 -164 1429 -63 1502 c 1,23,24
 16 1566 16 1566 34 1704 c 1,25,-1
 222 1709 l 1,0,-1
EndSplineSet
EndChar

StartChar: ocircumflex
Encoding: 244 244 162
Width: 200
Flags: W
LayerCount: 2
Fore
SplineSet
-66 1682 m 128,-1,1
 0 1647 0 1647 56 1596.5 c 128,-1,2
 112 1546 112 1546 216 1460 c 1,3,4
 248 1572 248 1572 304.5 1635.5 c 128,-1,5
 361 1699 361 1699 453 1696 c 0,6,7
 549 1691 549 1691 602.5 1629 c 128,-1,8
 656 1567 656 1567 649 1485 c 0,9,10
 643 1376 643 1376 593 1321 c 128,-1,11
 543 1266 543 1266 496.5 1255 c 128,-1,12
 450 1244 450 1244 404 1244 c 128,-1,13
 358 1244 358 1244 291 1269 c 1,14,15
 244 1153 244 1153 219 1104.5 c 128,-1,16
 194 1056 194 1056 157 1020 c 128,-1,17
 120 984 120 984 41 984 c 128,-1,18
 -38 984 -38 984 -94 1034.5 c 128,-1,19
 -150 1085 -150 1085 -200 1137 c 128,-1,20
 -250 1189 -250 1189 -318.5 1263 c 128,-1,21
 -387 1337 -387 1337 -468 1414 c 1,22,23
 -539 1466 -539 1466 -586 1392 c 1,24,-1
 -653 1443 l 1,25,26
 -632 1561 -632 1561 -497 1558 c 0,27,28
 -438 1555 -438 1555 -368 1490 c 128,-1,29
 -298 1425 -298 1425 -176.5 1298.5 c 128,-1,30
 -55 1172 -55 1172 -2 1151.5 c 128,-1,31
 51 1131 51 1131 84.5 1161.5 c 128,-1,32
 118 1192 118 1192 164 1323 c 1,33,34
 28 1467 28 1467 -47 1523.5 c 128,-1,35
 -122 1580 -122 1580 -156 1584 c 128,-1,36
 -190 1588 -190 1588 -241 1534 c 1,37,-1
 -321 1611 l 1,38,39
 -265 1678 -265 1678 -198.5 1697.5 c 128,-1,0
 -132 1717 -132 1717 -66 1682 c 128,-1,1
335 1393 m 1,40,41
 412 1361 412 1361 460.5 1382 c 128,-1,42
 509 1403 509 1403 518 1471 c 1,43,44
 532 1540 532 1540 465 1556 c 1,45,46
 410 1563 410 1563 383 1513 c 128,-1,47
 356 1463 356 1463 335 1393 c 1,40,41
EndSplineSet
EndChar

StartChar: otilde
Encoding: 245 245 163
Width: 400
Flags: W
LayerCount: 2
Fore
SplineSet
198 1703 m 1,0,1
 322 1708 322 1708 409.5 1667.5 c 128,-1,2
 497 1627 497 1627 556 1570 c 1,3,-1
 445 1486 l 1,4,5
 351 1574 351 1574 202 1571 c 1,6,7
 96 1558 96 1558 40.5 1493.5 c 128,-1,8
 -15 1429 -15 1429 -15 1338 c 0,9,10
 -16 1236 -16 1236 52 1176 c 128,-1,11
 120 1116 120 1116 216 1113 c 0,12,13
 318 1107 318 1107 361 1195 c 1,14,15
 369 1266 369 1266 331 1295 c 128,-1,16
 293 1324 293 1324 213 1309 c 1,17,18
 157 1288 157 1288 130 1250 c 1,19,-1
 88 1385 l 1,20,21
 139 1441 139 1441 219 1448 c 0,22,23
 330 1463 330 1463 425.5 1401 c 128,-1,24
 521 1339 521 1339 508 1191 c 0,25,26
 496 1093 496 1093 406 1028.5 c 128,-1,27
 316 964 316 964 214 980 c 1,28,29
 44 976 44 976 -58.5 1080 c 128,-1,30
 -161 1184 -161 1184 -160 1335 c 0,31,32
 -161 1508 -161 1508 -60.5 1606 c 128,-1,33
 40 1704 40 1704 198 1703 c 1,0,1
EndSplineSet
EndChar

StartChar: odieresis
Encoding: 246 246 164
Width: 300
Flags: W
LayerCount: 2
Fore
SplineSet
377.5 1628 m 128,-1,1
 373 1582 373 1582 363 1529.5 c 128,-1,2
 353 1477 353 1477 333 1334 c 1,3,4
 406 1339 406 1339 507 1352 c 1,5,-1
 488 1232 l 1,6,7
 391 1217 391 1217 308 1213 c 1,8,9
 294 1130 294 1130 256.5 1077.5 c 128,-1,10
 219 1025 219 1025 164.5 1001 c 128,-1,11
 110 977 110 977 -6 990 c 1,12,13
 -114 991 -114 991 -211 1054 c 1,14,-1
 -147 1181 l 1,15,16
 -50 1125 -50 1125 10 1119.5 c 128,-1,17
 70 1114 70 1114 106.5 1133.5 c 128,-1,18
 143 1153 143 1153 149 1218 c 1,19,20
 29 1237 29 1237 -25.5 1284.5 c 128,-1,21
 -80 1332 -80 1332 -70 1415 c 1,22,23
 -55 1488 -55 1488 14.5 1558 c 128,-1,24
 84 1628 84 1628 131.5 1660.5 c 128,-1,25
 179 1693 179 1693 235 1705.5 c 128,-1,26
 291 1718 291 1718 336.5 1696 c 128,-1,0
 382 1674 382 1674 377.5 1628 c 128,-1,1
77.5 1366.5 m 128,-1,28
 94 1343 94 1343 191 1337 c 1,29,30
 213 1404 213 1404 217 1446.5 c 128,-1,31
 221 1489 221 1489 227.5 1533.5 c 128,-1,32
 234 1578 234 1578 193.5 1547 c 128,-1,33
 153 1516 153 1516 121 1482 c 128,-1,34
 89 1448 89 1448 75 1419 c 128,-1,27
 61 1390 61 1390 77.5 1366.5 c 128,-1,28
EndSplineSet
EndChar

StartChar: divide
Encoding: 247 247 165
Width: 400
Flags: W
LayerCount: 2
Fore
SplineSet
266 1702 m 128,-1,1
 332 1688 332 1688 428.5 1624.5 c 128,-1,2
 525 1561 525 1561 596 1488.5 c 128,-1,3
 667 1416 667 1416 698 1372.5 c 128,-1,4
 729 1329 729 1329 694.5 1283 c 128,-1,5
 660 1237 660 1237 511.5 1120.5 c 128,-1,6
 363 1004 363 1004 282 985 c 128,-1,7
 201 966 201 966 118 989.5 c 128,-1,8
 35 1013 35 1013 -105 1109.5 c 128,-1,9
 -245 1206 -245 1206 -290.5 1269.5 c 128,-1,10
 -336 1333 -336 1333 -290 1389.5 c 128,-1,11
 -244 1446 -244 1446 -100.5 1564 c 128,-1,12
 43 1682 43 1682 121.5 1699 c 128,-1,0
 200 1716 200 1716 266 1702 c 128,-1,1
-4.5 1462 m 128,-1,14
 -65 1411 -65 1411 -143 1328 c 1,15,16
 -65 1252 -65 1252 4.5 1205 c 128,-1,17
 74 1158 74 1158 139.5 1133.5 c 128,-1,18
 205 1109 205 1109 284 1143.5 c 128,-1,19
 363 1178 363 1178 420.5 1220 c 128,-1,20
 478 1262 478 1262 537 1329 c 1,21,22
 489 1399 489 1399 426.5 1450 c 128,-1,23
 364 1501 364 1501 280.5 1538.5 c 128,-1,24
 197 1576 197 1576 126.5 1544.5 c 128,-1,13
 56 1513 56 1513 -4.5 1462 c 128,-1,14
EndSplineSet
EndChar

StartChar: oslash
Encoding: 248 248 166
Width: 400
Flags: W
LayerCount: 2
Fore
SplineSet
-169 1706 m 1,0,1
 -97 1706 -97 1706 -62.5 1661 c 128,-1,2
 -28 1616 -28 1616 -19.5 1520.5 c 128,-1,3
 -11 1425 -11 1425 22.5 1317.5 c 128,-1,4
 56 1210 56 1210 100 1166 c 128,-1,5
 144 1122 144 1122 194 1123 c 1,6,7
 247 1116 247 1116 291.5 1159.5 c 128,-1,8
 336 1203 336 1203 366.5 1315.5 c 128,-1,9
 397 1428 397 1428 403.5 1522.5 c 128,-1,10
 410 1617 410 1617 452.5 1664 c 128,-1,11
 495 1711 495 1711 555 1708 c 1,12,13
 658 1720 658 1720 697 1659 c 1,14,-1
 643 1558 l 1,15,16
 602 1592 602 1592 568 1585.5 c 128,-1,17
 534 1579 534 1579 526 1499 c 128,-1,18
 518 1419 518 1419 494 1310.5 c 128,-1,19
 470 1202 470 1202 431 1136 c 128,-1,20
 392 1070 392 1070 334 1030.5 c 128,-1,21
 276 991 276 991 193 994 c 1,22,23
 113 992 113 992 60 1031.5 c 128,-1,24
 7 1071 7 1071 -32.5 1138 c 128,-1,25
 -72 1205 -72 1205 -99.5 1309.5 c 128,-1,26
 -127 1414 -127 1414 -136.5 1494 c 128,-1,27
 -146 1574 -146 1574 -169.5 1580.5 c 128,-1,28
 -193 1587 -193 1587 -253 1559 c 1,29,-1
 -297 1661 l 1,30,31
 -248 1711 -248 1711 -169 1706 c 1,0,1
EndSplineSet
EndChar

StartChar: ugrave
Encoding: 249 249 167
Width: 400
Flags: W
LayerCount: 2
Fore
SplineSet
-159 1702 m 1,0,-1
 -49 1605 l 1,1,2
 -181 1508 -181 1508 -168 1328 c 1,3,4
 -166 1160 -166 1160 -30 1124 c 1,5,6
 78 1108 78 1108 127 1211.5 c 128,-1,7
 176 1315 176 1315 196.5 1407.5 c 128,-1,8
 217 1500 217 1500 245.5 1567 c 128,-1,9
 274 1634 274 1634 330.5 1671.5 c 128,-1,10
 387 1709 387 1709 490 1705 c 0,11,12
 609 1701 609 1701 668 1602 c 128,-1,13
 727 1503 727 1503 718 1326 c 1,14,15
 688 1105 688 1105 588 1006 c 1,16,-1
 460 1082 l 1,17,18
 563 1174 563 1174 580 1330 c 1,19,20
 591 1558 591 1558 490 1563 c 1,21,22
 412 1587 412 1587 368.5 1493.5 c 128,-1,23
 325 1400 325 1400 282 1201 c 1,24,25
 234 1074 234 1074 150.5 1024 c 128,-1,26
 67 974 67 974 -29 996 c 1,27,28
 -141 994 -141 994 -221 1079 c 128,-1,29
 -301 1164 -301 1164 -311 1324 c 0,30,31
 -316 1434 -316 1434 -280.5 1529.5 c 128,-1,32
 -245 1625 -245 1625 -159 1702 c 1,0,-1
EndSplineSet
EndChar

StartChar: uacute
Encoding: 250 250 168
Width: 600
Flags: W
LayerCount: 2
Fore
SplineSet
127 1578 m 1,0,1
 236 1589 236 1589 390 1548 c 1,2,3
 581 1468 581 1468 560 1304 c 0,4,5
 540 1174 540 1174 433 1142 c 128,-1,6
 326 1110 326 1110 191 1168 c 1,7,8
 314 1178 314 1178 332 1312 c 1,9,10
 329 1479 329 1479 162 1489 c 1,11,12
 21 1489 21 1489 -6 1397 c 1,13,-1
 68 1317 l 1,14,15
 105 1387 105 1387 155 1368 c 1,16,17
 219 1360 219 1360 205 1309 c 128,-1,18
 191 1258 191 1258 135 1257 c 128,-1,19
 79 1256 79 1256 27 1261 c 0,20,21
 -32 1266 -32 1266 11 1175 c 1,22,23
 63 1093 63 1093 151.5 1040.5 c 128,-1,24
 240 988 240 988 366 987.5 c 128,-1,25
 492 987 492 987 598 1069.5 c 128,-1,26
 704 1152 704 1152 709 1307 c 1,27,28
 724 1445 724 1445 626 1551.5 c 128,-1,29
 528 1658 528 1658 362 1686 c 1,30,31
 203 1721 203 1721 79 1704 c 1,32,-1
 127 1578 l 1,0,1
EndSplineSet
EndChar

StartChar: ucircumflex
Encoding: 251 251 169
Width: 300
Flags: W
LayerCount: 2
Fore
SplineSet
430 1646 m 1,1,-1
 382 1547 l 1,2,3
 237 1610 237 1610 191.5 1577 c 128,-1,4
 146 1544 146 1544 130 1471 c 1,5,6
 237 1494 237 1494 309.5 1458.5 c 128,-1,7
 382 1423 382 1423 400.5 1366.5 c 128,-1,8
 419 1310 419 1310 409.5 1246.5 c 128,-1,9
 400 1183 400 1183 352 1126.5 c 128,-1,10
 304 1070 304 1070 210.5 1037.5 c 128,-1,11
 117 1005 117 1005 -122 986 c 1,12,-1
 -98 1094 l 1,13,14
 -28 1114 -28 1114 29.5 1119.5 c 128,-1,15
 87 1125 87 1125 157.5 1150.5 c 128,-1,16
 228 1176 228 1176 260.5 1236.5 c 128,-1,17
 293 1297 293 1297 252 1334.5 c 128,-1,18
 211 1372 211 1372 100 1345 c 1,19,20
 76 1286 76 1286 58.5 1262 c 128,-1,21
 41 1238 41 1238 -9.5 1273 c 128,-1,22
 -60 1308 -60 1308 -30.5 1405 c 128,-1,23
 -1 1502 -1 1502 27 1563.5 c 128,-1,24
 55 1625 55 1625 99.5 1668.5 c 128,-1,25
 144 1712 144 1712 235 1709.5 c 128,-1,0
 326 1707 326 1707 430 1646 c 1,1,-1
EndSplineSet
EndChar

StartChar: udieresis
Encoding: 252 252 170
Width: 100
Flags: W
LayerCount: 2
Fore
SplineSet
231 1715 m 1,0,-1
 331 1617 l 1,1,2
 196 1536 196 1536 159 1449 c 1,3,4
 234 1347 234 1347 252 1243 c 1,5,6
 262 1141 262 1141 222.5 1078 c 128,-1,7
 183 1015 183 1015 116.5 995.5 c 128,-1,8
 50 976 50 976 -13 997 c 128,-1,9
 -76 1018 -76 1018 -116.5 1079.5 c 128,-1,10
 -157 1141 -157 1141 -148 1245 c 1,11,12
 -128 1348 -128 1348 -38 1451 c 1,13,14
 -91 1530 -91 1530 -230 1606 c 1,15,-1
 -133 1710 l 1,16,17
 -5 1623 -5 1623 49 1542 c 1,18,19
 120 1626 120 1626 231 1715 c 1,0,-1
-16 1233 m 1,20,21
 -30 1159 -30 1159 6.5 1134 c 128,-1,22
 43 1109 43 1109 82 1130.5 c 128,-1,23
 121 1152 121 1152 116 1230 c 1,24,25
 87 1309 87 1309 47 1356 c 1,26,27
 9 1309 9 1309 -16 1233 c 1,20,21
EndSplineSet
EndChar

StartChar: yacute
Encoding: 253 253 171
Width: 300
Flags: W
LayerCount: 2
Fore
SplineSet
396 1715 m 1,0,-1
 396 1158 l 1,1,2
 373 983 373 983 178 987 c 1,3,4
 98 980 98 980 25.5 1026 c 128,-1,5
 -47 1072 -47 1072 -49 1171 c 0,6,7
 -52 1290 -52 1290 25 1334 c 1,8,9
 -75 1359 -75 1359 -72 1499 c 1,10,11
 -48 1609 -48 1609 -153 1580 c 1,12,-1
 -153 1700 l 1,13,14
 -77 1715 -77 1715 -19.5 1694 c 128,-1,15
 38 1673 38 1673 47 1589 c 1,16,-1
 49 1510 l 2,17,18
 52 1423 52 1423 153 1415 c 1,19,-1
 261 1415 l 1,20,-1
 262 1711 l 1,21,-1
 396 1715 l 1,0,-1
82 1189 m 0,22,23
 86 1117 86 1117 177 1115 c 1,24,25
 259 1121 259 1121 264 1192 c 1,26,-1
 264 1283 l 1,27,-1
 172 1282 l 1,28,29
 75 1272 75 1272 82 1189 c 0,22,23
EndSplineSet
EndChar

StartChar: thorn
Encoding: 254 254 172
Width: 300
Flags: W
LayerCount: 2
Fore
SplineSet
-55 1700 m 1,0,1
 186 1656 186 1656 258.5 1600 c 128,-1,2
 331 1544 331 1544 316.5 1476 c 128,-1,3
 302 1408 302 1408 267 1376 c 1,4,5
 321 1339 321 1339 366.5 1351.5 c 128,-1,6
 412 1364 412 1364 437 1421.5 c 128,-1,7
 462 1479 462 1479 465 1636 c 1,8,-1
 618 1608 l 1,9,-1
 572 1388 l 1,10,11
 535 1291 535 1291 473 1257 c 128,-1,12
 411 1223 411 1223 338 1230.5 c 128,-1,13
 265 1238 265 1238 175 1281 c 1,14,15
 143 1240 143 1240 90 1206 c 1,16,-1
 27 1286 l 1,17,-1
 81 1326 l 1,18,19
 23 1362 23 1362 -18 1371 c 128,-1,20
 -59 1380 -59 1380 -84.5 1345.5 c 128,-1,21
 -110 1311 -110 1311 -63 1259 c 128,-1,22
 -16 1207 -16 1207 98.5 1168 c 128,-1,23
 213 1129 213 1129 519 1098 c 1,24,-1
 474 983 l 1,25,26
 196 1028 196 1028 85 1055.5 c 128,-1,27
 -26 1083 -26 1083 -110.5 1139 c 128,-1,28
 -195 1195 -195 1195 -216 1274 c 128,-1,29
 -237 1353 -237 1353 -188.5 1416 c 128,-1,30
 -140 1479 -140 1479 -60 1487.5 c 128,-1,31
 20 1496 20 1496 154 1416 c 1,32,33
 206 1480 206 1480 167.5 1513 c 128,-1,34
 129 1546 129 1546 -47 1578 c 1,35,-1
 -55 1700 l 1,0,1
EndSplineSet
EndChar

StartChar: ydieresis
Encoding: 255 255 173
Width: 0
Flags: W
LayerCount: 2
Fore
SplineSet
-823 1076 m 1,0,1
 -670 1135 -670 1135 -614 1244 c 1,2,3
 -547 1135 -547 1135 -404 1078 c 1,4,-1
 -293 1188 l 1,5,6
 -436 1223 -436 1223 -513 1333 c 1,7,8
 -437 1394 -437 1394 -422 1449.5 c 128,-1,9
 -407 1505 -407 1505 -416 1560.5 c 128,-1,10
 -425 1616 -425 1616 -478 1666 c 128,-1,11
 -531 1716 -531 1716 -615 1715.5 c 128,-1,12
 -699 1715 -699 1715 -753.5 1664.5 c 128,-1,13
 -808 1614 -808 1614 -816.5 1559.5 c 128,-1,14
 -825 1505 -825 1505 -808 1449 c 128,-1,15
 -791 1393 -791 1393 -723 1323 c 1,16,17
 -798 1238 -798 1238 -917 1185 c 1,18,-1
 -823 1076 l 1,0,1
-669 1488 m 128,-1,20
 -680 1535 -680 1535 -647 1565.5 c 128,-1,21
 -614 1596 -614 1596 -577 1563 c 128,-1,22
 -540 1530 -540 1530 -554.5 1487 c 128,-1,23
 -569 1444 -569 1444 -609 1398 c 1,24,19
 -658 1441 -658 1441 -669 1488 c 128,-1,20
EndSplineSet
EndChar

StartChar: dotlessi
Encoding: 305 305 174
Width: 1498
Flags: W
LayerCount: 2
Fore
SplineSet
265 180 m 1,0,-1
 265 1309 l 1,1,-1
 733 1309 l 1,2,-1
 733 1129 l 1,3,-1
 458 1129 l 1,4,-1
 458 764 l 1,5,-1
 1015 764 l 1,6,-1
 1015 1309 l 1,7,-1
 1399 1309 l 1,8,-1
 1399 1129 l 1,9,-1
 1207 1129 l 1,10,-1
 1207 0 l 1,11,-1
 759 0 l 1,12,-1
 759 180 l 1,13,-1
 1015 180 l 1,14,-1
 1015 576 l 1,15,-1
 458 576 l 1,16,-1
 458 0 l 1,17,-1
 71 0 l 1,18,-1
 71 180 l 1,19,-1
 265 180 l 1,0,-1
EndSplineSet
EndChar

StartChar: circumflex
Encoding: 710 710 175
Width: 1024
Flags: W
LayerCount: 2
Fore
SplineSet
221 1079 m 1,0,-1
 453 1434 l 1,1,-1
 571 1434 l 1,2,-1
 803 1079 l 1,3,-1
 745 1079 l 1,4,-1
 512 1295 l 1,5,-1
 279 1079 l 1,6,-1
 221 1079 l 1,0,-1
EndSplineSet
EndChar

StartChar: caron
Encoding: 711 711 176
Width: 1024
Flags: W
LayerCount: 2
Fore
SplineSet
221 1434 m 1,0,-1
 279 1434 l 1,1,-1
 512 1220 l 1,2,-1
 745 1434 l 1,3,-1
 803 1434 l 1,4,-1
 571 1078 l 1,5,-1
 453 1078 l 1,6,-1
 221 1434 l 1,0,-1
EndSplineSet
EndChar

StartChar: uni02C9
Encoding: 713 713 177
Width: 1024
Flags: W
LayerCount: 2
Fore
SplineSet
254 1195 m 1,0,-1
 254 1320 l 1,1,-1
 770 1320 l 1,2,-1
 770 1195 l 1,3,-1
 254 1195 l 1,0,-1
EndSplineSet
EndChar

StartChar: breve
Encoding: 728 728 178
Width: 1024
Flags: W
LayerCount: 2
Fore
SplineSet
219 1349 m 1,0,-1
 270 1349 l 1,1,2
 287 1276 287 1276 350 1237 c 128,-1,3
 413 1198 413 1198 512 1198 c 256,4,5
 611 1198 611 1198 673 1236.5 c 128,-1,6
 735 1275 735 1275 752 1349 c 1,7,-1
 803 1349 l 1,8,9
 793 1216 793 1216 714 1147.5 c 128,-1,10
 635 1079 635 1079 512 1079 c 0,11,12
 390 1079 390 1079 310 1148 c 128,-1,13
 230 1217 230 1217 219 1349 c 1,0,-1
EndSplineSet
EndChar

StartChar: dotaccent
Encoding: 729 729 179
Width: 1024
Flags: W
LayerCount: 2
Fore
SplineSet
580 -41 m 1,1,2
 639 -115 639 -115 580 -182 c 1,3,4
 501 -249 501 -249 422 -178 c 1,5,6
 363 -108 363 -108 422 -37 c 1,7,0
 501 33 501 33 580 -41 c 1,1,2
EndSplineSet
EndChar

StartChar: ring
Encoding: 730 730 180
Width: 1024
Flags: W
LayerCount: 2
Fore
SplineSet
411 1257 m 0,0,1
 411 1215 411 1215 440 1186 c 128,-1,2
 469 1157 469 1157 511 1157 c 256,3,4
 553 1157 553 1157 582 1186 c 128,-1,5
 611 1215 611 1215 611 1257 c 0,6,7
 611 1297 611 1297 581.5 1326.5 c 128,-1,8
 552 1356 552 1356 511 1356 c 256,9,10
 470 1356 470 1356 440.5 1326.5 c 128,-1,11
 411 1297 411 1297 411 1257 c 0,0,1
335 1257 m 256,12,13
 335 1332 335 1332 386 1383 c 128,-1,14
 437 1434 437 1434 511 1434 c 0,15,16
 587 1434 587 1434 638.5 1382.5 c 128,-1,17
 690 1331 690 1331 690 1257 c 0,18,19
 690 1182 690 1182 638.5 1130.5 c 128,-1,20
 587 1079 587 1079 511 1079 c 0,21,22
 437 1079 437 1079 386 1130.5 c 128,-1,23
 335 1182 335 1182 335 1257 c 256,12,13
EndSplineSet
EndChar

StartChar: ogonek
Encoding: 731 731 181
Width: 800
Flags: W
LayerCount: 2
Fore
SplineSet
666 -402 m 1,0,-1
 311 -402 l 2,1,2
 176 -402 176 -402 176 -301 c 2,3,-1
 176 1304 l 2,4,5
 176 1419 176 1419 311 1419 c 2,6,-1
 666 1419 l 1,7,8
 726 1342 726 1342 666 1265 c 1,9,10
 509 1265 509 1265 341 1265 c 1,11,-1
 341 -248 l 1,12,13
 509 -248 509 -248 666 -248 c 1,14,15
 726 -325 726 -325 666 -402 c 1,0,-1
EndSplineSet
EndChar

StartChar: tilde
Encoding: 732 732 182
Width: 800
Flags: W
LayerCount: 2
Fore
SplineSet
105 -248 m 1,0,1
 303 -248 303 -248 471 -248 c 1,2,3
 471 509 471 509 471 1265 c 1,4,5
 303 1265 303 1265 105 1265 c 1,6,-1
 105 1419 l 1,7,-1
 501 1419 l 2,8,9
 636 1419 636 1419 636 1289 c 2,10,-1
 636 -287 l 2,11,12
 636 -402 636 -402 501 -402 c 2,13,-1
 105 -402 l 1,14,-1
 105 -248 l 1,0,1
EndSplineSet
EndChar

StartChar: hungarumlaut
Encoding: 733 733 183
Width: 1024
Flags: W
LayerCount: 2
Fore
SplineSet
217 1079 m 1,0,-1
 361 1352 l 2,1,2
 385 1396 385 1396 406.5 1415 c 128,-1,3
 428 1434 428 1434 453 1434 c 0,4,5
 481 1434 481 1434 501 1414 c 128,-1,6
 521 1394 521 1394 521 1367 c 0,7,8
 521 1351 521 1351 510.5 1332 c 128,-1,9
 500 1313 500 1313 480 1291 c 2,10,-1
 275 1079 l 1,11,-1
 217 1079 l 1,0,-1
502 1079 m 1,12,-1
 646 1352 l 2,13,14
 670 1396 670 1396 691.5 1415 c 128,-1,15
 713 1434 713 1434 738 1434 c 0,16,17
 766 1434 766 1434 786 1414 c 128,-1,18
 806 1394 806 1394 806 1367 c 0,19,20
 806 1351 806 1351 795.5 1332 c 128,-1,21
 785 1313 785 1313 765 1291 c 2,22,-1
 560 1079 l 1,23,-1
 502 1079 l 1,12,-1
EndSplineSet
EndChar

StartChar: endash
Encoding: 8211 8211 184
Width: 0
Flags: W
LayerCount: 2
Fore
SplineSet
-422.5 -230 m 128,-1,1
 -390 -261 -390 -261 -390 -304 c 0,2,3
 -390 -348 -390 -348 -422.5 -378.5 c 128,-1,4
 -455 -409 -455 -409 -501 -409 c 256,5,6
 -547 -409 -547 -409 -579.5 -378.5 c 128,-1,7
 -612 -348 -612 -348 -612 -304 c 0,8,9
 -612 -261 -612 -261 -579.5 -230 c 128,-1,10
 -547 -199 -547 -199 -501 -199 c 256,11,0
 -455 -199 -455 -199 -422.5 -230 c 128,-1,1
EndSplineSet
EndChar

StartChar: emdash
Encoding: 8212 8212 185
Width: 0
Flags: W
LayerCount: 2
Fore
SplineSet
-1009 -431 m 1,0,-1
 -1009 -281 l 1,1,-1
 -600 -281 l 1,2,-1
 -191 -281 l 1,3,-1
 -191 -431 l 1,4,-1
 -600 -431 l 1,5,-1
 -1009 -431 l 1,0,-1
EndSplineSet
EndChar

StartChar: quoteleft
Encoding: 8216 8216 186
Width: 511
Flags: W
LayerCount: 2
Fore
SplineSet
143.5 921 m 128,-1,1
 103 954 103 954 89 1017 c 1,2,3
 63 1222 63 1222 187 1414 c 1,4,-1
 314 1412 l 1,5,6
 226 1256 226 1256 260 1132 c 1,7,8
 356 1114 356 1114 370 1017 c 1,9,10
 370 932 370 932 329 910 c 128,-1,11
 288 888 288 888 230 888 c 0,12,0
 184 888 184 888 143.5 921 c 128,-1,1
EndSplineSet
EndChar

StartChar: quoteright
Encoding: 8217 8217 187
Width: 507
Flags: W
LayerCount: 2
Fore
SplineSet
296.5 1383 m 128,-1,1
 334 1355 334 1355 346 1282 c 0,2,3
 371 1088 371 1088 257 897 c 1,4,-1
 139 899 l 1,5,6
 221 1044 221 1044 189 1167 c 1,7,8
 101 1185 101 1185 88 1282 c 1,9,10
 88 1367 88 1367 126 1389 c 128,-1,11
 164 1411 164 1411 217 1411 c 0,12,0
 259 1411 259 1411 296.5 1383 c 128,-1,1
EndSplineSet
EndChar

StartChar: quotesinglbase
Encoding: 8218 8218 188
Width: 507
Flags: W
LayerCount: 2
Fore
SplineSet
297 279 m 128,-1,1
 335 251 335 251 348 179 c 0,2,3
 373 -13 373 -13 257 -204 c 1,4,-1
 138 -201 l 1,5,6
 220 -57 220 -57 188 65 c 1,7,8
 99 83 99 83 86 179 c 1,9,10
 86 253 86 253 124.5 280 c 128,-1,11
 163 307 163 307 217 307 c 0,12,0
 259 307 259 307 297 279 c 128,-1,1
EndSplineSet
EndChar

StartChar: quotedblleft
Encoding: 8220 8220 189
Width: 910
Flags: W
LayerCount: 2
Fore
SplineSet
144 925 m 128,-1,1
 105 958 105 958 92 1021 c 1,2,3
 67 1254 67 1254 185 1415 c 1,4,-1
 307 1413 l 1,5,6
 223 1258 223 1258 256 1135 c 1,7,8
 347 1117 347 1117 360 1021 c 1,9,10
 360 946 360 946 321 919 c 128,-1,11
 282 892 282 892 226 892 c 0,12,0
 183 892 183 892 144 925 c 128,-1,1
594 925 m 128,-1,14
 555 958 555 958 542 1021 c 0,15,16
 507 1254 507 1254 635 1415 c 1,17,-1
 757 1413 l 1,18,19
 673 1258 673 1258 706 1135 c 1,20,21
 797 1117 797 1117 810 1021 c 1,22,23
 810 946 810 946 771 919 c 128,-1,24
 732 892 732 892 676 892 c 0,25,13
 633 892 633 892 594 925 c 128,-1,14
EndSplineSet
EndChar

StartChar: quotedblright
Encoding: 8221 8221 190
Width: 803
Flags: W
LayerCount: 2
Fore
SplineSet
697.5 1376.5 m 128,-1,1
 735 1343 735 1343 738 1280 c 0,2,3
 762 1054 762 1054 647 901 c 1,4,-1
 529 903 l 1,5,6
 611 1050 611 1050 579 1164 c 1,7,8
 490 1182 490 1182 478 1280 c 1,9,10
 478 1355 478 1355 516 1382.5 c 128,-1,11
 554 1410 554 1410 608 1410 c 0,12,0
 660 1410 660 1410 697.5 1376.5 c 128,-1,1
310 1376.5 m 128,-1,14
 343 1343 343 1343 346 1280 c 0,15,16
 370 1054 370 1054 254 901 c 1,17,-1
 134 903 l 1,18,19
 217 1050 217 1050 185 1164 c 1,20,21
 95 1182 95 1182 82 1280 c 1,22,23
 82 1355 82 1355 120.5 1382.5 c 128,-1,24
 159 1410 159 1410 214 1410 c 0,25,13
 277 1410 277 1410 310 1376.5 c 128,-1,14
EndSplineSet
EndChar

StartChar: quotedblbase
Encoding: 8222 8222 191
Width: 910
Flags: W
LayerCount: 2
Fore
SplineSet
765.5 276.5 m 128,-1,1
 800 243 800 243 813 180 c 1,2,3
 818 -36 818 -36 719 -199 c 1,4,-1
 596 -197 l 1,5,6
 681 -50 681 -50 648 64 c 1,7,8
 555 82 555 82 542 180 c 1,9,10
 542 265 542 265 581.5 287.5 c 128,-1,11
 621 310 621 310 677 310 c 0,12,0
 731 310 731 310 765.5 276.5 c 128,-1,1
310.5 276.5 m 128,-1,14
 345 243 345 243 358 180 c 1,15,16
 372 -46 372 -46 264 -199 c 1,17,-1
 141 -197 l 1,18,19
 226 -50 226 -50 193 64 c 1,20,21
 100 82 100 82 87 180 c 1,22,23
 87 265 87 265 126.5 287.5 c 128,-1,24
 166 310 166 310 222 310 c 0,25,13
 276 310 276 310 310.5 276.5 c 128,-1,14
EndSplineSet
EndChar

StartChar: dagger
Encoding: 8224 8224 192
Width: 1014
Flags: W
LayerCount: 2
Fore
SplineSet
486 1022 m 1,0,1
 478 1119 478 1119 432 1200 c 0,2,3
 375 1301 375 1301 375 1329 c 0,4,5
 375 1378 375 1378 411 1407.5 c 128,-1,6
 447 1437 447 1437 507 1437 c 0,7,8
 564 1437 564 1437 601.5 1409.5 c 128,-1,9
 639 1382 639 1382 639 1338 c 0,10,11
 639 1306 639 1306 584 1201 c 0,12,13
 538 1116 538 1116 529 1022 c 1,14,15
 625 1030 625 1030 706 1076 c 0,16,17
 807 1133 807 1133 835 1133 c 0,18,19
 884 1133 884 1133 914 1097 c 128,-1,20
 944 1061 944 1061 944 1001 c 0,21,22
 944 944 944 944 916.5 906.5 c 128,-1,23
 889 869 889 869 844 869 c 0,24,25
 812 869 812 869 708 924 c 0,26,27
 623 970 623 970 529 981 c 1,28,29
 537 805 537 805 639 704 c 1,30,31
 533 244 533 244 527 -270 c 1,32,-1
 489 -270 l 1,33,34
 483 244 483 244 375 704 c 1,35,36
 477 805 477 805 486 981 c 1,37,38
 390 971 390 971 308 926 c 0,39,40
 207 869 207 869 179 869 c 0,41,42
 130 869 130 869 100.5 905 c 128,-1,43
 71 941 71 941 71 1001 c 0,44,45
 71 1058 71 1058 98.5 1095.5 c 128,-1,46
 126 1133 126 1133 170 1133 c 0,47,48
 202 1133 202 1133 307 1077 c 0,49,50
 392 1031 392 1031 486 1022 c 1,0,1
EndSplineSet
EndChar

StartChar: daggerdbl
Encoding: 8225 8225 193
Width: 1014
Flags: W
LayerCount: 2
Fore
SplineSet
528 186 m 1,0,1
 622 197 622 197 707 243 c 0,2,3
 811 298 811 298 843 298 c 0,4,5
 888 298 888 298 915.5 260.5 c 128,-1,6
 943 223 943 223 943 166 c 0,7,8
 943 106 943 106 913 70 c 128,-1,9
 883 34 883 34 834 34 c 0,10,11
 806 34 806 34 705 91 c 0,12,13
 624 137 624 137 528 145 c 1,14,15
 537 51 537 51 583 -34 c 0,16,17
 638 -139 638 -139 638 -171 c 0,18,19
 638 -215 638 -215 600.5 -242.5 c 128,-1,20
 563 -270 563 -270 506 -270 c 0,21,22
 446 -270 446 -270 410 -240.5 c 128,-1,23
 374 -211 374 -211 374 -162 c 0,24,25
 374 -134 374 -134 431 -33 c 0,26,27
 477 48 477 48 485 145 c 1,28,29
 391 136 391 136 306 90 c 0,30,31
 201 34 201 34 169 34 c 0,32,33
 125 34 125 34 97.5 71.5 c 128,-1,34
 70 109 70 109 70 166 c 0,35,36
 70 226 70 226 99.5 262 c 128,-1,37
 129 298 129 298 178 298 c 0,38,39
 206 298 206 298 307 241 c 0,40,41
 389 196 389 196 485 186 c 1,42,43
 476 412 476 412 374 584 c 1,44,45
 476 755 476 755 485 981 c 1,46,47
 389 971 389 971 307 926 c 0,48,49
 206 869 206 869 178 869 c 0,50,51
 129 869 129 869 99.5 905 c 128,-1,52
 70 941 70 941 70 1001 c 0,53,54
 70 1058 70 1058 97.5 1095.5 c 128,-1,55
 125 1133 125 1133 169 1133 c 0,56,57
 201 1133 201 1133 306 1077 c 0,58,59
 391 1031 391 1031 485 1022 c 1,60,61
 477 1119 477 1119 431 1200 c 0,62,63
 374 1301 374 1301 374 1329 c 0,64,65
 374 1378 374 1378 410 1407.5 c 128,-1,66
 446 1437 446 1437 506 1437 c 0,67,68
 563 1437 563 1437 600.5 1409.5 c 128,-1,69
 638 1382 638 1382 638 1338 c 0,70,71
 638 1306 638 1306 583 1201 c 0,72,73
 537 1116 537 1116 528 1022 c 1,74,75
 624 1030 624 1030 705 1076 c 0,76,77
 806 1133 806 1133 834 1133 c 0,78,79
 883 1133 883 1133 913 1097 c 128,-1,80
 943 1061 943 1061 943 1001 c 0,81,82
 943 944 943 944 915.5 906.5 c 128,-1,83
 888 869 888 869 843 869 c 0,84,85
 811 869 811 869 707 924 c 0,86,87
 622 970 622 970 528 981 c 1,88,89
 536 755 536 755 638 584 c 1,90,91
 536 412 536 412 528 186 c 1,0,1
EndSplineSet
EndChar

StartChar: bullet
Encoding: 8226 8226 194
Width: 600
Flags: W
LayerCount: 2
Fore
SplineSet
375 470 m 128,-1,1
 406 439 406 439 406 396 c 0,2,3
 406 352 406 352 375 321 c 128,-1,4
 344 290 344 290 301 290 c 0,5,6
 257 290 257 290 226 321 c 128,-1,7
 195 352 195 352 195 396 c 0,8,9
 195 439 195 439 226 470 c 128,-1,10
 257 501 257 501 301 501 c 0,11,0
 344 501 344 501 375 470 c 128,-1,1
EndSplineSet
EndChar

StartChar: ellipsis
Encoding: 8230 8230 195
Width: 2011
Flags: W
LayerCount: 2
Fore
SplineSet
278 174 m 1,1,2
 337 100 337 100 278 33 c 1,3,4
 199 -34 199 -34 120 37 c 1,5,6
 61 107 61 107 120 178 c 1,7,0
 199 248 199 248 278 174 c 1,1,2
978 174 m 1,9,10
 1037 100 1037 100 978 33 c 1,11,12
 899 -34 899 -34 820 37 c 1,13,14
 761 107 761 107 820 178 c 1,15,8
 899 248 899 248 978 174 c 1,9,10
1678 174 m 1,17,18
 1737 100 1737 100 1678 33 c 1,19,20
 1599 -34 1599 -34 1520 37 c 1,21,22
 1461 107 1461 107 1520 178 c 1,23,16
 1599 248 1599 248 1678 174 c 1,17,18
EndSplineSet
EndChar

StartChar: guilsinglleft
Encoding: 8249 8249 196
Width: 631
Flags: W
LayerCount: 2
Fore
SplineSet
174 479 m 1,0,-1
 516 782 l 1,1,-1
 530 782 l 1,2,-1
 530 745 l 1,3,-1
 325 479 l 1,4,-1
 530 213 l 1,5,-1
 530 176 l 1,6,-1
 516 176 l 1,7,-1
 174 479 l 1,0,-1
EndSplineSet
EndChar

StartChar: guilsinglright
Encoding: 8250 8250 197
Width: 631
Flags: W
LayerCount: 2
Fore
SplineSet
115 176 m 1,0,-1
 101 176 l 1,1,-1
 101 213 l 1,2,-1
 306 479 l 1,3,-1
 101 745 l 1,4,-1
 101 782 l 1,5,-1
 115 782 l 1,6,-1
 457 479 l 1,7,-1
 115 176 l 1,0,-1
EndSplineSet
EndChar

StartChar: fraction
Encoding: 8260 8260 198
AltUni2: 002215.ffffffff.0
Width: 400
Flags: W
LayerCount: 2
Fore
SplineSet
-222 -19 m 1,0,-1
 496 1411 l 1,1,-1
 615 1411 l 1,2,-1
 -102 -19 l 1,3,-1
 -222 -19 l 1,0,-1
EndSplineSet
EndChar

StartChar: franc
Encoding: 8355 8355 199
Width: 0
Flags: W
LayerCount: 2
Fore
SplineSet
-327 1484 m 1,0,-1
 -281 1626 l 1,1,2
 -122 1570 -122 1570 -50 1529 c 1,3,4
 -69 1710 -69 1710 -70 1778 c 1,5,-1
 75 1778 l 1,6,7
 72 1679 72 1679 52 1530 c 1,8,9
 155 1582 155 1582 288 1626 c 1,10,-1
 334 1484 l 1,11,12
 207 1442 207 1442 85 1428 c 1,13,14
 146 1375 146 1375 257 1239 c 1,15,-1
 137 1154 l 1,16,17
 79 1233 79 1233 0 1369 c 1,18,19
 -74 1228 -74 1228 -130 1154 c 1,20,-1
 -248 1239 l 1,21,22
 -132 1382 -132 1382 -82 1428 c 1,23,24
 -211 1453 -211 1453 -327 1484 c 1,0,-1
EndSplineSet
EndChar

StartChar: lira
Encoding: 8356 8356 200
Width: 1124
Flags: W
LayerCount: 2
Fore
SplineSet
495 417 m 1,0,-1
 301 -28 l 1,1,-1
 165 -28 l 1,2,-1
 360 417 l 1,3,-1
 78 417 l 1,4,-1
 78 585 l 1,5,-1
 434 585 l 1,6,-1
 556 862 l 1,7,-1
 78 862 l 1,8,-1
 78 1030 l 1,9,-1
 629 1030 l 1,10,-1
 825 1474 l 1,11,-1
 959 1474 l 1,12,-1
 764 1030 l 1,13,-1
 1046 1030 l 1,14,-1
 1046 862 l 1,15,-1
 690 862 l 1,16,-1
 569 585 l 1,17,-1
 1046 585 l 1,18,-1
 1046 417 l 1,19,-1
 495 417 l 1,0,-1
EndSplineSet
EndChar

StartChar: peseta
Encoding: 8359 8359 201
Width: 2028
Flags: W
LayerCount: 2
Fore
SplineSet
409 1384 m 1,0,-1
 409 722 l 2,1,2
 412 713 412 713 416 705 c 0,3,4
 457 603 457 603 524 552 c 0,5,6
 581 508 581 508 640 508 c 0,7,8
 650 508 650 508 659 509 c 0,9,10
 727 517 727 517 786 584 c 128,-1,11
 845 651 845 651 873 761 c 0,12,13
 895 848 895 848 895 940 c 0,14,15
 895 964 895 964 894 987 c 0,16,17
 887 1103 887 1103 844.5 1205.5 c 128,-1,18
 802 1308 802 1308 736 1350 c 0,19,20
 680 1385 680 1385 624 1385 c 0,21,22
 614 1385 614 1385 603 1384 c 2,23,-1
 409 1384 l 1,0,-1
1496 908 m 1,24,-1
 1317 908 l 1,25,-1
 1317 223 l 2,26,27
 1317 142 1317 142 1351 104 c 0,28,29
 1379 73 1379 73 1432 67 c 1,30,-1
 1361 259 l 1,31,-1
 1410 260 l 1,32,33
 1465 130 1465 130 1524 86 c 0,34,35
 1581 42 1581 42 1651 42 c 2,36,-1
 1658 42 l 2,37,38
 1750 42 1750 42 1809 94 c 0,39,40
 1868 147 1868 147 1868 230 c 0,41,42
 1868 332 1868 332 1609 456 c 0,43,44
 1508 508 1508 508 1465 568 c 128,-1,45
 1422 628 1422 628 1422 713 c 0,46,47
 1422 834 1422 834 1495 907 c 2,48,-1
 1496 908 l 1,24,-1
1039 910 m 1,49,50
 1032 809 1032 809 991 716 c 0,51,52
 941 602 941 602 850 538.5 c 128,-1,53
 759 475 759 475 660 475 c 0,54,55
 560 475 560 475 469 539 c 0,56,57
 436 561 436 561 409 590 c 1,58,-1
 409 285 l 2,59,60
 409 50 409 50 511 50 c 2,61,-1
 608 50 l 1,62,-1
 608 0 l 1,63,-1
 48 0 l 1,64,-1
 48 50 l 1,65,-1
 144 50 l 2,66,67
 247 50 247 50 247 285 c 2,68,-1
 247 1149 l 2,69,70
 247 1384 247 1384 144 1384 c 2,71,-1
 48 1384 l 1,72,-1
 48 1434 l 1,73,-1
 666 1434 l 2,74,75
 758 1432 758 1432 847 1372 c 0,76,77
 938 1310 938 1310 990 1195 c 0,78,79
 1040 1082 1040 1082 1041 958 c 1,80,-1
 1051 958 l 2,81,82
 1267 958 1267 958 1267 1313 c 1,83,-1
 1317 1313 l 1,84,-1
 1317 958 l 1,85,-1
 1576 958 l 1,86,87
 1618 977 1618 977 1686 978 c 2,88,-1
 1688 978 l 2,89,90
 1742 978 1742 978 1821.5 964.5 c 128,-1,91
 1901 951 1901 951 1901 931 c 2,92,-1
 1901 772 l 1,93,-1
 1859 772 l 1,94,95
 1855 838 1855 838 1793.5 880 c 128,-1,96
 1732 922 1732 922 1660 922 c 0,97,98
 1596 922 1596 922 1557.5 885.5 c 128,-1,99
 1519 849 1519 849 1519 789 c 0,100,101
 1519 681 1519 681 1754 569 c 0,102,103
 1876 514 1876 514 1921.5 451.5 c 128,-1,104
 1967 389 1967 389 1967 298 c 0,105,106
 1967 158 1967 158 1884 67 c 1,107,108
 1782 -17 1782 -17 1656 -19 c 0,109,110
 1598 -19 1598 -19 1551 -8 c 0,111,112
 1523 -2 1523 -2 1495 -2 c 0,113,114
 1477 -2 1477 -2 1459 -5 c 0,115,116
 1431 -10 1431 -10 1400 -10 c 0,117,118
 1276 -10 1276 -10 1226.5 47 c 128,-1,119
 1177 104 1177 104 1169 223 c 1,120,-1
 1168 223 l 1,121,-1
 1168 910 l 1,122,-1
 1039 910 l 1,49,50
EndSplineSet
EndChar

StartChar: Euro
Encoding: 8364 8364 202
Width: 1200
Flags: W
LayerCount: 2
Fore
SplineSet
827 857 m 0,0,1
 670 857 670 857 563 781 c 0,2,3
 499 736 499 736 448 654 c 0,4,5
 396 569 396 569 386 492 c 1,6,-1
 1024 492 l 1,7,-1
 999 367 l 1,8,-1
 371 367 l 1,9,10
 370 348 370 348 370 330 c 0,11,12
 370 258 370 258 371 244 c 1,13,-1
 973 244 l 1,14,-1
 947 118 l 1,15,-1
 391 118 l 1,16,17
 430 -96 430 -96 580 -185 c 0,18,19
 687 -250 687 -250 813 -250 c 0,20,21
 987 -250 987 -250 1086 -158 c 1,22,-1
 1086 -351 l 1,23,24
 969 -405 969 -405 828 -405 c 0,25,26
 405 -405 405 -405 256 -54 c 0,27,28
 227 18 227 18 205 118 c 1,29,-1
 62 118 l 1,30,-1
 88 244 l 1,31,-1
 186 244 l 1,32,33
 184 283 184 283 184 329 c 0,34,35
 184 348 184 348 184 367 c 1,36,-1
 62 367 l 1,37,-1
 88 492 l 1,38,-1
 197 492 l 1,39,40
 255 797 255 797 499 930 c 0,41,42
 649 1012 649 1012 830 1012 c 0,43,44
 1004 1012 1004 1012 1123 936 c 1,45,-1
 1086 763 l 1,46,47
 972 857 972 857 827 857 c 0,0,1
EndSplineSet
EndChar

StartChar: afii61352
Encoding: 8470 8470 203
Width: 2197
Flags: W
LayerCount: 2
Fore
SplineSet
160 1466 m 1,0,-1
 355 1466 l 1,1,-1
 1072 330 l 1,2,-1
 1072 1466 l 1,3,-1
 1257 1466 l 1,4,-1
 1257 0 l 1,5,-1
 1063 0 l 1,6,-1
 342 1131 l 1,7,-1
 342 0 l 1,8,-1
 160 0 l 1,9,-1
 160 1466 l 1,0,-1
1391 785 m 0,10,11
 1391 962 1391 962 1490.5 1067 c 128,-1,12
 1590 1172 1590 1172 1754 1172 c 0,13,14
 1917 1172 1917 1172 2014.5 1064 c 128,-1,15
 2112 956 2112 956 2112 773 c 0,16,17
 2112 588 2112 588 2011.5 480 c 128,-1,18
 1911 372 1911 372 1746 372 c 0,19,20
 1604 372 1604 372 1497.5 469.5 c 128,-1,21
 1391 567 1391 567 1391 785 c 0,10,11
1566 779 m 0,22,23
 1566 645 1566 645 1619.5 577 c 128,-1,24
 1673 509 1673 509 1751 509 c 0,25,26
 1824 509 1824 509 1880.5 574.5 c 128,-1,27
 1937 640 1937 640 1937 773 c 0,28,29
 1937 913 1937 913 1878.5 975.5 c 128,-1,30
 1820 1038 1820 1038 1750 1038 c 0,31,32
 1675 1038 1675 1038 1620.5 973 c 128,-1,33
 1566 908 1566 908 1566 779 c 0,22,23
1410 266 m 1,34,-1
 2091 266 l 1,35,-1
 2091 118 l 1,36,-1
 1410 118 l 1,37,-1
 1410 266 l 1,34,-1
EndSplineSet
EndChar

StartChar: trademark
Encoding: 8482 8482 204
Width: 2048
Flags: W
LayerCount: 2
Fore
SplineSet
489 651 m 1,0,-1
 489 1345 l 1,1,-1
 225 1345 l 1,2,-1
 225 1466 l 1,3,-1
 891 1466 l 1,4,-1
 891 1345 l 1,5,-1
 625 1345 l 1,6,-1
 625 651 l 1,7,-1
 489 651 l 1,0,-1
982 651 m 1,8,-1
 982 1466 l 1,9,-1
 1182 1466 l 1,10,-1
 1388 815 l 1,11,-1
 1587 1466 l 1,12,-1
 1783 1466 l 1,13,-1
 1783 651 l 1,14,-1
 1659 651 l 1,15,-1
 1659 1335 l 1,16,-1
 1449 651 l 1,17,-1
 1326 651 l 1,18,-1
 1107 1345 l 1,19,-1
 1107 651 l 1,20,-1
 982 651 l 1,8,-1
EndSplineSet
EndChar

StartChar: partialdiff
Encoding: 8706 8706 205
Width: 1012
Flags: W
LayerCount: 2
Fore
SplineSet
426 1138 m 1,0,-1
 291 1198 l 1,1,2
 361 1355 361 1355 459 1423 c 128,-1,3
 557 1491 557 1491 651 1491 c 0,4,5
 727 1491 727 1491 788.5 1451.5 c 128,-1,6
 850 1412 850 1412 881 1361 c 0,7,8
 928 1282 928 1282 950.5 1174 c 128,-1,9
 973 1066 973 1066 973 926 c 0,10,11
 973 638 973 638 886.5 413.5 c 128,-1,12
 800 189 800 189 653 82 c 128,-1,13
 506 -25 506 -25 364 -25 c 0,14,15
 227 -25 227 -25 141.5 66 c 128,-1,16
 56 157 56 157 56 322 c 0,17,18
 56 548 56 548 209 709 c 0,19,20
 406 916 406 916 858 924 c 1,21,22
 854 1092 854 1092 834 1180 c 128,-1,23
 814 1268 814 1268 766 1315.5 c 128,-1,24
 718 1363 718 1363 653 1363 c 0,25,26
 591 1363 591 1363 532 1313.5 c 128,-1,27
 473 1264 473 1264 426 1138 c 1,0,-1
854 796 m 1,28,29
 610 782 610 782 496.5 728 c 128,-1,30
 383 674 383 674 309.5 551.5 c 128,-1,31
 236 429 236 429 236 303 c 0,32,33
 236 220 236 220 287 166 c 128,-1,34
 338 112 338 112 406 112 c 0,35,36
 481 112 481 112 566 167 c 0,37,38
 683 243 683 243 756.5 401.5 c 128,-1,39
 830 560 830 560 854 796 c 1,28,29
EndSplineSet
EndChar

StartChar: Delta
Encoding: 8710 8710 206
Width: 1100
Flags: W
LayerCount: 2
Fore
SplineSet
1034 1400 m 1,0,-1
 1034 -200 l 1,1,-1
 72 -200 l 1,2,-1
 72 1400 l 1,3,-1
 1034 1400 l 1,0,-1
603 1255 m 1,5,6
 603 1165 603 1165 617.5 1122 c 128,-1,7
 632 1079 632 1079 630.5 1042 c 128,-1,8
 629 1005 629 1005 613 964.5 c 128,-1,9
 597 924 597 924 592.5 899.5 c 128,-1,10
 588 875 588 875 594 855 c 128,-1,11
 600 835 600 835 595 816.5 c 128,-1,12
 590 798 590 798 574.5 787 c 128,-1,13
 559 776 559 776 529 783.5 c 128,-1,14
 499 791 499 791 452.5 810.5 c 128,-1,15
 406 830 406 830 364.5 826 c 128,-1,16
 323 822 323 822 293 781.5 c 128,-1,17
 263 741 263 741 253.5 671.5 c 128,-1,18
 244 602 244 602 262.5 483 c 128,-1,19
 281 364 281 364 330 253 c 128,-1,20
 379 142 379 142 452 56.5 c 128,-1,21
 525 -29 525 -29 582 -11 c 1,22,23
 633 -26 633 -26 711 91.5 c 128,-1,24
 789 209 789 209 817 365.5 c 128,-1,25
 845 522 845 522 836 627 c 128,-1,26
 827 732 827 732 777 755.5 c 128,-1,27
 727 779 727 779 690 748 c 128,-1,28
 653 717 653 717 639 697.5 c 128,-1,29
 625 678 625 678 602 657 c 1,30,31
 601 610 601 610 619.5 577 c 128,-1,32
 638 544 638 544 638.5 510.5 c 128,-1,33
 639 477 639 477 634.5 440 c 128,-1,34
 630 403 630 403 622 368.5 c 128,-1,35
 614 334 614 334 614.5 305 c 128,-1,36
 615 276 615 276 605 241 c 128,-1,37
 595 206 595 206 586.5 177.5 c 128,-1,38
 578 149 578 149 564.5 178 c 128,-1,39
 551 207 551 207 548.5 241.5 c 128,-1,40
 546 276 546 276 541.5 305.5 c 128,-1,41
 537 335 537 335 532.5 367 c 128,-1,42
 528 399 528 399 518 441.5 c 128,-1,43
 508 484 508 484 511 513.5 c 128,-1,44
 514 543 514 543 540 609 c 1,45,46
 537 652 537 652 516.5 667 c 128,-1,47
 496 682 496 682 452.5 685.5 c 128,-1,48
 409 689 409 689 385.5 643.5 c 128,-1,49
 362 598 362 598 373 495 c 128,-1,50
 384 392 384 392 421.5 309 c 128,-1,51
 459 226 459 226 515.5 150.5 c 128,-1,52
 572 75 572 75 563 65 c 128,-1,53
 554 55 554 55 543.5 55 c 128,-1,54
 533 55 533 55 463.5 144 c 128,-1,55
 394 233 394 233 360 319 c 128,-1,56
 326 405 326 405 315 497.5 c 128,-1,57
 304 590 304 590 309.5 634 c 128,-1,58
 315 678 315 678 334 710 c 128,-1,59
 353 742 353 742 395.5 755 c 128,-1,60
 438 768 438 768 480.5 753.5 c 128,-1,61
 523 739 523 739 569 711 c 1,62,63
 596 785 596 785 636.5 828.5 c 128,-1,64
 677 872 677 872 724 877.5 c 128,-1,65
 771 883 771 883 818 862.5 c 128,-1,66
 865 842 865 842 896 780 c 128,-1,67
 927 718 927 718 929.5 625 c 128,-1,68
 932 532 932 532 896 367.5 c 128,-1,69
 860 203 860 203 795.5 93.5 c 128,-1,70
 731 -16 731 -16 675 -56 c 128,-1,71
 619 -96 619 -96 580 -87 c 1,72,73
 520 -104 520 -104 433.5 -24.5 c 128,-1,74
 347 55 347 55 279 187.5 c 128,-1,75
 211 320 211 320 188 459 c 128,-1,76
 165 598 165 598 169.5 662 c 128,-1,77
 174 726 174 726 187 782 c 128,-1,78
 200 838 200 838 237 877 c 128,-1,79
 274 916 274 916 314 919 c 128,-1,80
 354 922 354 922 381.5 917.5 c 128,-1,81
 409 913 409 913 441.5 892.5 c 128,-1,82
 474 872 474 872 494.5 856 c 128,-1,83
 515 840 515 840 528.5 843 c 128,-1,84
 542 846 542 846 543.5 861 c 128,-1,85
 545 876 545 876 544 899 c 128,-1,86
 543 922 543 922 529.5 965.5 c 128,-1,87
 516 1009 516 1009 511 1045.5 c 128,-1,88
 506 1082 506 1082 526.5 1125.5 c 128,-1,89
 547 1169 547 1169 556 1255 c 1,90,4
 577 1323 577 1323 603 1255 c 1,5,6
EndSplineSet
EndChar

StartChar: product
Encoding: 8719 8719 207
Width: 1686
Flags: W
LayerCount: 2
Fore
SplineSet
161 1491 m 1,0,-1
 1523 1491 l 1,1,-1
 1523 -431 l 1,2,-1
 1332 -431 l 1,3,-1
 1332 1317 l 1,4,-1
 354 1317 l 1,5,-1
 354 -431 l 1,6,-1
 161 -431 l 1,7,-1
 161 1491 l 1,0,-1
EndSplineSet
EndChar

StartChar: summation
Encoding: 8721 8721 208
Width: 1460
Flags: W
LayerCount: 2
Fore
SplineSet
139 1491 m 1,0,-1
 1376 1491 l 1,1,-1
 1376 1327 l 1,2,-1
 388 1327 l 1,3,-1
 995 552 l 1,4,-1
 346 -270 l 1,5,-1
 1386 -270 l 1,6,-1
 1386 -431 l 1,7,-1
 122 -431 l 1,8,-1
 122 -244 l 1,9,-1
 742 544 l 1,10,-1
 139 1316 l 1,11,-1
 139 1491 l 1,0,-1
EndSplineSet
EndChar

StartChar: minus
Encoding: 8722 8722 209
Width: 1014
Flags: W
LayerCount: 2
Fore
SplineSet
97 567 m 1,0,-1
 97 717 l 1,1,-1
 507 717 l 1,2,-1
 896 717 l 1,3,-1
 897 716 l 1,4,-1
 897 716 l 1,5,-1
 897 567 l 1,6,-1
 507 567 l 1,7,-1
 97 567 l 1,0,-1
EndSplineSet
EndChar

StartChar: radical
Encoding: 8730 8730 210
Width: 1000
Flags: W
LayerCount: 2
Fore
SplineSet
201 0 m 1,0,-1
 -33 379 l 1,1,-1
 51 434 l 1,2,-1
 196 229 l 1,3,-1
 844 1679 l 1,4,-1
 1104 1679 l 1,5,-1
 1104 1599 l 1,6,-1
 912 1599 l 1,7,-1
 201 0 l 1,0,-1
EndSplineSet
EndChar

StartChar: infinity
Encoding: 8734 8734 211
Width: 1014
Flags: W
LayerCount: 2
Fore
SplineSet
439 755 m 1,0,1
 424 858 424 858 365 888 c 0,2,3
 319 910 319 910 281 910 c 0,4,5
 269 910 269 910 258 908 c 0,6,7
 209 898 209 898 165.5 863.5 c 128,-1,8
 122 829 122 829 100 779 c 0,9,10
 80 733 80 733 80 689 c 2,11,-1
 80 681 l 2,12,13
 82 633 82 633 107.5 592 c 128,-1,14
 133 551 133 551 179 534 c 0,15,16
 208 523 208 523 240 523 c 0,17,18
 256 523 256 523 273 526 c 0,19,20
 320 536 320 536 363.5 569.5 c 128,-1,21
 407 603 407 603 439 755 c 1,0,1
466 687 m 1,22,23
 478 591 478 591 560 534 c 0,24,25
 629 486 629 486 683 486 c 0,26,27
 694 486 694 486 704 488 c 0,28,29
 766 500 766 500 821.5 540 c 128,-1,30
 877 580 877 580 906 641 c 0,31,32
 932 695 932 695 932 749 c 2,33,-1
 932 760 l 2,34,35
 930 820 930 820 896.5 868.5 c 128,-1,36
 863 917 863 917 805 937 c 0,37,38
 768 950 768 950 729 950 c 0,39,40
 707 950 707 950 685 946 c 0,41,42
 618 937 618 937 558 884 c 128,-1,43
 498 831 498 831 466 687 c 1,22,23
450 827 m 1,44,45
 459 862 459 862 471 896 c 0,46,47
 505 984 505 984 566 1033 c 128,-1,48
 627 1082 627 1082 694 1082 c 256,49,50
 761 1082 761 1082 822 1034 c 128,-1,51
 883 986 883 986 917 899 c 128,-1,52
 951 812 951 812 951 717 c 256,53,54
 951 622 951 622 917 535 c 128,-1,55
 883 448 883 448 822 400 c 128,-1,56
 761 352 761 352 694 352 c 256,57,58
 627 352 627 352 566 401 c 128,-1,59
 505 450 505 450 471 537 c 0,60,61
 459 572 459 572 450 607 c 1,62,63
 445 586 445 586 438 566 c 0,64,65
 411 493 411 493 364 453 c 128,-1,66
 317 413 317 413 265 413 c 256,67,68
 213 413 213 413 165 454 c 128,-1,69
 117 495 117 495 91.5 567.5 c 128,-1,70
 66 640 66 640 66 717 c 0,71,72
 66 793 66 793 91.5 866 c 128,-1,73
 117 939 117 939 165 980 c 128,-1,74
 213 1021 213 1021 265 1021 c 256,75,76
 317 1021 317 1021 364 981 c 128,-1,77
 411 941 411 941 438 869 c 0,78,79
 445 848 445 848 450 827 c 1,44,45
EndSplineSet
EndChar

StartChar: integral
Encoding: 8747 8747 212
Width: 665
Flags: W
LayerCount: 2
Fore
SplineSet
-12 -281 m 0,0,1
 -72 -281 -72 -281 -72 -252 c 2,2,-1
 -72 -93 l 1,3,-1
 -36 -93 l 1,4,5
 -35 -136 -35 -136 -1.5 -157.5 c 128,-1,6
 32 -179 32 -179 62 -179 c 2,7,-1
 63 -179 l 2,8,9
 145 -179 145 -179 178 -17 c 0,10,11
 210 145 210 145 218 299 c 1,12,-1
 288 1033 l 1,13,-1
 296 1095 l 2,14,15
 323 1333 323 1333 431 1524.5 c 128,-1,16
 539 1716 539 1716 665 1716 c 0,17,18
 725 1716 725 1716 725 1687 c 2,19,-1
 725 1528 l 1,20,-1
 689 1528 l 1,21,22
 688 1571 688 1571 654 1592.5 c 128,-1,23
 620 1614 620 1614 591 1614 c 0,24,25
 520 1614 520 1614 475 1458.5 c 128,-1,26
 430 1303 430 1303 426 1095 c 1,27,-1
 353 328 l 2,28,29
 333 97 333 97 222.5 -92 c 128,-1,30
 112 -281 112 -281 -12 -281 c 0,0,1
EndSplineSet
EndChar

StartChar: approxequal
Encoding: 8776 8776 213
Width: 1014
Flags: W
LayerCount: 2
Fore
SplineSet
923 1053 m 1,0,-1
 923 897 l 1,1,2
 860 825 860 825 801 799.5 c 128,-1,3
 742 774 742 774 685 774 c 0,4,5
 625 774 625 774 507.5 822.5 c 128,-1,6
 390 871 390 871 331 871 c 0,7,8
 280 871 280 871 223.5 843 c 128,-1,9
 167 815 167 815 94 731 c 1,10,-1
 94 887 l 1,11,12
 158 960 158 960 217 986 c 128,-1,13
 276 1012 276 1012 331 1012 c 0,14,15
 395 1012 395 1012 512.5 962.5 c 128,-1,16
 630 913 630 913 685 913 c 0,17,18
 737 913 737 913 793.5 941 c 128,-1,19
 850 969 850 969 923 1053 c 1,0,-1
923 705 m 1,20,-1
 923 549 l 1,21,22
 860 477 860 477 801 451.5 c 128,-1,23
 742 426 742 426 685 426 c 0,24,25
 625 426 625 426 507.5 474.5 c 128,-1,26
 390 523 390 523 331 523 c 0,27,28
 280 523 280 523 223.5 495 c 128,-1,29
 167 467 167 467 94 383 c 1,30,-1
 94 539 l 1,31,32
 158 612 158 612 217 638 c 128,-1,33
 276 664 276 664 331 664 c 0,34,35
 395 664 395 664 512.5 614.5 c 128,-1,36
 630 565 630 565 685 565 c 0,37,38
 737 565 737 565 793.5 593 c 128,-1,39
 850 621 850 621 923 705 c 1,20,-1
EndSplineSet
EndChar

StartChar: lessequal
Encoding: 8804 8804 214
Width: 1014
Flags: W
LayerCount: 2
Fore
SplineSet
927 1074 m 1,0,-1
 302 715 l 1,1,-1
 927 360 l 1,2,-1
 927 193 l 1,3,-1
 87 674 l 1,4,-1
 87 757 l 1,5,-1
 927 1241 l 1,6,-1
 927 1074 l 1,0,-1
87 1 m 1,7,-1
 87 141 l 1,8,-1
 926 141 l 1,9,-1
 927 140 l 1,10,-1
 927 1 l 1,11,-1
 87 1 l 1,7,-1
EndSplineSet
EndChar

StartChar: greaterequal
Encoding: 8805 8805 215
Width: 1014
Flags: W
LayerCount: 2
Fore
SplineSet
87 1241 m 1,0,-1
 927 757 l 1,1,-1
 927 674 l 1,2,-1
 87 193 l 1,3,-1
 87 360 l 1,4,-1
 712 715 l 1,5,-1
 87 1074 l 1,6,-1
 87 1241 l 1,0,-1
87 2 m 1,7,-1
 87 142 l 1,8,-1
 926 142 l 1,9,-1
 927 141 l 1,10,-1
 927 2 l 1,11,-1
 87 2 l 1,7,-1
EndSplineSet
EndChar

StartChar: uniF001
Encoding: 61441 61441 216
AltUni2: 00fb01.ffffffff.0
Width: 1536
Flags: W
LayerCount: 2
Fore
SplineSet
796 461 m 1,0,-1
 796 59 l 1,1,-1
 1255 59 l 1,2,-1
 1255 0 l 1,3,-1
 796 0 l 1,4,-1
 796 -439 l 1,5,-1
 737 -439 l 1,6,-1
 737 0 l 1,7,-1
 277 0 l 1,8,-1
 277 59 l 1,9,-1
 737 59 l 1,10,-1
 737 461 l 1,11,12
 634 461 634 461 511.5 526.5 c 128,-1,13
 389 592 389 592 316.5 717.5 c 128,-1,14
 244 843 244 843 244 983 c 0,15,16
 244 1119 244 1119 313.5 1244 c 128,-1,17
 383 1369 383 1369 507 1438 c 128,-1,18
 631 1507 631 1507 768 1507 c 0,19,20
 904 1507 904 1507 1028.5 1437.5 c 128,-1,21
 1153 1368 1153 1368 1222 1243.5 c 128,-1,22
 1291 1119 1291 1119 1291 983 c 0,23,24
 1291 774 1291 774 1147.5 622.5 c 128,-1,25
 1004 471 1004 471 796 461 c 1,0,-1
767 1451 m 0,26,27
 649 1451 649 1451 536.5 1390.5 c 128,-1,28
 424 1330 424 1330 361 1217 c 128,-1,29
 298 1104 298 1104 298 982 c 0,30,31
 298 787 298 787 435.5 649.5 c 128,-1,32
 573 512 573 512 767 512 c 0,33,34
 962 512 962 512 1099.5 649.5 c 128,-1,35
 1237 787 1237 787 1237 982 c 0,36,37
 1237 1104 1237 1104 1174 1217 c 128,-1,38
 1111 1330 1111 1330 998.5 1390.5 c 128,-1,39
 886 1451 886 1451 767 1451 c 0,26,27
EndSplineSet
EndChar

StartChar: uniF002
Encoding: 61442 61442 217
AltUni2: 00fb02.ffffffff.0
Width: 1536
Flags: W
LayerCount: 2
Fore
SplineSet
1216 1620 m 1,0,-1
 1252 1604 l 1,1,-1
 1415 938 l 1,2,-1
 1358 923 l 1,3,-1
 1216 1504 l 1,4,-1
 858 736 l 1,5,6
 1006 661 1006 661 1082 534 c 128,-1,7
 1158 407 1158 407 1158 262 c 0,8,9
 1158 126 1158 126 1089 1.5 c 128,-1,10
 1020 -123 1020 -123 895.5 -192.5 c 128,-1,11
 771 -262 771 -262 634 -262 c 0,12,13
 498 -262 498 -262 373.5 -192.5 c 128,-1,14
 249 -123 249 -123 180 1.5 c 128,-1,15
 111 126 111 126 111 262 c 0,16,17
 111 479 111 479 264.5 632 c 128,-1,18
 418 785 418 785 637 785 c 0,19,20
 715 785 715 785 803 758 c 1,21,-1
 1163 1529 l 1,22,-1
 626 1264 l 1,23,-1
 602 1317 l 1,24,-1
 1216 1620 l 1,0,-1
634 731 m 0,25,26
 516 731 516 731 403.5 670.5 c 128,-1,27
 291 610 291 610 228 497 c 128,-1,28
 165 384 165 384 165 262 c 0,29,30
 165 67 165 67 302.5 -70.5 c 128,-1,31
 440 -208 440 -208 634 -208 c 0,32,33
 829 -208 829 -208 966.5 -70.5 c 128,-1,34
 1104 67 1104 67 1104 262 c 0,35,36
 1104 384 1104 384 1041 497 c 128,-1,37
 978 610 978 610 865.5 670.5 c 128,-1,38
 753 731 753 731 634 731 c 0,25,26
EndSplineSet
EndChar

StartChar: glyph236
Encoding: 65539 -1 218
Width: 1307
Flags: W
LayerCount: 2
Fore
SplineSet
644 1652 m 1,0,1
 804 1703 804 1703 804 1603.5 c 128,-1,2
 804 1504 804 1504 743.5 1404.5 c 128,-1,3
 683 1305 683 1305 703 1205 c 1,4,-1
 703 1056 l 1,5,6
 502 1071 502 1071 391.5 1053.5 c 128,-1,7
 281 1036 281 1036 243.5 941.5 c 128,-1,8
 206 847 206 847 215.5 728.5 c 128,-1,9
 225 610 225 610 280.5 461.5 c 128,-1,10
 336 313 336 313 424 205 c 128,-1,11
 512 97 512 97 585.5 41.5 c 128,-1,12
 659 -14 659 -14 771.5 65.5 c 128,-1,13
 884 145 884 145 967 290.5 c 128,-1,14
 1050 436 1050 436 1093.5 604 c 128,-1,15
 1137 772 1137 772 1075.5 922.5 c 128,-1,16
 1014 1073 1014 1073 900 1046 c 1,17,-1
 901 945 l 1,18,19
 1002 914 1002 914 1013 814 c 1,20,21
 1033 699 1033 699 1015.5 605 c 128,-1,22
 998 511 998 511 910 337 c 1,23,24
 632 -38 632 -38 840 378 c 1,25,26
 907 554 907 554 909.5 624.5 c 128,-1,27
 912 695 912 695 902.5 753 c 128,-1,28
 893 811 893 811 844.5 846.5 c 128,-1,29
 796 882 796 882 709 833 c 1,30,31
 674 755 674 755 734.5 669.5 c 128,-1,32
 795 584 795 584 748.5 522 c 128,-1,33
 702 460 702 460 695.5 391 c 128,-1,34
 689 322 689 322 672 293 c 128,-1,35
 655 264 655 264 636 294 c 128,-1,36
 617 324 617 324 609.5 393 c 128,-1,37
 602 462 602 462 555.5 525 c 128,-1,38
 509 588 509 588 567 674 c 128,-1,39
 625 760 625 760 605 832 c 1,40,41
 530 883 530 883 470.5 846.5 c 128,-1,42
 411 810 411 810 414.5 706.5 c 128,-1,43
 418 603 418 603 440.5 523.5 c 128,-1,44
 463 444 463 444 505 372.5 c 128,-1,45
 547 301 547 301 656 196 c 1,46,47
 1277 -331 1277 -331 625 124 c 1,48,49
 500 233 500 233 432.5 331.5 c 128,-1,50
 365 430 365 430 338 513 c 128,-1,51
 311 596 311 596 298.5 679 c 128,-1,52
 286 762 286 762 314 852.5 c 128,-1,53
 342 943 342 943 451.5 969.5 c 128,-1,54
 561 996 561 996 657 929 c 1,55,56
 707 979 707 979 777 969 c 1,57,-1
 777 1208 l 1,58,-1
 902 1209 l 1,59,60
 1156 1199 1156 1199 1224 966 c 1,61,62
 1271 753 1271 753 1228 575 c 128,-1,63
 1185 397 1185 397 1083 227.5 c 128,-1,64
 981 58 981 58 819.5 -48.5 c 128,-1,65
 658 -155 658 -155 522 -53.5 c 128,-1,66
 386 48 386 48 279 201 c 128,-1,67
 172 354 172 354 119.5 540 c 128,-1,68
 67 726 67 726 80 915.5 c 128,-1,69
 93 1105 93 1105 227 1168 c 128,-1,70
 361 1231 361 1231 597 1217 c 1,71,72
 616 1299 616 1299 557.5 1400 c 128,-1,73
 499 1501 499 1501 498 1604 c 128,-1,74
 497 1707 497 1707 644 1652 c 1,0,1
680 1693 m 128,-1,76
 696 1668 696 1668 696 1632 c 256,77,78
 696 1596 696 1596 680 1571 c 128,-1,79
 664 1546 664 1546 642 1546 c 0,80,81
 619 1546 619 1546 603 1571 c 128,-1,82
 587 1596 587 1596 587 1632 c 256,83,84
 587 1668 587 1668 603 1693 c 128,-1,85
 619 1718 619 1718 642 1718 c 0,86,75
 664 1718 664 1718 680 1693 c 128,-1,76
EndSplineSet
EndChar

StartChar: glyph237
Encoding: 65540 -1 219
Width: 2091
Flags: W
LayerCount: 2
Fore
SplineSet
1683 518 m 0,0,1
 1683 254 1683 254 1496.5 67.5 c 128,-1,2
 1310 -119 1310 -119 1046 -119 c 256,3,4
 782 -119 782 -119 595 67.5 c 128,-1,5
 408 254 408 254 408 518 c 0,6,7
 408 783 408 783 595 969.5 c 128,-1,8
 782 1156 782 1156 1046 1156 c 256,9,10
 1310 1156 1310 1156 1496.5 969.5 c 128,-1,11
 1683 783 1683 783 1683 518 c 0,0,1
1591 518 m 0,12,13
 1591 744 1591 744 1431.5 903.5 c 128,-1,14
 1272 1063 1272 1063 1046 1063 c 256,15,16
 820 1063 820 1063 660.5 903.5 c 128,-1,17
 501 744 501 744 501 518 c 0,18,19
 501 293 501 293 660.5 133.5 c 128,-1,20
 820 -26 820 -26 1046 -26 c 256,21,22
 1272 -26 1272 -26 1431.5 133.5 c 128,-1,23
 1591 293 1591 293 1591 518 c 0,12,13
882 650 m 0,24,25
 882 617 882 617 858.5 593 c 128,-1,26
 835 569 835 569 801 569 c 0,27,28
 768 569 768 569 744 593 c 128,-1,29
 720 617 720 617 720 650 c 0,30,31
 720 684 720 684 744 707.5 c 128,-1,32
 768 731 768 731 801 731 c 0,33,34
 835 731 835 731 858.5 707.5 c 128,-1,35
 882 684 882 684 882 650 c 0,24,25
1371 650 m 0,36,37
 1371 617 1371 617 1347.5 593 c 128,-1,38
 1324 569 1324 569 1290 569 c 0,39,40
 1257 569 1257 569 1233 593 c 128,-1,41
 1209 617 1209 617 1209 650 c 0,42,43
 1209 684 1209 684 1233 707.5 c 128,-1,44
 1257 731 1257 731 1290 731 c 0,45,46
 1324 731 1324 731 1347.5 707.5 c 128,-1,47
 1371 684 1371 684 1371 650 c 0,36,37
752 313 m 1,48,-1
 814 349 l 1,49,50
 893 205 893 205 1046 205 c 256,51,52
 1199 205 1199 205 1277 349 c 1,53,-1
 1340 313 l 1,54,55
 1290 218 1290 218 1216.5 168 c 128,-1,56
 1143 118 1143 118 1046 118 c 0,57,58
 948 118 948 118 875 168 c 128,-1,59
 802 218 802 218 752 313 c 1,48,-1
EndSplineSet
EndChar

StartChar: glyph238
Encoding: 65541 -1 220
Width: 1024
Flags: W
LayerCount: 2
Fore
SplineSet
486 1363 m 1,0,-1
 524 1363 l 2,1,2
 696 1363 696 1363 751 1349 c 0,3,4
 830 1329 830 1329 890 1272 c 0,5,6
 935 1230 935 1230 961 1153.5 c 128,-1,7
 987 1077 987 1077 987 975 c 2,8,-1
 987 872 l 1,9,-1
 888 872 l 1,10,-1
 888 915 l 2,11,12
 888 983 888 983 859.5 1030.5 c 128,-1,13
 831 1078 831 1078 775 1103 c 0,14,15
 702 1135 702 1135 613 1135 c 2,16,-1
 585 1135 l 1,17,-1
 585 300 l 2,18,19
 585 179 585 179 553 111.5 c 128,-1,20
 521 44 521 44 443 3.5 c 128,-1,21
 365 -37 365 -37 273 -37 c 0,22,23
 164 -37 164 -37 100.5 24.5 c 128,-1,24
 37 86 37 86 37 186 c 0,25,26
 37 291 37 291 113 362.5 c 128,-1,27
 189 434 189 434 312 434 c 0,28,29
 390 434 390 434 486 388 c 1,30,-1
 486 1363 l 1,0,-1
EndSplineSet
EndChar

StartChar: glyph239
Encoding: 65542 -1 221
Width: 1536
Flags: W
LayerCount: 2
Fore
SplineSet
534 1271 m 1,0,-1
 1330 1519 l 1,1,-1
 1330 411 l 2,2,3
 1330 287 1330 287 1298.5 224 c 128,-1,4
 1267 161 1267 161 1191.5 120 c 128,-1,5
 1116 79 1116 79 1021 79 c 0,6,7
 912 79 912 79 847 141.5 c 128,-1,8
 782 204 782 204 782 303 c 0,9,10
 782 403 782 403 859 475.5 c 128,-1,11
 936 548 936 548 1058 548 c 0,12,13
 1098 548 1098 548 1128.5 541 c 128,-1,14
 1159 534 1159 534 1228 505 c 1,15,-1
 1228 1229 l 1,16,-1
 633 1044 l 1,17,-1
 633 208 l 2,18,19
 633 87 633 87 601 19.5 c 128,-1,20
 569 -48 569 -48 491 -88 c 128,-1,21
 413 -128 413 -128 321 -128 c 0,22,23
 212 -128 212 -128 148.5 -66.5 c 128,-1,24
 85 -5 85 -5 85 94 c 0,25,26
 85 199 85 199 161 270.5 c 128,-1,27
 237 342 237 342 360 342 c 0,28,29
 438 342 438 342 534 296 c 1,30,-1
 534 1271 l 1,0,-1
EndSplineSet
EndChar

